<svg version="1.1" viewBox="0.0 0.0 726.0 449.0" fill="none" stroke="none" stroke-linecap="square" stroke-miterlimit="10" width="726" height="449" xmlns:xlink="http://www.w3.org/1999/xlink" xmlns="http://www.w3.org/2000/svg"><path fill="#ffffff" d="M0 0L726.0 0L726.0 449.0L0 449.0L0 0Z" fill-rule="nonzero"/><path fill="#ffffff" d="M0 0L726.0 0L726.0 449.0L0 449.0L0 0Z" fill-rule="nonzero"/><path stroke="#333333" stroke-width="1.0" stroke-linecap="butt" d="M86.5 69.5L86.5 369.5" fill-rule="nonzero"/><path stroke="#cccccc" stroke-width="1.0" stroke-linecap="butt" d="M240.5 69.5L240.5 369.5" fill-rule="nonzero"/><path stroke="#cccccc" stroke-width="1.0" stroke-linecap="butt" d="M394.5 69.5L394.5 369.5" fill-rule="nonzero"/><path stroke="#cccccc" stroke-width="1.0" stroke-linecap="butt" d="M549.5 69.5L549.5 369.5" fill-rule="nonzero"/><path stroke="#cccccc" stroke-width="1.0" stroke-linecap="butt" d="M703.5 69.5L703.5 369.5" fill-rule="nonzero"/><path stroke="#e6e6e6" stroke-width="1.0" stroke-linecap="butt" d="M209.5 69.5L209.5 369.5" fill-rule="nonzero"/><path stroke="#e6e6e6" stroke-width="1.0" stroke-linecap="butt" d="M179.5 69.5L179.5 369.5" fill-rule="nonzero"/><path stroke="#e6e6e6" stroke-width="1.0" stroke-linecap="butt" d="M148.5 69.5L148.5 369.5" fill-rule="nonzero"/><path stroke="#e6e6e6" stroke-width="1.0" stroke-linecap="butt" d="M117.5 69.5L117.5 369.5" fill-rule="nonzero"/><path stroke="#e6e6e6" stroke-width="1.0" stroke-linecap="butt" d="M364.5 69.5L364.5 369.5" fill-rule="nonzero"/><path stroke="#e6e6e6" stroke-width="1.0" stroke-linecap="butt" d="M333.5 69.5L333.5 369.5" fill-rule="nonzero"/><path stroke="#e6e6e6" stroke-width="1.0" stroke-linecap="butt" d="M302.5 69.5L302.5 369.5" fill-rule="nonzero"/><path stroke="#e6e6e6" stroke-width="1.0" stroke-linecap="butt" d="M271.5 69.5L271.5 369.5" fill-rule="nonzero"/><path stroke="#e6e6e6" stroke-width="1.0" stroke-linecap="butt" d="M518.5 69.5L518.5 369.5" fill-rule="nonzero"/><path stroke="#e6e6e6" stroke-width="1.0" stroke-linecap="butt" d="M487.5 69.5L487.5 369.5" fill-rule="nonzero"/><path stroke="#e6e6e6" stroke-width="1.0" stroke-linecap="butt" d="M456.5 69.5L456.5 369.5" fill-rule="nonzero"/><path stroke="#e6e6e6" stroke-width="1.0" stroke-linecap="butt" d="M425.5 69.5L425.5 369.5" fill-rule="nonzero"/><path stroke="#e6e6e6" stroke-width="1.0" stroke-linecap="butt" d="M672.5 69.5L672.5 369.5" fill-rule="nonzero"/><path stroke="#e6e6e6" stroke-width="1.0" stroke-linecap="butt" d="M641.5 69.5L641.5 369.5" fill-rule="nonzero"/><path stroke="#e6e6e6" stroke-width="1.0" stroke-linecap="butt" d="M610.5 69.5L610.5 369.5" fill-rule="nonzero"/><path stroke="#e6e6e6" stroke-width="1.0" stroke-linecap="butt" d="M580.5 69.5L580.5 369.5" fill-rule="nonzero"/><path stroke="#cccccc" stroke-width="1.0" stroke-linecap="butt" d="M86.5 369.5L703.5 369.5" fill-rule="nonzero"/><path stroke="#cccccc" stroke-width="1.0" stroke-linecap="butt" d="M86.5 294.5L703.5 294.5" fill-rule="nonzero"/><path stroke="#cccccc" stroke-width="1.0" stroke-linecap="butt" d="M86.5 219.5L703.5 219.5" fill-rule="nonzero"/><path stroke="#cccccc" stroke-width="1.0" stroke-linecap="butt" d="M86.5 144.5L703.5 144.5" fill-rule="nonzero"/><path stroke="#cccccc" stroke-width="1.0" stroke-linecap="butt" d="M86.5 69.5L703.5 69.5" fill-rule="nonzero"/><path stroke="#e6e6e6" stroke-width="1.0" stroke-linecap="butt" d="M86.5 309.5L703.5 309.5" fill-rule="nonzero"/><path stroke="#e6e6e6" stroke-width="1.0" stroke-linecap="butt" d="M86.5 324.5L703.5 324.5" fill-rule="nonzero"/><path stroke="#e6e6e6" stroke-width="1.0" stroke-linecap="butt" d="M86.5 339.5L703.5 339.5" fill-rule="nonzero"/><path stroke="#e6e6e6" stroke-width="1.0" stroke-linecap="butt" d="M86.5 354.5L703.5 354.5" fill-rule="nonzero"/><path stroke="#e6e6e6" stroke-width="1.0" stroke-linecap="butt" d="M86.5 234.5L703.5 234.5" fill-rule="nonzero"/><path stroke="#e6e6e6" stroke-width="1.0" stroke-linecap="butt" d="M86.5 249.5L703.5 249.5" fill-rule="nonzero"/><path stroke="#e6e6e6" stroke-width="1.0" stroke-linecap="butt" d="M86.5 264.5L703.5 264.5" fill-rule="nonzero"/><path stroke="#e6e6e6" stroke-width="1.0" stroke-linecap="butt" d="M86.5 279.5L703.5 279.5" fill-rule="nonzero"/><path stroke="#e6e6e6" stroke-width="1.0" stroke-linecap="butt" d="M86.5 159.5L703.5 159.5" fill-rule="nonzero"/><path stroke="#e6e6e6" stroke-width="1.0" stroke-linecap="butt" d="M86.5 174.5L703.5 174.5" fill-rule="nonzero"/><path stroke="#e6e6e6" stroke-width="1.0" stroke-linecap="butt" d="M86.5 189.5L703.5 189.5" fill-rule="nonzero"/><path stroke="#e6e6e6" stroke-width="1.0" stroke-linecap="butt" d="M86.5 204.5L703.5 204.5" fill-rule="nonzero"/><path stroke="#e6e6e6" stroke-width="1.0" stroke-linecap="butt" d="M86.5 84.5L703.5 84.5" fill-rule="nonzero"/><path stroke="#e6e6e6" stroke-width="1.0" stroke-linecap="butt" d="M86.5 99.5L703.5 99.5" fill-rule="nonzero"/><path stroke="#e6e6e6" stroke-width="1.0" stroke-linecap="butt" d="M86.5 114.5L703.5 114.5" fill-rule="nonzero"/><path stroke="#e6e6e6" stroke-width="1.0" stroke-linecap="butt" d="M86.5 129.5L703.5 129.5" fill-rule="nonzero"/><clipPath id="id_0"><path d="M86.45 69.916664L703.55 69.916664L703.55 369.55L86.45 369.55L86.45 69.916664Z" clip-rule="nonzero"/></clipPath><path stroke="#45818e" stroke-width="2.0" stroke-linecap="butt" clip-path="url(#id_0)" d="M86.45 219.73334L86.45 219.73334" fill-rule="nonzero"/><path fill="#45818e" clip-path="url(#id_0)" d="M86.45 215.23334L90.95 219.73334L86.45 224.23334L81.95 219.73334Z" fill-rule="nonzero"/><path fill="#424242" d="M383.32812 420.8625L383.5 421.9875L383.73438 420.97186L385.42188 415.01874L386.375 415.01874L388.01562 420.97186L388.25 422.0031L388.4375 420.84686L389.76562 415.01874L390.89062 415.01874L388.82812 423.55L387.79688 423.55L386.03125 417.33124L385.90625 416.675L385.76562 417.33124L383.95312 423.55L382.92188 423.55L380.85938 415.01874L381.98438 415.01874L383.32812 420.8625ZM394.95312 423.675Q393.65625 423.675 392.84375 422.83124Q392.04688 421.97186 392.04688 420.55L392.04688 420.3625Q392.04688 419.40936 392.40625 418.675Q392.76562 417.925 393.40625 417.51874Q394.0625 417.09686 394.8125 417.09686Q396.04688 417.09686 396.73438 417.90936Q397.42188 418.72186 397.42188 420.2375L397.42188 420.6906L393.125 420.6906Q393.15625 421.6281 393.67188 422.20624Q394.20312 422.78436 395.01562 422.78436Q395.57812 422.78436 395.96875 422.55Q396.375 422.3156 396.6875 421.925L397.34375 422.4406Q396.54688 423.675 394.95312 423.675ZM394.8125 417.9875Q394.15625 417.9875 393.70312 418.47186Q393.26562 418.9406 393.17188 419.8L396.34375 419.8L396.34375 419.72186Q396.29688 418.89374 395.89062 418.4406Q395.5 417.9875 394.8125 417.9875ZM400.95312 423.675Q399.65625 423.675 398.84375 422.83124Q398.04688 421.97186 398.04688 420.55L398.04688 420.3625Q398.04688 419.40936 398.40625 418.675Q398.76562 417.925 399.40625 417.51874Q400.0625 417.09686 400.8125 417.09686Q402.04688 417.09686 402.73438 417.90936Q403.42188 418.72186 403.42188 420.2375L403.42188 420.6906L399.125 420.6906Q399.15625 421.6281 399.67188 422.20624Q400.20312 422.78436 401.01562 422.78436Q401.57812 422.78436 401.96875 422.55Q402.375 422.3156 402.6875 421.925L403.34375 422.4406Q402.54688 423.675 400.95312 423.675ZM400.8125 417.9875Q400.15625 417.9875 399.70312 418.47186Q399.26562 418.9406 399.17188 419.8L402.34375 419.8L402.34375 419.72186Q402.29688 418.89374 401.89062 418.4406Q401.5 417.9875 400.8125 417.9875ZM406.09375 420.6125L405.40625 421.3156L405.40625 423.55L404.32812 423.55L404.32812 414.55L405.40625 414.55L405.40625 419.9875L405.98438 419.3L407.96875 417.20624L409.28125 417.20624L406.8125 419.8625L409.57812 423.55L408.29688 423.55L406.09375 420.6125Z" fill-rule="nonzero"/><path fill="#424242" d="M34.44999 271.99896L25.918737 271.99896L25.918737 269.2021Q25.918737 267.81146 26.496862 267.12396Q27.059362 266.42084 28.184362 266.42084Q28.793737 266.42084 29.262487 266.7646Q29.715612 267.0927 29.965612 267.68646Q30.153112 266.98334 30.699987 266.5927Q31.231237 266.18646 31.981237 266.18646Q33.13749 266.18646 33.79374 266.93646Q34.44999 267.67084 34.44999 269.0302L34.44999 271.99896ZM30.465612 270.87396L33.528114 270.87396L33.528114 269.0146Q33.528114 268.2177 33.121864 267.7646Q32.715614 267.31146 31.996862 267.31146Q30.465612 267.31146 30.465612 268.99896L30.465612 270.87396ZM29.559362 270.87396L29.559362 269.17084Q29.559362 268.43646 29.199987 267.99896Q28.824987 267.54584 28.184362 267.54584Q27.481237 267.54584 27.168737 267.9521Q26.840612 268.35834 26.840612 269.2021L26.840612 270.87396L29.559362 270.87396ZM34.57499 262.5302Q34.57499 263.8271 33.73124 264.6396Q32.871864 265.43646 31.449987 265.43646L31.262487 265.43646Q30.309362 265.43646 29.574987 265.0771Q28.824987 264.7177 28.418737 264.0771Q27.996862 263.42084 27.996862 262.67084Q27.996862 261.43646 28.809362 260.74896Q29.621862 260.06146 31.137487 260.06146L31.590612 260.06146L31.590612 264.35834Q32.528114 264.3271 33.10624 263.81146Q33.684364 263.2802 33.684364 262.4677Q33.684364 261.9052 33.44999 261.5146Q33.215614 261.10834 32.82499 260.79584L33.340614 260.1396Q34.57499 260.93646 34.57499 262.5302ZM28.887487 262.67084Q28.887487 263.3271 29.371862 263.7802Q29.840612 264.2177 30.699987 264.31146L30.699987 261.1396L30.621862 261.1396Q29.793737 261.18646 29.340612 261.5927Q28.887487 261.98334 28.887487 262.67084ZM34.44999 257.98334L34.44999 259.06146L25.449987 259.06146L25.449987 257.98334L34.44999 257.98334ZM26.574987 254.68646L28.106237 254.68646L28.106237 253.51459L28.949987 253.51459L28.949987 254.68646L32.871864 254.68646Q33.26249 254.68646 33.44999 254.53021Q33.63749 254.37396 33.63749 253.99896Q33.63749 253.81146 33.57499 253.48334L34.44999 253.48334Q34.57499 253.90521 34.57499 254.31146Q34.57499 255.03021 34.13749 255.40521Q33.684364 255.78021 32.871864 255.78021L28.949987 255.78021L28.949987 256.93646L28.106237 256.93646L28.106237 255.78021L26.574987 255.78021L26.574987 254.68646ZM30.653112 246.48334Q30.231237 247.92084 29.621862 248.59271Q29.012487 249.24896 28.121862 249.24896Q27.121862 249.24896 26.465612 248.45209Q25.793737 247.63959 25.793737 246.34271Q25.793737 245.46771 26.137487 244.78021Q26.481237 244.09271 27.074987 243.71771Q27.668737 243.32709 28.387487 243.32709L28.387487 244.46771Q27.606237 244.46771 27.168737 244.96771Q26.731237 245.45209 26.731237 246.34271Q26.731237 247.17084 27.106237 247.63959Q27.465612 248.10834 28.106237 248.10834Q28.637487 248.10834 28.996862 247.67084Q29.356237 247.21771 29.653112 246.15521Q29.949987 245.09271 30.309362 244.49896Q30.668737 243.88959 31.153112 243.60834Q31.637487 243.31146 32.278114 243.31146Q33.32499 243.31146 33.94999 244.12396Q34.57499 244.93646 34.57499 246.28021Q34.57499 247.17084 34.23124 247.93646Q33.88749 248.68646 33.309364 249.10834Q32.715614 249.51459 31.981237 249.51459L31.981237 248.38959Q32.746864 248.38959 33.19999 247.81146Q33.653114 247.23334 33.653114 246.28021Q33.653114 245.38959 33.29374 244.92084Q32.91874 244.45209 32.29374 244.45209Q31.668737 244.45209 31.324987 244.88959Q30.981237 245.32709 30.653112 246.48334ZM34.44999 240.98334L34.44999 242.06146L28.106237 242.06146L28.106237 240.98334L34.44999 240.98334ZM26.434362 242.15521Q26.168737 242.15521 25.981237 241.99896Q25.793737 241.82709 25.793737 241.51459Q25.793737 241.20209 25.981237 241.04584Q26.168737 240.87396 26.434362 240.87396Q26.684362 240.87396 26.871862 241.04584Q27.043737 241.20209 27.043737 241.51459Q27.043737 241.82709 26.871862 241.99896Q26.684362 242.15521 26.434362 242.15521ZM33.559364 238.13959L33.559364 234.43646L34.44999 234.43646L34.44999 239.46771L33.653114 239.46771L29.012487 235.96771L29.012487 239.42084L28.106237 239.42084L28.106237 234.60834L28.871862 234.60834L33.559364 238.13959ZM34.57499 230.53021Q34.57499 231.82709 33.73124 232.63959Q32.871864 233.43646 31.449987 233.43646L31.262487 233.43646Q30.309362 233.43646 29.574987 233.07709Q28.824987 232.71771 28.418737 232.07709Q27.996862 231.42084 27.996862 230.67084Q27.996862 229.43646 28.809362 228.74896Q29.621862 228.06146 31.137487 228.06146L31.590612 228.06146L31.590612 232.35834Q32.528114 232.32709 33.10624 231.81146Q33.684364 231.28021 33.684364 230.46771Q33.684364 229.90521 33.44999 229.51459Q33.215614 229.10834 32.82499 228.79584L33.340614 228.13959Q34.57499 228.93646 34.57499 230.53021ZM28.887487 230.67084Q28.887487 231.32709 29.371862 231.78021Q29.840612 232.21771 30.699987 232.31146L30.699987 229.13959L30.621862 229.13959Q29.793737 229.18646 29.340612 229.59271Q28.887487 229.98334 28.887487 230.67084ZM30.981237 224.20209Q29.668737 224.20209 28.449987 223.85834Q27.231237 223.49896 26.231237 222.79584Q25.231237 222.09271 24.824987 221.32709L25.543737 221.10834Q26.199987 221.96771 27.543737 222.51459Q28.887487 223.06146 30.559362 223.10834L31.059362 223.12396Q33.32499 223.12396 34.98124 222.29584Q35.98124 221.79584 36.54374 221.10834L37.19999 221.32709Q36.778114 222.10834 35.746864 222.82709Q33.76249 224.20209 30.981237 224.20209ZM34.44999 218.98334L34.44999 220.06146L28.106237 220.06146L28.106237 218.98334L34.44999 218.98334ZM26.434362 220.15521Q26.168737 220.15521 25.981237 219.99896Q25.793737 219.82709 25.793737 219.51459Q25.793737 219.20209 25.981237 219.04584Q26.168737 218.87396 26.434362 218.87396Q26.684362 218.87396 26.871862 219.04584Q27.043737 219.20209 27.043737 219.51459Q27.043737 219.82709 26.871862 219.99896Q26.684362 220.15521 26.434362 220.15521ZM28.106237 216.13959L28.903112 216.10834Q27.996862 215.37396 27.996862 214.20209Q27.996862 212.18646 30.262487 212.17084L34.44999 212.17084L34.44999 213.26459L30.246862 213.26459Q29.574987 213.26459 29.246862 213.57709Q28.918737 213.87396 28.918737 214.53021Q28.918737 215.06146 29.199987 215.46771Q29.481237 215.85834 29.934362 216.07709L34.44999 216.07709L34.44999 217.15521L28.106237 217.15521L28.106237 216.13959ZM33.684364 207.62396Q33.684364 207.04584 33.340614 206.60834Q32.98124 206.17084 32.44999 206.12396L32.44999 205.09271Q32.996864 205.12396 33.496864 205.48334Q33.98124 205.82709 34.278114 206.40521Q34.57499 206.96771 34.57499 207.62396Q34.57499 208.92084 33.715614 209.68646Q32.840614 210.43646 31.340612 210.43646L31.153112 210.43646Q30.231237 210.43646 29.512487 210.10834Q28.793737 209.76459 28.403112 209.13959Q27.996862 208.49896 27.996862 207.62396Q27.996862 206.56146 28.637487 205.85834Q29.262487 205.13959 30.293737 205.09271L30.293737 206.12396Q29.668737 206.17084 29.278112 206.59271Q28.887487 207.01459 28.887487 207.62396Q28.887487 208.45209 29.481237 208.90521Q30.074987 209.35834 31.199987 209.35834L31.403112 209.35834Q32.496864 209.35834 33.090614 208.90521Q33.684364 208.45209 33.684364 207.62396ZM28.871862 203.07709Q27.996862 202.35834 27.996862 201.20209Q27.996862 199.18646 30.262487 199.17084L34.44999 199.17084L34.44999 200.26459L30.246862 200.26459Q29.574987 200.26459 29.246862 200.57709Q28.918737 200.87396 28.918737 201.53021Q28.918737 202.06146 29.199987 202.46771Q29.481237 202.85834 29.934362 203.07709L34.44999 203.07709L34.44999 204.15521L25.449987 204.15521L25.449987 203.07709L28.871862 203.07709ZM34.57499 194.53021Q34.57499 195.82709 33.73124 196.63959Q32.871864 197.43646 31.449987 197.43646L31.262487 197.43646Q30.309362 197.43646 29.574987 197.07709Q28.824987 196.71771 28.418737 196.07709Q27.996862 195.42084 27.996862 194.67084Q27.996862 193.43646 28.809362 192.74896Q29.621862 192.06146 31.137487 192.06146L31.590612 192.06146L31.590612 196.35834Q32.528114 196.32709 33.10624 195.81146Q33.684364 195.28021 33.684364 194.46771Q33.684364 193.90521 33.44999 193.51459Q33.215614 193.10834 32.82499 192.79584L33.340614 192.13959Q34.57499 192.93646 34.57499 194.53021ZM28.887487 194.67084Q28.887487 195.32709 29.371862 195.78021Q29.840612 196.21771 30.699987 196.31146L30.699987 193.13959L30.621862 193.13959Q29.793737 193.18646 29.340612 193.59271Q28.887487 193.98334 28.887487 194.67084ZM32.76249 187.46771Q32.32499 187.46771 32.090614 187.81146Q31.840612 188.13959 31.668737 188.96771Q31.496862 189.78021 31.246862 190.26459Q30.996862 190.74896 30.668737 190.98334Q30.324987 191.20209 29.856237 191.20209Q29.074987 191.20209 28.543737 190.54584Q27.996862 189.88959 27.996862 188.85834Q27.996862 187.78021 28.559362 187.12396Q29.106237 186.45209 29.965612 186.45209L29.965612 187.53021Q29.528112 187.53021 29.215612 187.92084Q28.887487 188.29584 28.887487 188.85834Q28.887487 189.45209 29.153112 189.79584Q29.403112 190.12396 29.809362 190.12396Q30.199987 190.12396 30.403112 189.81146Q30.606237 189.49896 30.793737 188.68646Q30.965612 187.87396 31.215612 187.37396Q31.465612 186.87396 31.824987 186.63959Q32.184364 186.38959 32.684364 186.38959Q33.54374 186.38959 34.059364 187.07709Q34.57499 187.74896 34.57499 188.82709Q34.57499 189.59271 34.309364 190.18646Q34.028114 190.76459 33.54374 191.09271Q33.059364 191.42084 32.496864 191.42084L32.496864 190.34271Q33.04374 190.31146 33.371864 189.90521Q33.684364 189.49896 33.684364 188.82709Q33.684364 188.21771 33.434364 187.84271Q33.184364 187.46771 32.76249 187.46771ZM31.043737 182.65521Q32.35624 182.65521 33.559364 182.99896Q34.746864 183.34271 35.76249 184.06146Q36.778114 184.76459 37.19999 185.53021L36.54374 185.76459Q35.85624 184.85834 34.403114 184.31146Q32.934364 183.76459 31.168737 183.74896L30.981237 183.74896Q29.746862 183.74896 28.684362 184.01459Q27.621862 184.26459 26.793737 184.73334Q25.949987 185.18646 25.481237 185.76459L24.824987 185.53021Q25.246862 184.76459 26.246862 184.06146Q27.246862 183.35834 28.465612 183.01459Q29.668737 182.65521 31.043737 182.65521Z" fill-rule="nonzero"/><path fill="#757575" d="M66.12187 368.45624L67.05937 368.45624Q67.96562 368.4406 68.46562 367.9875Q68.98125 367.53436 68.98125 366.7531Q68.98125 365.0031 67.24687 365.0031Q66.41875 365.0031 65.93437 365.47186Q65.45 365.9406 65.45 366.70624L64.18437 366.70624Q64.18437 365.51874 65.04375 364.7375Q65.91875 363.95624 67.24687 363.95624Q68.65312 363.95624 69.45 364.70624Q70.24687 365.45624 70.24687 366.76874Q70.24687 367.425 69.825 368.03436Q69.41875 368.64374 68.68437 368.9406Q69.5125 369.20624 69.95 369.8156Q70.40312 370.40936 70.40312 371.26874Q70.40312 372.6125 69.52812 373.40936Q68.65312 374.1906 67.24687 374.1906Q65.85625 374.1906 64.96562 373.4406Q64.09062 372.675 64.09062 371.425L65.37187 371.425Q65.37187 372.20624 65.87187 372.6906Q66.3875 373.15936 67.24687 373.15936Q68.16875 373.15936 68.65312 372.675Q69.1375 372.1906 69.1375 371.3Q69.1375 370.4406 68.60625 369.97186Q68.075 369.5031 67.05937 369.4875L66.12187 369.4875L66.12187 368.45624ZM78.5125 369.8Q78.5125 372.01874 77.74687 373.1125Q76.99687 374.1906 75.3875 374.1906Q73.79375 374.1906 73.02812 373.14374Q72.2625 372.08124 72.23125 369.97186L72.23125 368.28436Q72.23125 366.09686 72.98125 365.03436Q73.74687 363.95624 75.37187 363.95624Q76.98125 363.95624 77.73125 364.9875Q78.49687 366.01874 78.5125 368.15936L78.5125 369.8ZM77.24687 368.08124Q77.24687 366.47186 76.79375 365.7375Q76.35625 365.0031 75.37187 365.0031Q74.40312 365.0031 73.95 365.7375Q73.5125 366.45624 73.49687 367.97186L73.49687 370.0031Q73.49687 371.6125 73.96562 372.39374Q74.43437 373.15936 75.3875 373.15936Q76.325 373.15936 76.77812 372.4406Q77.23125 371.70624 77.24687 370.14374L77.24687 368.08124Z" fill-rule="nonzero"/><path fill="#757575" d="M66.12187 293.5479L67.05937 293.5479Q67.96562 293.5323 68.46562 293.07916Q68.98125 292.62604 68.98125 291.8448Q68.98125 290.0948 67.24687 290.0948Q66.41875 290.0948 65.93437 290.56354Q65.45 291.0323 65.45 291.7979L64.18437 291.7979Q64.18437 290.6104 65.04375 289.82916Q65.91875 289.0479 67.24687 289.0479Q68.65312 289.0479 69.45 289.7979Q70.24687 290.5479 70.24687 291.8604Q70.24687 292.51666 69.825 293.12604Q69.41875 293.7354 68.68437 294.0323Q69.5125 294.2979 69.95 294.9073Q70.40312 295.50104 70.40312 296.3604Q70.40312 297.70416 69.52812 298.50104Q68.65312 299.2823 67.24687 299.2823Q65.85625 299.2823 64.96562 298.5323Q64.09062 297.76666 64.09062 296.51666L65.37187 296.51666Q65.37187 297.2979 65.87187 297.7823Q66.3875 298.25104 67.24687 298.25104Q68.16875 298.25104 68.65312 297.76666Q69.1375 297.2823 69.1375 296.39166Q69.1375 295.5323 68.60625 295.06354Q68.075 294.5948 67.05937 294.57916L66.12187 294.57916L66.12187 293.5479ZM72.85625 294.1573L73.37187 289.18854L78.46562 289.18854L78.46562 290.3604L74.43437 290.3604L74.1375 293.06354Q74.87187 292.64166 75.79375 292.64166Q77.15312 292.64166 77.95 293.5479Q78.7625 294.43854 78.7625 295.9698Q78.7625 297.50104 77.91875 298.39166Q77.09062 299.2823 75.60625 299.2823Q74.29375 299.2823 73.45 298.5479Q72.62187 297.81354 72.49687 296.51666L73.7 296.51666Q73.80937 297.37604 74.29375 297.81354Q74.79375 298.25104 75.60625 298.25104Q76.48125 298.25104 76.98125 297.6573Q77.49687 297.0479 77.49687 295.9854Q77.49687 294.9854 76.95 294.39166Q76.40312 293.7823 75.49687 293.7823Q74.68437 293.7823 74.2 294.14166L73.87187 294.4073L72.85625 294.1573Z" fill-rule="nonzero"/><path fill="#757575" d="M69.62187 220.88959L70.99687 220.88959L70.99687 221.92084L69.62187 221.92084L69.62187 224.23334L68.34062 224.23334L68.34062 221.92084L63.809376 221.92084L63.809376 221.17084L68.2625 214.28021L69.62187 214.28021L69.62187 220.88959ZM65.24687 220.88959L68.34062 220.88959L68.34062 216.01459L68.2 216.28021L65.24687 220.88959ZM78.5125 219.98334Q78.5125 222.20209 77.74687 223.29584Q76.99687 224.37396 75.3875 224.37396Q73.79375 224.37396 73.02812 223.32709Q72.2625 222.26459 72.23125 220.15521L72.23125 218.46771Q72.23125 216.28021 72.98125 215.21771Q73.74687 214.13959 75.37187 214.13959Q76.98125 214.13959 77.73125 215.17084Q78.49687 216.20209 78.5125 218.34271L78.5125 219.98334ZM77.24687 218.26459Q77.24687 216.65521 76.79375 215.92084Q76.35625 215.18646 75.37187 215.18646Q74.40312 215.18646 73.95 215.92084Q73.5125 216.63959 73.49687 218.15521L73.49687 220.18646Q73.49687 221.79584 73.96562 222.57709Q74.43437 223.34271 75.3875 223.34271Q76.325 223.34271 76.77812 222.62396Q77.23125 221.88959 77.24687 220.32709L77.24687 218.26459Z" fill-rule="nonzero"/><path fill="#757575" d="M69.62187 145.98125L70.99687 145.98125L70.99687 147.0125L69.62187 147.0125L69.62187 149.325L68.34062 149.325L68.34062 147.0125L63.809376 147.0125L63.809376 146.2625L68.2625 139.37187L69.62187 139.37187L69.62187 145.98125ZM65.24687 145.98125L68.34062 145.98125L68.34062 141.10625L68.2 141.37187L65.24687 145.98125ZM72.85625 144.34062L73.37187 139.37187L78.46562 139.37187L78.46562 140.54375L74.43437 140.54375L74.1375 143.24687Q74.87187 142.825 75.79375 142.825Q77.15312 142.825 77.95 143.73125Q78.7625 144.62187 78.7625 146.15312Q78.7625 147.68437 77.91875 148.575Q77.09062 149.46562 75.60625 149.46562Q74.29375 149.46562 73.45 148.73125Q72.62187 147.99687 72.49687 146.7L73.7 146.7Q73.80937 147.55937 74.29375 147.99687Q74.79375 148.43437 75.60625 148.43437Q76.48125 148.43437 76.98125 147.84062Q77.49687 147.23125 77.49687 146.16875Q77.49687 145.16875 76.95 144.575Q76.40312 143.96562 75.49687 143.96562Q74.68437 143.96562 74.2 144.325L73.87187 144.59062L72.85625 144.34062Z" fill-rule="nonzero"/><path fill="#757575" d="M64.85625 69.43229L65.37187 64.46354L70.46562 64.46354L70.46562 65.635414L66.43437 65.635414L66.1375 68.33854Q66.87187 67.916664 67.79375 67.916664Q69.15312 67.916664 69.95 68.822914Q70.7625 69.71354 70.7625 71.24479Q70.7625 72.77604 69.91875 73.666664Q69.09062 74.55729 67.60625 74.55729Q66.29375 74.55729 65.45 73.822914Q64.62187 73.08854 64.49687 71.791664L65.7 71.791664Q65.80937 72.65104 66.29375 73.08854Q66.79375 73.52604 67.60625 73.52604Q68.48125 73.52604 68.98125 72.93229Q69.49687 72.322914 69.49687 71.260414Q69.49687 70.260414 68.95 69.666664Q68.40312 69.05729 67.49687 69.05729Q66.68437 69.05729 66.2 69.416664L65.87187 69.68229L64.85625 69.43229ZM78.5125 70.166664Q78.5125 72.385414 77.74687 73.479164Q76.99687 74.55729 75.3875 74.55729Q73.79375 74.55729 73.02812 73.510414Q72.2625 72.447914 72.23125 70.33854L72.23125 68.65104Q72.23125 66.46354 72.98125 65.40104Q73.74687 64.322914 75.37187 64.322914Q76.98125 64.322914 77.73125 65.354164Q78.49687 66.385414 78.5125 68.52604L78.5125 70.166664ZM77.24687 68.447914Q77.24687 66.83854 76.79375 66.104164Q76.35625 65.36979 75.37187 65.36979Q74.40312 65.36979 73.95 66.104164Q73.5125 66.822914 73.49687 68.33854L73.49687 70.36979Q73.49687 71.979164 73.96562 72.760414Q74.43437 73.52604 75.3875 73.52604Q76.325 73.52604 76.77812 72.80729Q77.23125 72.072914 77.24687 70.510414L77.24687 68.447914Z" fill-rule="nonzero"/><path fill="#757575" d="M89.5125 385.3Q89.5125 387.51874 88.74687 388.6125Q87.99687 389.6906 86.3875 389.6906Q84.79375 389.6906 84.02812 388.64374Q83.2625 387.58124 83.23125 385.47186L83.23125 383.78436Q83.23125 381.59686 83.98125 380.53436Q84.74687 379.45624 86.37187 379.45624Q87.98125 379.45624 88.73125 380.4875Q89.49687 381.51874 89.5125 383.65936L89.5125 385.3ZM88.24687 383.58124Q88.24687 381.97186 87.79375 381.2375Q87.35625 380.5031 86.37187 380.5031Q85.40312 380.5031 84.95 381.2375Q84.5125 381.95624 84.49687 383.47186L84.49687 385.5031Q84.49687 387.1125 84.96562 387.89374Q85.43437 388.65936 86.3875 388.65936Q87.325 388.65936 87.77812 387.9406Q88.23125 387.20624 88.24687 385.64374L88.24687 383.58124Z" fill-rule="nonzero"/><path fill="#757575" d="M238.13126 384.5656L238.64688 379.59686L243.74063 379.59686L243.74063 380.76874L239.70938 380.76874L239.4125 383.47186Q240.14688 383.05 241.06876 383.05Q242.42813 383.05 243.225 383.95624Q244.0375 384.84686 244.0375 386.3781Q244.0375 387.90936 243.19376 388.8Q242.36563 389.6906 240.88126 389.6906Q239.56876 389.6906 238.725 388.95624Q237.89688 388.22186 237.77188 386.925L238.975 386.925Q239.08438 387.78436 239.56876 388.22186Q240.06876 388.65936 240.88126 388.65936Q241.75626 388.65936 242.25626 388.0656Q242.77188 387.45624 242.77188 386.39374Q242.77188 385.39374 242.225 384.8Q241.67813 384.1906 240.77188 384.1906Q239.95938 384.1906 239.475 384.55L239.14688 384.8156L238.13126 384.5656Z" fill-rule="nonzero"/><path fill="#757575" d="M391.98438 389.55L390.71875 389.55L390.71875 381.1281L388.15625 382.05L388.15625 380.90936L391.78125 379.55L391.98438 379.55L391.98438 389.55ZM402.0625 385.3Q402.0625 387.51874 401.29688 388.6125Q400.54688 389.6906 398.9375 389.6906Q397.34375 389.6906 396.57812 388.64374Q395.8125 387.58124 395.78125 385.47186L395.78125 383.78436Q395.78125 381.59686 396.53125 380.53436Q397.29688 379.45624 398.92188 379.45624Q400.53125 379.45624 401.28125 380.4875Q402.04688 381.51874 402.0625 383.65936L402.0625 385.3ZM400.79688 383.58124Q400.79688 381.97186 400.34375 381.2375Q399.90625 380.5031 398.92188 380.5031Q397.95312 380.5031 397.5 381.2375Q397.0625 381.95624 397.04688 383.47186L397.04688 385.5031Q397.04688 387.1125 397.51562 387.89374Q397.98438 388.65936 398.9375 388.65936Q399.875 388.65936 400.32812 387.9406Q400.78125 387.20624 400.79688 385.64374L400.79688 383.58124Z" fill-rule="nonzero"/><path fill="#757575" d="M546.2594 389.55L544.9938 389.55L544.9938 381.1281L542.4313 382.05L542.4313 380.90936L546.0563 379.55L546.2594 379.55L546.2594 389.55ZM550.6813 384.5656L551.1969 379.59686L556.29065 379.59686L556.29065 380.76874L552.2594 380.76874L551.9625 383.47186Q552.6969 383.05 553.6188 383.05Q554.97815 383.05 555.775 383.95624Q556.5875 384.84686 556.5875 386.3781Q556.5875 387.90936 555.7438 388.8Q554.91565 389.6906 553.4313 389.6906Q552.1188 389.6906 551.275 388.95624Q550.4469 388.22186 550.3219 386.925L551.525 386.925Q551.6344 387.78436 552.1188 388.22186Q552.6188 388.65936 553.4313 388.65936Q554.3063 388.65936 554.8063 388.0656Q555.3219 387.45624 555.3219 386.39374Q555.3219 385.39374 554.775 384.8Q554.22815 384.1906 553.3219 384.1906Q552.5094 384.1906 552.025 384.55L551.6969 384.8156L550.6813 384.5656Z" fill-rule="nonzero"/><path fill="#757575" d="M702.89374 389.55L696.3781 389.55L696.3781 388.64374L699.8156 384.8156Q700.58124 383.9406 700.8781 383.40936Q701.175 382.8625 701.175 382.26874Q701.175 381.5031 700.6906 381.0031Q700.22186 380.5031 699.4406 380.5031Q698.5031 380.5031 697.97186 381.03436Q697.45624 381.5656 697.45624 382.53436L696.1906 382.53436Q696.1906 381.15936 697.0656 380.3156Q697.95624 379.45624 699.4406 379.45624Q700.83124 379.45624 701.6281 380.1906Q702.4406 380.90936 702.4406 382.1281Q702.4406 383.59686 700.5656 385.6281L697.90936 388.51874L702.89374 388.51874L702.89374 389.55ZM710.6125 385.3Q710.6125 387.51874 709.84686 388.6125Q709.09686 389.6906 707.4875 389.6906Q705.89374 389.6906 705.1281 388.64374Q704.3625 387.58124 704.33124 385.47186L704.33124 383.78436Q704.33124 381.59686 705.08124 380.53436Q705.84686 379.45624 707.47186 379.45624Q709.08124 379.45624 709.83124 380.4875Q710.59686 381.51874 710.6125 383.65936L710.6125 385.3ZM709.34686 383.58124Q709.34686 381.97186 708.89374 381.2375Q708.45624 380.5031 707.47186 380.5031Q706.5031 380.5031 706.05 381.2375Q705.6125 381.95624 705.59686 383.47186L705.59686 385.5031Q705.59686 387.1125 706.0656 387.89374Q706.53436 388.65936 707.4875 388.65936Q708.425 388.65936 708.8781 387.9406Q709.33124 387.20624 709.34686 385.64374L709.34686 383.58124Z" fill-rule="nonzero"/><path fill="#757575" d="M325.65625 41.45L325.65625 27.23125L330.29688 27.23125Q332.60938 27.23125 333.78125 28.184376Q334.95312 29.1375 334.95312 31.0125Q334.95312 32.0125 334.375 32.778126Q333.8125 33.54375 332.84375 33.965626Q333.98438 34.29375 334.65625 35.2Q335.32812 36.090626 335.32812 37.340626Q335.32812 39.2625 334.07812 40.35625Q332.84375 41.45 330.57812 41.45L325.65625 41.45ZM327.53125 34.79375L327.53125 39.91875L330.625 39.91875Q331.9375 39.91875 332.6875 39.246876Q333.4375 38.559376 333.4375 37.371876Q333.4375 34.79375 330.65625 34.79375L327.53125 34.79375ZM327.53125 33.29375L330.35938 33.29375Q331.59375 33.29375 332.32812 32.684376Q333.0625 32.059376 333.0625 31.0125Q333.0625 29.840626 332.375 29.309376Q331.70312 28.778126 330.29688 28.778126L327.53125 28.778126L327.53125 33.29375ZM341.75 41.653126Q339.60938 41.653126 338.25 40.246876Q336.90625 38.825 336.90625 36.465626L336.90625 36.121876Q336.90625 34.559376 337.5 33.325Q338.10938 32.090626 339.1875 31.3875Q340.26562 30.684376 341.53125 30.684376Q343.59375 30.684376 344.73438 32.04375Q345.875 33.403126 345.875 35.934376L345.875 36.684376L338.71875 36.684376Q338.75 38.246876 339.625 39.215626Q340.5 40.16875 341.84375 40.16875Q342.8125 40.16875 343.46875 39.778126Q344.14062 39.3875 344.64062 38.746876L345.73438 39.60625Q344.40625 41.653126 341.75 41.653126ZM341.53125 32.16875Q340.4375 32.16875 339.6875 32.965626Q338.95312 33.7625 338.78125 35.2L344.0625 35.2L344.0625 35.059376Q343.98438 33.684376 343.3125 32.934376Q342.65625 32.16875 341.53125 32.16875ZM350.32812 41.45L348.53125 41.45L348.53125 26.45L350.32812 26.45L350.32812 41.45ZM355.8125 28.325L355.8125 30.8875L357.79688 30.8875L357.79688 32.278126L355.8125 32.278126L355.8125 38.825Q355.8125 39.465626 356.07812 39.79375Q356.34375 40.10625 356.98438 40.10625Q357.29688 40.10625 357.84375 39.98125L357.84375 41.45Q357.125 41.653126 356.45312 41.653126Q355.25 41.653126 354.625 40.91875Q354.01562 40.184376 354.01562 38.825L354.01562 32.278126L352.09375 32.278126L352.09375 30.8875L354.01562 30.8875L354.01562 28.325L355.8125 28.325ZM369.84375 35.10625Q367.42188 34.41875 366.32812 33.41875Q365.23438 32.403126 365.23438 30.91875Q365.23438 29.23125 366.57812 28.1375Q367.92188 27.028126 370.0625 27.028126Q371.53125 27.028126 372.67188 27.60625Q373.82812 28.16875 374.45312 29.16875Q375.07812 30.153126 375.07812 31.340626L373.20312 31.340626Q373.20312 30.059376 372.375 29.325Q371.5625 28.575 370.0625 28.575Q368.67188 28.575 367.89062 29.184376Q367.125 29.79375 367.125 30.8875Q367.125 31.746876 367.85938 32.35625Q368.59375 32.95 370.35938 33.45Q372.14062 33.95 373.14062 34.559376Q374.14062 35.153126 374.625 35.95Q375.10938 36.746876 375.10938 37.840626Q375.10938 39.559376 373.76562 40.60625Q372.42188 41.653126 370.15625 41.653126Q368.70312 41.653126 367.42188 41.090626Q366.15625 40.528126 365.46875 39.559376Q364.78125 38.575 364.78125 37.325L366.67188 37.325Q366.67188 38.621876 367.625 39.371876Q368.57812 40.10625 370.15625 40.10625Q371.64062 40.10625 372.4375 39.5125Q373.23438 38.903126 373.23438 37.85625Q373.23438 36.809376 372.5 36.246876Q371.76562 35.66875 369.84375 35.10625ZM379.32812 41.45L377.53125 41.45L377.53125 30.8875L379.32812 30.8875L379.32812 41.45ZM377.375 28.075Q377.375 27.6375 377.64062 27.340626Q377.92188 27.028126 378.4375 27.028126Q378.96875 27.028126 379.23438 27.340626Q379.51562 27.6375 379.51562 28.075Q379.51562 28.5125 379.23438 28.809376Q378.96875 29.10625 378.4375 29.10625Q377.92188 29.10625 377.64062 28.809376Q377.375 28.5125 377.375 28.075ZM384.0625 39.98125L390.25 39.98125L390.25 41.45L381.85938 41.45L381.85938 40.121876L387.6875 32.371876L381.95312 32.371876L381.95312 30.8875L389.95312 30.8875L389.95312 32.16875L384.0625 39.98125ZM396.75 41.653126Q394.60938 41.653126 393.25 40.246876Q391.90625 38.825 391.90625 36.465626L391.90625 36.121876Q391.90625 34.559376 392.5 33.325Q393.10938 32.090626 394.1875 31.3875Q395.26562 30.684376 396.53125 30.684376Q398.59375 30.684376 399.73438 32.04375Q400.875 33.403126 400.875 35.934376L400.875 36.684376L393.71875 36.684376Q393.75 38.246876 394.625 39.215626Q395.5 40.16875 396.84375 40.16875Q397.8125 40.16875 398.46875 39.778126Q399.14062 39.3875 399.64062 38.746876L400.73438 39.60625Q399.40625 41.653126 396.75 41.653126ZM396.53125 32.16875Q395.4375 32.16875 394.6875 32.965626Q393.95312 33.7625 393.78125 35.2L399.0625 35.2L399.0625 35.059376Q398.98438 33.684376 398.3125 32.934376Q397.65625 32.16875 396.53125 32.16875Z" fill-rule="nonzero"/></svg>