<svg version="1.1" viewBox="0.0 0.0 823.0 509.0" fill="none" stroke="none" stroke-linecap="square" stroke-miterlimit="10" width="823" height="509" xmlns:xlink="http://www.w3.org/1999/xlink" xmlns="http://www.w3.org/2000/svg"><path fill="#ffffff" d="M0 0L823.0 0L823.0 509.0L0 509.0L0 0Z" fill-rule="nonzero"/><path fill="#ffffff" d="M0 0L823.0 0L823.0 509.0L0 509.0L0 0Z" fill-rule="nonzero"/><path stroke="#333333" stroke-width="1.0" stroke-linecap="butt" d="M56.5 106.5L56.5 426.5" fill-rule="nonzero"/><path stroke="#cccccc" stroke-width="1.0" stroke-linecap="butt" d="M241.5 106.5L241.5 426.5" fill-rule="nonzero"/><path stroke="#cccccc" stroke-width="1.0" stroke-linecap="butt" d="M426.5 106.5L426.5 426.5" fill-rule="nonzero"/><path stroke="#cccccc" stroke-width="1.0" stroke-linecap="butt" d="M612.5 106.5L612.5 426.5" fill-rule="nonzero"/><path stroke="#cccccc" stroke-width="1.0" stroke-linecap="butt" d="M797.5 106.5L797.5 426.5" fill-rule="nonzero"/><path stroke="#e6e6e6" stroke-width="1.0" stroke-linecap="butt" d="M204.5 106.5L204.5 426.5" fill-rule="nonzero"/><path stroke="#e6e6e6" stroke-width="1.0" stroke-linecap="butt" d="M167.5 106.5L167.5 426.5" fill-rule="nonzero"/><path stroke="#e6e6e6" stroke-width="1.0" stroke-linecap="butt" d="M130.5 106.5L130.5 426.5" fill-rule="nonzero"/><path stroke="#e6e6e6" stroke-width="1.0" stroke-linecap="butt" d="M93.5 106.5L93.5 426.5" fill-rule="nonzero"/><path stroke="#e6e6e6" stroke-width="1.0" stroke-linecap="butt" d="M389.5 106.5L389.5 426.5" fill-rule="nonzero"/><path stroke="#e6e6e6" stroke-width="1.0" stroke-linecap="butt" d="M352.5 106.5L352.5 426.5" fill-rule="nonzero"/><path stroke="#e6e6e6" stroke-width="1.0" stroke-linecap="butt" d="M315.5 106.5L315.5 426.5" fill-rule="nonzero"/><path stroke="#e6e6e6" stroke-width="1.0" stroke-linecap="butt" d="M278.5 106.5L278.5 426.5" fill-rule="nonzero"/><path stroke="#e6e6e6" stroke-width="1.0" stroke-linecap="butt" d="M575.5 106.5L575.5 426.5" fill-rule="nonzero"/><path stroke="#e6e6e6" stroke-width="1.0" stroke-linecap="butt" d="M538.5 106.5L538.5 426.5" fill-rule="nonzero"/><path stroke="#e6e6e6" stroke-width="1.0" stroke-linecap="butt" d="M501.5 106.5L501.5 426.5" fill-rule="nonzero"/><path stroke="#e6e6e6" stroke-width="1.0" stroke-linecap="butt" d="M464.5 106.5L464.5 426.5" fill-rule="nonzero"/><path stroke="#e6e6e6" stroke-width="1.0" stroke-linecap="butt" d="M760.5 106.5L760.5 426.5" fill-rule="nonzero"/><path stroke="#e6e6e6" stroke-width="1.0" stroke-linecap="butt" d="M723.5 106.5L723.5 426.5" fill-rule="nonzero"/><path stroke="#e6e6e6" stroke-width="1.0" stroke-linecap="butt" d="M686.5 106.5L686.5 426.5" fill-rule="nonzero"/><path stroke="#e6e6e6" stroke-width="1.0" stroke-linecap="butt" d="M649.5 106.5L649.5 426.5" fill-rule="nonzero"/><path stroke="#cccccc" stroke-width="1.0" stroke-linecap="butt" d="M56.5 426.5L797.5 426.5" fill-rule="nonzero"/><path stroke="#cccccc" stroke-width="1.0" stroke-linecap="butt" d="M56.5 346.5L797.5 346.5" fill-rule="nonzero"/><path stroke="#cccccc" stroke-width="1.0" stroke-linecap="butt" d="M56.5 266.5L797.5 266.5" fill-rule="nonzero"/><path stroke="#cccccc" stroke-width="1.0" stroke-linecap="butt" d="M56.5 186.5L797.5 186.5" fill-rule="nonzero"/><path stroke="#cccccc" stroke-width="1.0" stroke-linecap="butt" d="M56.5 106.5L797.5 106.5" fill-rule="nonzero"/><path stroke="#e6e6e6" stroke-width="1.0" stroke-linecap="butt" d="M56.5 362.5L797.5 362.5" fill-rule="nonzero"/><path stroke="#e6e6e6" stroke-width="1.0" stroke-linecap="butt" d="M56.5 378.5L797.5 378.5" fill-rule="nonzero"/><path stroke="#e6e6e6" stroke-width="1.0" stroke-linecap="butt" d="M56.5 394.5L797.5 394.5" fill-rule="nonzero"/><path stroke="#e6e6e6" stroke-width="1.0" stroke-linecap="butt" d="M56.5 410.5L797.5 410.5" fill-rule="nonzero"/><path stroke="#e6e6e6" stroke-width="1.0" stroke-linecap="butt" d="M56.5 282.5L797.5 282.5" fill-rule="nonzero"/><path stroke="#e6e6e6" stroke-width="1.0" stroke-linecap="butt" d="M56.5 298.5L797.5 298.5" fill-rule="nonzero"/><path stroke="#e6e6e6" stroke-width="1.0" stroke-linecap="butt" d="M56.5 314.5L797.5 314.5" fill-rule="nonzero"/><path stroke="#e6e6e6" stroke-width="1.0" stroke-linecap="butt" d="M56.5 330.5L797.5 330.5" fill-rule="nonzero"/><path stroke="#e6e6e6" stroke-width="1.0" stroke-linecap="butt" d="M56.5 202.5L797.5 202.5" fill-rule="nonzero"/><path stroke="#e6e6e6" stroke-width="1.0" stroke-linecap="butt" d="M56.5 218.5L797.5 218.5" fill-rule="nonzero"/><path stroke="#e6e6e6" stroke-width="1.0" stroke-linecap="butt" d="M56.5 234.5L797.5 234.5" fill-rule="nonzero"/><path stroke="#e6e6e6" stroke-width="1.0" stroke-linecap="butt" d="M56.5 250.5L797.5 250.5" fill-rule="nonzero"/><path stroke="#e6e6e6" stroke-width="1.0" stroke-linecap="butt" d="M56.5 122.5L797.5 122.5" fill-rule="nonzero"/><path stroke="#e6e6e6" stroke-width="1.0" stroke-linecap="butt" d="M56.5 138.5L797.5 138.5" fill-rule="nonzero"/><path stroke="#e6e6e6" stroke-width="1.0" stroke-linecap="butt" d="M56.5 154.5L797.5 154.5" fill-rule="nonzero"/><path stroke="#e6e6e6" stroke-width="1.0" stroke-linecap="butt" d="M56.5 170.5L797.5 170.5" fill-rule="nonzero"/><clipPath id="id_0"><path d="M56.45 106.88333L797.55 106.88333L797.55 426.55L56.45 426.55L56.45 106.88333Z" clip-rule="nonzero"/></clipPath><path stroke="#4285f4" stroke-width="1.0" stroke-linecap="butt" clip-path="url(#id_0)" d="M56.45 242.74167L56.45 242.74167" fill-rule="nonzero"/><path stroke="#db4437" stroke-width="2.0" stroke-linecap="butt" clip-path="url(#id_0)" d="M56.45 226.75833L56.45 226.75833" fill-rule="nonzero"/><path stroke="#f4b400" stroke-width="2.0" stroke-linecap="butt" clip-path="url(#id_0)" d="M56.45 266.71667L56.45 266.71667" fill-rule="nonzero"/><path stroke="#0f9d58" stroke-width="2.0" stroke-linecap="butt" clip-path="url(#id_0)" d="M56.45 386.59167L56.45 386.59167" fill-rule="nonzero"/><path fill="#4285f4" clip-path="url(#id_0)" d="M56.45 238.24167L60.95 242.74167L56.45 247.24167L51.95 242.74167Z" fill-rule="nonzero"/><path fill="#db4437" clip-path="url(#id_0)" d="M56.45 222.25833L60.95 226.75833L56.45 231.25833L51.95 226.75833Z" fill-rule="nonzero"/><path fill="#f4b400" clip-path="url(#id_0)" d="M56.45 262.21667L60.95 266.71667L56.45 271.21667L51.95 266.71667Z" fill-rule="nonzero"/><path fill="#0f9d58" clip-path="url(#id_0)" d="M56.45 382.09167L60.95 386.59167L56.45 391.09167L51.95 386.59167Z" fill-rule="nonzero"/><path fill="#424242" d="M415.32812 477.8625L415.5 478.9875L415.73438 477.97186L417.42188 472.01874L418.375 472.01874L420.01562 477.97186L420.25 479.0031L420.4375 477.84686L421.76562 472.01874L422.89062 472.01874L420.82812 480.55L419.79688 480.55L418.03125 474.33124L417.90625 473.675L417.76562 474.33124L415.95312 480.55L414.92188 480.55L412.85938 472.01874L413.98438 472.01874L415.32812 477.8625ZM426.95312 480.675Q425.65625 480.675 424.84375 479.83124Q424.04688 478.97186 424.04688 477.55L424.04688 477.3625Q424.04688 476.40936 424.40625 475.675Q424.76562 474.925 425.40625 474.51874Q426.0625 474.09686 426.8125 474.09686Q428.04688 474.09686 428.73438 474.90936Q429.42188 475.72186 429.42188 477.2375L429.42188 477.6906L425.125 477.6906Q425.15625 478.6281 425.67188 479.20624Q426.20312 479.78436 427.01562 479.78436Q427.57812 479.78436 427.96875 479.55Q428.375 479.3156 428.6875 478.925L429.34375 479.4406Q428.54688 480.675 426.95312 480.675ZM426.8125 474.9875Q426.15625 474.9875 425.70312 475.47186Q425.26562 475.9406 425.17188 476.8L428.34375 476.8L428.34375 476.72186Q428.29688 475.89374 427.89062 475.4406Q427.5 474.9875 426.8125 474.9875ZM432.95312 480.675Q431.65625 480.675 430.84375 479.83124Q430.04688 478.97186 430.04688 477.55L430.04688 477.3625Q430.04688 476.40936 430.40625 475.675Q430.76562 474.925 431.40625 474.51874Q432.0625 474.09686 432.8125 474.09686Q434.04688 474.09686 434.73438 474.90936Q435.42188 475.72186 435.42188 477.2375L435.42188 477.6906L431.125 477.6906Q431.15625 478.6281 431.67188 479.20624Q432.20312 479.78436 433.01562 479.78436Q433.57812 479.78436 433.96875 479.55Q434.375 479.3156 434.6875 478.925L435.34375 479.4406Q434.54688 480.675 432.95312 480.675ZM432.8125 474.9875Q432.15625 474.9875 431.70312 475.47186Q431.26562 475.9406 431.17188 476.8L434.34375 476.8L434.34375 476.72186Q434.29688 475.89374 433.89062 475.4406Q433.5 474.9875 432.8125 474.9875ZM438.09375 477.6125L437.40625 478.3156L437.40625 480.55L436.32812 480.55L436.32812 471.55L437.40625 471.55L437.40625 476.9875L437.98438 476.3L439.96875 474.20624L441.28125 474.20624L438.8125 476.8625L441.57812 480.55L440.29688 480.55L438.09375 477.6125Z" fill-rule="nonzero"/><path fill="#757575" d="M30.434376 431.05L29.16875 431.05L29.16875 422.6281L26.60625 423.55L26.60625 422.40936L30.23125 421.05L30.434376 421.05L30.434376 431.05ZM40.5125 426.8Q40.5125 429.01874 39.746876 430.1125Q38.996876 431.1906 37.3875 431.1906Q35.79375 431.1906 35.028126 430.14374Q34.2625 429.08124 34.23125 426.97186L34.23125 425.28436Q34.23125 423.09686 34.98125 422.03436Q35.746876 420.95624 37.371876 420.95624Q38.98125 420.95624 39.73125 421.9875Q40.496876 423.01874 40.5125 425.15936L40.5125 426.8ZM39.246876 425.08124Q39.246876 423.47186 38.79375 422.7375Q38.35625 422.0031 37.371876 422.0031Q36.403126 422.0031 35.95 422.7375Q35.5125 423.45624 35.496876 424.97186L35.496876 427.0031Q35.496876 428.6125 35.965626 429.39374Q36.434376 430.15936 37.3875 430.15936Q38.325 430.15936 38.778126 429.4406Q39.23125 428.70624 39.246876 427.14374L39.246876 425.08124ZM48.5125 426.8Q48.5125 429.01874 47.746876 430.1125Q46.996876 431.1906 45.3875 431.1906Q43.79375 431.1906 43.028126 430.14374Q42.2625 429.08124 42.23125 426.97186L42.23125 425.28436Q42.23125 423.09686 42.98125 422.03436Q43.746876 420.95624 45.371876 420.95624Q46.98125 420.95624 47.73125 421.9875Q48.496876 423.01874 48.5125 425.15936L48.5125 426.8ZM47.246876 425.08124Q47.246876 423.47186 46.79375 422.7375Q46.35625 422.0031 45.371876 422.0031Q44.403126 422.0031 43.95 422.7375Q43.5125 423.45624 43.496876 424.97186L43.496876 427.0031Q43.496876 428.6125 43.965626 429.39374Q44.434376 430.15936 45.3875 430.15936Q46.325 430.15936 46.778126 429.4406Q47.23125 428.70624 47.246876 427.14374L47.246876 425.08124Z" fill-rule="nonzero"/><path fill="#757575" d="M30.434376 351.13333L29.16875 351.13333L29.16875 342.71146L26.60625 343.63333L26.60625 342.4927L30.23125 341.13333L30.434376 341.13333L30.434376 351.13333ZM34.85625 346.14896L35.371876 341.1802L40.465626 341.1802L40.465626 342.35208L36.434376 342.35208L36.1375 345.0552Q36.871876 344.63333 37.79375 344.63333Q39.153126 344.63333 39.95 345.53958Q40.7625 346.4302 40.7625 347.96146Q40.7625 349.4927 39.91875 350.38333Q39.090626 351.27396 37.60625 351.27396Q36.29375 351.27396 35.45 350.53958Q34.621876 349.8052 34.496876 348.50833L35.7 348.50833Q35.809376 349.3677 36.29375 349.8052Q36.79375 350.2427 37.60625 350.2427Q38.48125 350.2427 38.98125 349.64896Q39.496876 349.03958 39.496876 347.97708Q39.496876 346.97708 38.95 346.38333Q38.403126 345.77396 37.496876 345.77396Q36.684376 345.77396 36.2 346.13333L35.871876 346.39896L34.85625 346.14896ZM48.5125 346.88333Q48.5125 349.10208 47.746876 350.19583Q46.996876 351.27396 45.3875 351.27396Q43.79375 351.27396 43.028126 350.22708Q42.2625 349.16458 42.23125 347.0552L42.23125 345.3677Q42.23125 343.1802 42.98125 342.1177Q43.746876 341.03958 45.371876 341.03958Q46.98125 341.03958 47.73125 342.07083Q48.496876 343.10208 48.5125 345.2427L48.5125 346.88333ZM47.246876 345.16458Q47.246876 343.5552 46.79375 342.82083Q46.35625 342.08646 45.371876 342.08646Q44.403126 342.08646 43.95 342.82083Q43.5125 343.53958 43.496876 345.0552L43.496876 347.08646Q43.496876 348.69583 43.965626 349.47708Q44.434376 350.2427 45.3875 350.2427Q46.325 350.2427 46.778126 349.52396Q47.23125 348.78958 47.246876 347.22708L47.246876 345.16458Z" fill-rule="nonzero"/><path fill="#757575" d="M32.79375 271.21667L26.278126 271.21667L26.278126 270.31042L29.715626 266.4823Q30.48125 265.6073 30.778126 265.07605Q31.075 264.52917 31.075 263.93542Q31.075 263.1698 30.590626 262.6698Q30.121876 262.1698 29.340626 262.1698Q28.403126 262.1698 27.871876 262.70105Q27.35625 263.2323 27.35625 264.20105L26.090626 264.20105Q26.090626 262.82605 26.965626 261.9823Q27.85625 261.12292 29.340626 261.12292Q30.73125 261.12292 31.528126 261.8573Q32.340626 262.57605 32.340626 263.7948Q32.340626 265.26355 30.465626 267.2948L27.809376 270.18542L32.79375 270.18542L32.79375 271.21667ZM40.5125 266.96667Q40.5125 269.18542 39.746876 270.27917Q38.996876 271.3573 37.3875 271.3573Q35.79375 271.3573 35.028126 270.31042Q34.2625 269.24792 34.23125 267.13855L34.23125 265.45105Q34.23125 263.26355 34.98125 262.20105Q35.746876 261.12292 37.371876 261.12292Q38.98125 261.12292 39.73125 262.15417Q40.496876 263.18542 40.5125 265.32605L40.5125 266.96667ZM39.246876 265.24792Q39.246876 263.63855 38.79375 262.90417Q38.35625 262.1698 37.371876 262.1698Q36.403126 262.1698 35.95 262.90417Q35.5125 263.62292 35.496876 265.13855L35.496876 267.1698Q35.496876 268.77917 35.965626 269.56042Q36.434376 270.32605 37.3875 270.32605Q38.325 270.32605 38.778126 269.6073Q39.23125 268.87292 39.246876 267.31042L39.246876 265.24792ZM48.5125 266.96667Q48.5125 269.18542 47.746876 270.27917Q46.996876 271.3573 45.3875 271.3573Q43.79375 271.3573 43.028126 270.31042Q42.2625 269.24792 42.23125 267.13855L42.23125 265.45105Q42.23125 263.26355 42.98125 262.20105Q43.746876 261.12292 45.371876 261.12292Q46.98125 261.12292 47.73125 262.15417Q48.496876 263.18542 48.5125 265.32605L48.5125 266.96667ZM47.246876 265.24792Q47.246876 263.63855 46.79375 262.90417Q46.35625 262.1698 45.371876 262.1698Q44.403126 262.1698 43.95 262.90417Q43.5125 263.62292 43.496876 265.13855L43.496876 267.1698Q43.496876 268.77917 43.965626 269.56042Q44.434376 270.32605 45.3875 270.32605Q46.325 270.32605 46.778126 269.6073Q47.23125 268.87292 47.246876 267.31042L47.246876 265.24792Z" fill-rule="nonzero"/><path fill="#757575" d="M32.79375 191.3L26.278126 191.3L26.278126 190.39375L29.715626 186.56563Q30.48125 185.69063 30.778126 185.15938Q31.075 184.6125 31.075 184.01875Q31.075 183.25313 30.590626 182.75313Q30.121876 182.25313 29.340626 182.25313Q28.403126 182.25313 27.871876 182.78438Q27.35625 183.31563 27.35625 184.28438L26.090626 184.28438Q26.090626 182.90938 26.965626 182.06563Q27.85625 181.20625 29.340626 181.20625Q30.73125 181.20625 31.528126 181.94063Q32.340626 182.65938 32.340626 183.87813Q32.340626 185.34688 30.465626 187.37813L27.809376 190.26875L32.79375 190.26875L32.79375 191.3ZM34.85625 186.31563L35.371876 181.34688L40.465626 181.34688L40.465626 182.51875L36.434376 182.51875L36.1375 185.22188Q36.871876 184.8 37.79375 184.8Q39.153126 184.8 39.95 185.70625Q40.7625 186.59688 40.7625 188.12813Q40.7625 189.65938 39.91875 190.55Q39.090626 191.44063 37.60625 191.44063Q36.29375 191.44063 35.45 190.70625Q34.621876 189.97188 34.496876 188.675L35.7 188.675Q35.809376 189.53438 36.29375 189.97188Q36.79375 190.40938 37.60625 190.40938Q38.48125 190.40938 38.98125 189.81563Q39.496876 189.20625 39.496876 188.14375Q39.496876 187.14375 38.95 186.55Q38.403126 185.94063 37.496876 185.94063Q36.684376 185.94063 36.2 186.3L35.871876 186.56563L34.85625 186.31563ZM48.5125 187.05Q48.5125 189.26875 47.746876 190.3625Q46.996876 191.44063 45.3875 191.44063Q43.79375 191.44063 43.028126 190.39375Q42.2625 189.33125 42.23125 187.22188L42.23125 185.53438Q42.23125 183.34688 42.98125 182.28438Q43.746876 181.20625 45.371876 181.20625Q46.98125 181.20625 47.73125 182.2375Q48.496876 183.26875 48.5125 185.40938L48.5125 187.05ZM47.246876 185.33125Q47.246876 183.72188 46.79375 182.9875Q46.35625 182.25313 45.371876 182.25313Q44.403126 182.25313 43.95 182.9875Q43.5125 183.70625 43.496876 185.22188L43.496876 187.25313Q43.496876 188.8625 43.965626 189.64375Q44.434376 190.40938 45.3875 190.40938Q46.325 190.40938 46.778126 189.69063Q47.23125 188.95625 47.246876 187.39375L47.246876 185.33125Z" fill-rule="nonzero"/><path fill="#757575" d="M28.121876 105.78958L29.059376 105.78958Q29.965626 105.77396 30.465626 105.32083Q30.98125 104.86771 30.98125 104.08646Q30.98125 102.33646 29.246876 102.33646Q28.41875 102.33646 27.934376 102.80521Q27.45 103.27396 27.45 104.03958L26.184376 104.03958Q26.184376 102.85208 27.04375 102.07083Q27.91875 101.28958 29.246876 101.28958Q30.653126 101.28958 31.45 102.03958Q32.246876 102.78958 32.246876 104.10208Q32.246876 104.75833 31.825 105.36771Q31.41875 105.97708 30.684376 106.27396Q31.5125 106.53958 31.95 107.14896Q32.403126 107.74271 32.403126 108.60208Q32.403126 109.94583 31.528126 110.74271Q30.653126 111.52396 29.246876 111.52396Q27.85625 111.52396 26.965626 110.77396Q26.090626 110.00833 26.090626 108.75833L27.371876 108.75833Q27.371876 109.53958 27.871876 110.02396Q28.3875 110.49271 29.246876 110.49271Q30.16875 110.49271 30.653126 110.00833Q31.1375 109.52396 31.1375 108.63333Q31.1375 107.77396 30.60625 107.30521Q30.075 106.83646 29.059376 106.82083L28.121876 106.82083L28.121876 105.78958ZM40.5125 107.13333Q40.5125 109.35208 39.746876 110.44583Q38.996876 111.52396 37.3875 111.52396Q35.79375 111.52396 35.028126 110.47708Q34.2625 109.41458 34.23125 107.30521L34.23125 105.61771Q34.23125 103.43021 34.98125 102.36771Q35.746876 101.28958 37.371876 101.28958Q38.98125 101.28958 39.73125 102.32083Q40.496876 103.35208 40.5125 105.49271L40.5125 107.13333ZM39.246876 105.41458Q39.246876 103.80521 38.79375 103.07083Q38.35625 102.33646 37.371876 102.33646Q36.403126 102.33646 35.95 103.07083Q35.5125 103.78958 35.496876 105.30521L35.496876 107.33646Q35.496876 108.94583 35.965626 109.72708Q36.434376 110.49271 37.3875 110.49271Q38.325 110.49271 38.778126 109.77396Q39.23125 109.03958 39.246876 107.47708L39.246876 105.41458ZM48.5125 107.13333Q48.5125 109.35208 47.746876 110.44583Q46.996876 111.52396 45.3875 111.52396Q43.79375 111.52396 43.028126 110.47708Q42.2625 109.41458 42.23125 107.30521L42.23125 105.61771Q42.23125 103.43021 42.98125 102.36771Q43.746876 101.28958 45.371876 101.28958Q46.98125 101.28958 47.73125 102.32083Q48.496876 103.35208 48.5125 105.49271L48.5125 107.13333ZM47.246876 105.41458Q47.246876 103.80521 46.79375 103.07083Q46.35625 102.33646 45.371876 102.33646Q44.403126 102.33646 43.95 103.07083Q43.5125 103.78958 43.496876 105.30521L43.496876 107.33646Q43.496876 108.94583 43.965626 109.72708Q44.434376 110.49271 45.3875 110.49271Q46.325 110.49271 46.778126 109.77396Q47.23125 109.03958 47.246876 107.47708L47.246876 105.41458Z" fill-rule="nonzero"/><path fill="#757575" d="M59.5125 442.3Q59.5125 444.51874 58.746876 445.6125Q57.996876 446.6906 56.3875 446.6906Q54.79375 446.6906 54.028126 445.64374Q53.2625 444.58124 53.23125 442.47186L53.23125 440.78436Q53.23125 438.59686 53.98125 437.53436Q54.746876 436.45624 56.371876 436.45624Q57.98125 436.45624 58.73125 437.4875Q59.496876 438.51874 59.5125 440.65936L59.5125 442.3ZM58.246876 440.58124Q58.246876 438.97186 57.79375 438.2375Q57.35625 437.5031 56.371876 437.5031Q55.403126 437.5031 54.95 438.2375Q54.5125 438.95624 54.496876 440.47186L54.496876 442.5031Q54.496876 444.1125 54.965626 444.89374Q55.434376 445.65936 56.3875 445.65936Q57.325 445.65936 57.778126 444.9406Q58.23125 444.20624 58.246876 442.64374L58.246876 440.58124Z" fill-rule="nonzero"/><path fill="#757575" d="M239.13126 441.5656L239.64688 436.59686L244.74063 436.59686L244.74063 437.76874L240.70938 437.76874L240.4125 440.47186Q241.14688 440.05 242.06876 440.05Q243.42813 440.05 244.225 440.95624Q245.0375 441.84686 245.0375 443.3781Q245.0375 444.90936 244.19376 445.8Q243.36563 446.6906 241.88126 446.6906Q240.56876 446.6906 239.725 445.95624Q238.89688 445.22186 238.77188 443.925L239.975 443.925Q240.08438 444.78436 240.56876 445.22186Q241.06876 445.65936 241.88126 445.65936Q242.75626 445.65936 243.25626 445.0656Q243.77188 444.45624 243.77188 443.39374Q243.77188 442.39374 243.225 441.8Q242.67813 441.1906 241.77188 441.1906Q240.95938 441.1906 240.475 441.55L240.14688 441.8156L239.13126 441.5656Z" fill-rule="nonzero"/><path fill="#757575" d="M423.98438 446.55L422.71875 446.55L422.71875 438.1281L420.15625 439.05L420.15625 437.90936L423.78125 436.55L423.98438 436.55L423.98438 446.55ZM434.0625 442.3Q434.0625 444.51874 433.29688 445.6125Q432.54688 446.6906 430.9375 446.6906Q429.34375 446.6906 428.57812 445.64374Q427.8125 444.58124 427.78125 442.47186L427.78125 440.78436Q427.78125 438.59686 428.53125 437.53436Q429.29688 436.45624 430.92188 436.45624Q432.53125 436.45624 433.28125 437.4875Q434.04688 438.51874 434.0625 440.65936L434.0625 442.3ZM432.79688 440.58124Q432.79688 438.97186 432.34375 438.2375Q431.90625 437.5031 430.92188 437.5031Q429.95312 437.5031 429.5 438.2375Q429.0625 438.95624 429.04688 440.47186L429.04688 442.5031Q429.04688 444.1125 429.51562 444.89374Q429.98438 445.65936 430.9375 445.65936Q431.875 445.65936 432.32812 444.9406Q432.78125 444.20624 432.79688 442.64374L432.79688 440.58124Z" fill-rule="nonzero"/><path fill="#757575" d="M609.2594 446.55L607.9938 446.55L607.9938 438.1281L605.4313 439.05L605.4313 437.90936L609.0563 436.55L609.2594 436.55L609.2594 446.55ZM613.6813 441.5656L614.1969 436.59686L619.29065 436.59686L619.29065 437.76874L615.2594 437.76874L614.9625 440.47186Q615.6969 440.05 616.6188 440.05Q617.97815 440.05 618.775 440.95624Q619.5875 441.84686 619.5875 443.3781Q619.5875 444.90936 618.7438 445.8Q617.91565 446.6906 616.4313 446.6906Q615.1188 446.6906 614.275 445.95624Q613.4469 445.22186 613.3219 443.925L614.525 443.925Q614.6344 444.78436 615.1188 445.22186Q615.6188 445.65936 616.4313 445.65936Q617.3063 445.65936 617.8063 445.0656Q618.3219 444.45624 618.3219 443.39374Q618.3219 442.39374 617.775 441.8Q617.22815 441.1906 616.3219 441.1906Q615.5094 441.1906 615.025 441.55L614.6969 441.8156L613.6813 441.5656Z" fill-rule="nonzero"/><path fill="#757575" d="M796.89374 446.55L790.3781 446.55L790.3781 445.64374L793.8156 441.8156Q794.58124 440.9406 794.8781 440.40936Q795.175 439.8625 795.175 439.26874Q795.175 438.5031 794.6906 438.0031Q794.22186 437.5031 793.4406 437.5031Q792.5031 437.5031 791.97186 438.03436Q791.45624 438.5656 791.45624 439.53436L790.1906 439.53436Q790.1906 438.15936 791.0656 437.3156Q791.95624 436.45624 793.4406 436.45624Q794.83124 436.45624 795.6281 437.1906Q796.4406 437.90936 796.4406 439.1281Q796.4406 440.59686 794.5656 442.6281L791.90936 445.51874L796.89374 445.51874L796.89374 446.55ZM804.6125 442.3Q804.6125 444.51874 803.84686 445.6125Q803.09686 446.6906 801.4875 446.6906Q799.89374 446.6906 799.1281 445.64374Q798.3625 444.58124 798.33124 442.47186L798.33124 440.78436Q798.33124 438.59686 799.08124 437.53436Q799.84686 436.45624 801.47186 436.45624Q803.08124 436.45624 803.83124 437.4875Q804.59686 438.51874 804.6125 440.65936L804.6125 442.3ZM803.34686 440.58124Q803.34686 438.97186 802.89374 438.2375Q802.45624 437.5031 801.47186 437.5031Q800.5031 437.5031 800.05 438.2375Q799.6125 438.95624 799.59686 440.47186L799.59686 442.5031Q799.59686 444.1125 800.0656 444.89374Q800.53436 445.65936 801.4875 445.65936Q802.425 445.65936 802.8781 444.9406Q803.33124 444.20624 803.34686 442.64374L803.34686 440.58124Z" fill-rule="nonzero"/><path fill="#4285f4" d="M243.5 67.916664L249.5 73.916664L243.5 79.916664L237.5 73.916664Z" fill-rule="nonzero"/><path fill="#757575" d="M258.26562 78.416664L258.26562 69.885414L261.25 69.885414Q262.79688 69.885414 263.59375 70.479164Q264.40625 71.072914 264.40625 72.229164Q264.40625 72.854164 264.07812 73.33854Q263.76562 73.80729 263.1875 74.02604Q263.84375 74.197914 264.21875 74.697914Q264.60938 75.18229 264.60938 75.90104Q264.60938 77.135414 263.8125 77.77604Q263.03125 78.40104 261.57812 78.416664L258.26562 78.416664ZM260.01562 74.697914L260.01562 77.010414L261.53125 77.010414Q262.14062 77.010414 262.48438 76.71354Q262.84375 76.416664 262.84375 75.885414Q262.84375 74.71354 261.625 74.697914L260.01562 74.697914ZM260.01562 73.46354L261.32812 73.46354Q262.65625 73.43229 262.65625 72.40104Q262.65625 71.822914 262.3125 71.572914Q261.98438 71.30729 261.25 71.30729L260.01562 71.30729L260.01562 73.46354ZM269.0625 78.541664Q267.67188 78.541664 266.79688 77.68229Q265.92188 76.822914 265.92188 75.40104L265.92188 75.229164Q265.92188 74.27604 266.28125 73.52604Q266.65625 72.77604 267.32812 72.36979Q268.01562 71.96354 268.875 71.96354Q270.1875 71.96354 270.92188 72.791664Q271.67188 73.604164 271.67188 75.104164L271.67188 75.791664L267.64062 75.791664Q267.71875 76.416664 268.125 76.791664Q268.54688 77.166664 269.1875 77.166664Q270.15625 77.166664 270.70312 76.46354L271.54688 77.385414Q271.15625 77.93229 270.5 78.24479Q269.85938 78.541664 269.0625 78.541664ZM268.875 73.322914Q268.375 73.322914 268.0625 73.666664Q267.75 74.010414 267.65625 74.635414L270.01562 74.635414L270.01562 74.510414Q270.0 73.947914 269.70312 73.635414Q269.42188 73.322914 268.875 73.322914ZM273.70312 72.072914L273.76562 72.80729Q274.4375 71.96354 275.57812 71.96354Q276.59375 71.96354 277.07812 72.55729Q277.57812 73.135414 277.59375 74.322914L277.59375 78.416664L275.89062 78.416664L275.89062 74.354164Q275.89062 73.822914 275.65625 73.58854Q275.42188 73.33854 274.875 73.33854Q274.17188 73.33854 273.8125 73.947914L273.8125 78.416664L272.10938 78.416664L272.10938 72.072914L273.70312 72.072914ZM281.78125 77.166664Q282.25 77.166664 282.54688 76.916664Q282.84375 76.65104 282.85938 76.229164L284.4375 76.229164Q284.4375 76.86979 284.09375 77.416664Q283.75 77.947914 283.14062 78.24479Q282.54688 78.541664 281.8125 78.541664Q280.45312 78.541664 279.67188 77.68229Q278.89062 76.80729 278.89062 75.27604L278.89062 75.166664Q278.89062 73.697914 279.67188 72.83854Q280.45312 71.96354 281.8125 71.96354Q283.0 71.96354 283.71875 72.635414Q284.4375 73.30729 284.4375 74.43229L282.85938 74.43229Q282.84375 73.947914 282.54688 73.635414Q282.25 73.322914 281.78125 73.322914Q281.1875 73.322914 280.875 73.760414Q280.57812 74.197914 280.57812 75.15104L280.57812 75.33854Q280.57812 76.30729 280.875 76.74479Q281.17188 77.166664 281.78125 77.166664ZM286.79688 72.760414Q287.48438 71.96354 288.5 71.96354Q290.5625 71.96354 290.59375 74.354164L290.59375 78.416664L288.89062 78.416664L288.89062 74.40104Q288.89062 73.854164 288.65625 73.604164Q288.42188 73.33854 287.875 73.33854Q287.14062 73.33854 286.79688 73.916664L286.79688 78.416664L285.10938 78.416664L285.10938 69.416664L286.79688 69.416664L286.79688 72.760414ZM297.01562 75.416664L297.01562 78.416664L295.26562 78.416664L295.26562 69.885414L298.59375 69.885414Q299.54688 69.885414 300.28125 70.24479Q301.01562 70.58854 301.40625 71.24479Q301.79688 71.885414 301.79688 72.71354Q301.79688 73.96354 300.9375 74.697914Q300.07812 75.416664 298.5625 75.416664L297.01562 75.416664ZM297.01562 73.979164L298.59375 73.979164Q299.28125 73.979164 299.64062 73.65104Q300.01562 73.322914 300.01562 72.71354Q300.01562 72.08854 299.64062 71.71354Q299.28125 71.322914 298.625 71.30729L297.01562 71.30729L297.01562 73.979164ZM306.71875 73.666664Q306.375 73.61979 306.10938 73.61979Q305.14062 73.61979 304.84375 74.260414L304.84375 78.416664L303.15625 78.416664L303.15625 72.072914L304.75 72.072914L304.79688 72.83854Q305.3125 71.96354 306.20312 71.96354Q306.48438 71.96354 306.73438 72.041664L306.71875 73.666664ZM310.0625 78.541664Q308.67188 78.541664 307.79688 77.68229Q306.92188 76.822914 306.92188 75.40104L306.92188 75.229164Q306.92188 74.27604 307.28125 73.52604Q307.65625 72.77604 308.32812 72.36979Q309.01562 71.96354 309.875 71.96354Q311.1875 71.96354 311.92188 72.791664Q312.67188 73.604164 312.67188 75.104164L312.67188 75.791664L308.64062 75.791664Q308.71875 76.416664 309.125 76.791664Q309.54688 77.166664 310.1875 77.166664Q311.15625 77.166664 311.70312 76.46354L312.54688 77.385414Q312.15625 77.93229 311.5 78.24479Q310.85938 78.541664 310.0625 78.541664ZM309.875 73.322914Q309.375 73.322914 309.0625 73.666664Q308.75 74.010414 308.65625 74.635414L311.01562 74.635414L311.01562 74.510414Q311.0 73.947914 310.70312 73.635414Q310.42188 73.322914 309.875 73.322914ZM316.57812 76.666664Q316.57812 76.354164 316.26562 76.18229Q315.96875 75.99479 315.29688 75.854164Q313.03125 75.385414 313.03125 73.93229Q313.03125 73.08854 313.71875 72.52604Q314.42188 71.96354 315.5625 71.96354Q316.76562 71.96354 317.48438 72.52604Q318.21875 73.08854 318.21875 74.010414L316.51562 74.010414Q316.51562 73.635414 316.28125 73.40104Q316.04688 73.166664 315.54688 73.166664Q315.125 73.166664 314.89062 73.36979Q314.65625 73.55729 314.65625 73.854164Q314.65625 74.135414 314.92188 74.30729Q315.1875 74.479164 315.8125 74.604164Q316.45312 74.729164 316.89062 74.885414Q318.23438 75.385414 318.23438 76.58854Q318.23438 77.46354 317.48438 78.010414Q316.75 78.541664 315.5625 78.541664Q314.76562 78.541664 314.14062 78.260414Q313.53125 77.96354 313.17188 77.479164Q312.82812 76.979164 312.82812 76.40104L314.4375 76.40104Q314.45312 76.854164 314.76562 77.104164Q315.07812 77.33854 315.59375 77.33854Q316.09375 77.33854 316.32812 77.15104Q316.57812 76.96354 316.57812 76.666664ZM322.57812 76.666664Q322.57812 76.354164 322.26562 76.18229Q321.96875 75.99479 321.29688 75.854164Q319.03125 75.385414 319.03125 73.93229Q319.03125 73.08854 319.71875 72.52604Q320.42188 71.96354 321.5625 71.96354Q322.76562 71.96354 323.48438 72.52604Q324.21875 73.08854 324.21875 74.010414L322.51562 74.010414Q322.51562 73.635414 322.28125 73.40104Q322.04688 73.166664 321.54688 73.166664Q321.125 73.166664 320.89062 73.36979Q320.65625 73.55729 320.65625 73.854164Q320.65625 74.135414 320.92188 74.30729Q321.1875 74.479164 321.8125 74.604164Q322.45312 74.729164 322.89062 74.885414Q324.23438 75.385414 324.23438 76.58854Q324.23438 77.46354 323.48438 78.010414Q322.75 78.541664 321.5625 78.541664Q320.76562 78.541664 320.14062 78.260414Q319.53125 77.96354 319.17188 77.479164Q318.82812 76.979164 318.82812 76.40104L320.4375 76.40104Q320.45312 76.854164 320.76562 77.104164Q321.07812 77.33854 321.59375 77.33854Q322.09375 77.33854 322.32812 77.15104Q322.57812 76.96354 322.57812 76.666664Z" fill-rule="nonzero"/><path fill="#db4437" d="M346.5 67.916664L352.5 73.916664L346.5 79.916664L340.5 73.916664Z" fill-rule="nonzero"/><path fill="#757575" d="M361.26562 78.416664L361.26562 69.885414L363.89062 69.885414Q365.01562 69.885414 365.89062 70.40104Q366.78125 70.90104 367.28125 71.83854Q367.78125 72.760414 367.78125 73.96354L367.78125 74.354164Q367.78125 75.541664 367.29688 76.46354Q366.8125 77.385414 365.92188 77.90104Q365.03125 78.416664 363.90625 78.416664L361.26562 78.416664ZM363.01562 71.30729L363.01562 77.010414L363.875 77.010414Q364.90625 77.010414 365.4375 76.33854Q365.98438 75.65104 366.0 74.40104L366.0 73.947914Q366.0 72.65104 365.45312 71.979164Q364.92188 71.30729 363.89062 71.30729L363.01562 71.30729ZM372.0625 78.541664Q370.67188 78.541664 369.79688 77.68229Q368.92188 76.822914 368.92188 75.40104L368.92188 75.229164Q368.92188 74.27604 369.28125 73.52604Q369.65625 72.77604 370.32812 72.36979Q371.01562 71.96354 371.875 71.96354Q373.1875 71.96354 373.92188 72.791664Q374.67188 73.604164 374.67188 75.104164L374.67188 75.791664L370.64062 75.791664Q370.71875 76.416664 371.125 76.791664Q371.54688 77.166664 372.1875 77.166664Q373.15625 77.166664 373.70312 76.46354L374.54688 77.385414Q374.15625 77.93229 373.5 78.24479Q372.85938 78.541664 372.0625 78.541664ZM371.875 73.322914Q371.375 73.322914 371.0625 73.666664Q370.75 74.010414 370.65625 74.635414L373.01562 74.635414L373.01562 74.510414Q373.0 73.947914 372.70312 73.635414Q372.42188 73.322914 371.875 73.322914ZM378.82812 78.416664Q378.70312 78.18229 378.65625 77.854164Q378.04688 78.541664 377.0625 78.541664Q376.125 78.541664 375.51562 77.99479Q374.90625 77.447914 374.90625 76.635414Q374.90625 75.61979 375.64062 75.08854Q376.39062 74.541664 377.8125 74.541664L378.57812 74.541664L378.57812 74.18229Q378.57812 73.74479 378.35938 73.479164Q378.14062 73.21354 377.64062 73.21354Q377.21875 73.21354 376.96875 73.416664Q376.73438 73.61979 376.73438 73.979164L375.04688 73.979164Q375.04688 73.43229 375.375 72.96354Q375.71875 72.49479 376.34375 72.229164Q376.96875 71.96354 377.73438 71.96354Q378.90625 71.96354 379.59375 72.55729Q380.28125 73.135414 380.28125 74.197914L380.28125 76.947914Q380.29688 77.854164 380.53125 78.322914L380.53125 78.416664L378.82812 78.416664ZM377.42188 77.24479Q377.79688 77.24479 378.10938 77.072914Q378.4375 76.90104 378.57812 76.61979L378.57812 75.52604L377.95312 75.52604Q376.6875 75.52604 376.59375 76.416664L376.59375 76.510414Q376.59375 76.822914 376.8125 77.041664Q377.03125 77.24479 377.42188 77.24479ZM380.89062 75.197914Q380.89062 73.71354 381.54688 72.83854Q382.21875 71.96354 383.375 71.96354Q384.29688 71.96354 384.90625 72.65104L384.90625 69.416664L386.59375 69.416664L386.59375 78.416664L385.07812 78.416664L384.98438 77.74479Q384.35938 78.541664 383.35938 78.541664Q382.23438 78.541664 381.5625 77.666664Q380.89062 76.77604 380.89062 75.197914ZM382.57812 75.322914Q382.57812 76.21354 382.89062 76.697914Q383.20312 77.166664 383.79688 77.166664Q384.57812 77.166664 384.90625 76.49479L384.90625 73.99479Q384.57812 73.33854 383.8125 73.33854Q382.57812 73.33854 382.57812 75.322914ZM389.9375 78.416664L388.23438 78.416664L388.23438 69.416664L389.9375 69.416664L389.9375 78.416664ZM392.9375 78.416664L391.23438 78.416664L391.23438 72.072914L392.9375 72.072914L392.9375 78.416664ZM391.14062 70.43229Q391.14062 70.05729 391.39062 69.80729Q391.65625 69.55729 392.09375 69.55729Q392.51562 69.55729 392.76562 69.80729Q393.03125 70.05729 393.03125 70.43229Q393.03125 70.822914 392.76562 71.072914Q392.51562 71.30729 392.07812 71.30729Q391.65625 71.30729 391.39062 71.072914Q391.14062 70.822914 391.14062 70.43229ZM394.60938 78.416664L394.60938 73.322914L393.67188 73.322914L393.67188 72.072914L394.60938 72.072914L394.60938 71.541664Q394.60938 70.46354 395.21875 69.885414Q395.84375 69.291664 396.9375 69.291664Q397.29688 69.291664 397.79688 69.416664L397.78125 70.729164Q397.57812 70.666664 397.26562 70.666664Q396.3125 70.666664 396.3125 71.572914L396.3125 72.072914L397.57812 72.072914L397.57812 73.322914L396.3125 73.322914L396.3125 78.416664L394.60938 78.416664ZM400.17188 70.510414L400.17188 72.072914L401.26562 72.072914L401.26562 73.322914L400.17188 73.322914L400.17188 76.479164Q400.17188 76.83854 400.3125 76.99479Q400.45312 77.135414 400.82812 77.135414Q401.10938 77.135414 401.32812 77.104164L401.32812 78.385414Q400.82812 78.541664 400.29688 78.541664Q398.51562 78.541664 398.48438 76.729164L398.48438 73.322914L397.5625 73.322914L397.5625 72.072914L398.48438 72.072914L398.48438 70.510414L400.17188 70.510414Z" fill-rule="nonzero"/><path fill="#f4b400" d="M423.5 67.916664L429.5 73.916664L423.5 79.916664L417.5 73.916664Z" fill-rule="nonzero"/><path fill="#757575" d="M442.6875 76.18229Q442.6875 75.68229 442.32812 75.416664Q441.98438 75.15104 441.0625 74.854164Q440.15625 74.55729 439.625 74.260414Q438.17188 73.479164 438.17188 72.15104Q438.17188 71.46354 438.5625 70.916664Q438.95312 70.36979 439.67188 70.072914Q440.40625 69.760414 441.3125 69.760414Q442.23438 69.760414 442.9375 70.104164Q443.65625 70.43229 444.04688 71.041664Q444.45312 71.635414 444.45312 72.40104L442.6875 72.40104Q442.6875 71.822914 442.3125 71.49479Q441.95312 71.166664 441.28125 71.166664Q440.64062 71.166664 440.28125 71.447914Q439.92188 71.71354 439.92188 72.15104Q439.92188 72.572914 440.34375 72.854164Q440.76562 73.135414 441.57812 73.385414Q443.07812 73.83854 443.76562 74.510414Q444.45312 75.166664 444.45312 76.166664Q444.45312 77.27604 443.60938 77.916664Q442.78125 78.541664 441.35938 78.541664Q440.375 78.541664 439.5625 78.18229Q438.75 77.80729 438.32812 77.18229Q437.90625 76.55729 437.90625 75.729164L439.67188 75.729164Q439.67188 77.15104 441.35938 77.15104Q441.98438 77.15104 442.32812 76.90104Q442.6875 76.635414 442.6875 76.18229ZM444.89062 75.18229Q444.89062 73.697914 445.54688 72.83854Q446.21875 71.96354 447.375 71.96354Q448.39062 71.96354 449.0 72.74479L449.10938 72.072914L450.59375 72.072914L450.59375 80.854164L448.90625 80.854164L448.90625 77.86979Q448.3125 78.541664 447.35938 78.541664Q446.23438 78.541664 445.5625 77.666664Q444.89062 76.77604 444.89062 75.18229ZM446.57812 75.30729Q446.57812 76.21354 446.89062 76.697914Q447.21875 77.166664 447.79688 77.166664Q448.57812 77.166664 448.90625 76.541664L448.90625 73.93229Q448.57812 73.322914 447.8125 73.322914Q447.21875 73.322914 446.89062 73.80729Q446.57812 74.27604 446.57812 75.30729ZM455.95312 77.77604Q455.32812 78.541664 454.21875 78.541664Q453.1875 78.541664 452.65625 77.947914Q452.125 77.354164 452.10938 76.229164L452.10938 72.072914L453.79688 72.072914L453.79688 76.166664Q453.79688 77.166664 454.70312 77.166664Q455.5625 77.166664 455.89062 76.55729L455.89062 72.072914L457.59375 72.072914L457.59375 78.416664L456.0 78.416664L455.95312 77.77604ZM462.82812 78.416664Q462.70312 78.18229 462.65625 77.854164Q462.04688 78.541664 461.0625 78.541664Q460.125 78.541664 459.51562 77.99479Q458.90625 77.447914 458.90625 76.635414Q458.90625 75.61979 459.64062 75.08854Q460.39062 74.541664 461.8125 74.541664L462.57812 74.541664L462.57812 74.18229Q462.57812 73.74479 462.35938 73.479164Q462.14062 73.21354 461.64062 73.21354Q461.21875 73.21354 460.96875 73.416664Q460.73438 73.61979 460.73438 73.979164L459.04688 73.979164Q459.04688 73.43229 459.375 72.96354Q459.71875 72.49479 460.34375 72.229164Q460.96875 71.96354 461.73438 71.96354Q462.90625 71.96354 463.59375 72.55729Q464.28125 73.135414 464.28125 74.197914L464.28125 76.947914Q464.29688 77.854164 464.53125 78.322914L464.53125 78.416664L462.82812 78.416664ZM461.42188 77.24479Q461.79688 77.24479 462.10938 77.072914Q462.4375 76.90104 462.57812 76.61979L462.57812 75.52604L461.95312 75.52604Q460.6875 75.52604 460.59375 76.416664L460.59375 76.510414Q460.59375 76.822914 460.8125 77.041664Q461.03125 77.24479 461.42188 77.24479ZM467.17188 70.510414L467.17188 72.072914L468.26562 72.072914L468.26562 73.322914L467.17188 73.322914L467.17188 76.479164Q467.17188 76.83854 467.3125 76.99479Q467.45312 77.135414 467.82812 77.135414Q468.10938 77.135414 468.32812 77.104164L468.32812 78.385414Q467.82812 78.541664 467.29688 78.541664Q465.51562 78.541664 465.48438 76.729164L465.48438 73.322914L464.5625 73.322914L464.5625 72.072914L465.48438 72.072914L465.48438 70.510414L467.17188 70.510414Z" fill-rule="nonzero"/><path fill="#0f9d58" d="M490.5 67.916664L496.5 73.916664L490.5 79.916664L484.5 73.916664Z" fill-rule="nonzero"/><path fill="#757575" d="M509.6875 76.18229Q509.6875 75.68229 509.32812 75.416664Q508.98438 75.15104 508.0625 74.854164Q507.15625 74.55729 506.625 74.260414Q505.17188 73.479164 505.17188 72.15104Q505.17188 71.46354 505.5625 70.916664Q505.95312 70.36979 506.67188 70.072914Q507.40625 69.760414 508.3125 69.760414Q509.23438 69.760414 509.9375 70.104164Q510.65625 70.43229 511.04688 71.041664Q511.45312 71.635414 511.45312 72.40104L509.6875 72.40104Q509.6875 71.822914 509.3125 71.49479Q508.95312 71.166664 508.28125 71.166664Q507.64062 71.166664 507.28125 71.447914Q506.92188 71.71354 506.92188 72.15104Q506.92188 72.572914 507.34375 72.854164Q507.76562 73.135414 508.57812 73.385414Q510.07812 73.83854 510.76562 74.510414Q511.45312 75.166664 511.45312 76.166664Q511.45312 77.27604 510.60938 77.916664Q509.78125 78.541664 508.35938 78.541664Q507.375 78.541664 506.5625 78.18229Q505.75 77.80729 505.32812 77.18229Q504.90625 76.55729 504.90625 75.729164L506.67188 75.729164Q506.67188 77.15104 508.35938 77.15104Q508.98438 77.15104 509.32812 76.90104Q509.6875 76.635414 509.6875 76.18229ZM513.7969 72.760414Q514.4844 71.96354 515.5 71.96354Q517.5625 71.96354 517.59375 74.354164L517.59375 78.416664L515.8906 78.416664L515.8906 74.40104Q515.8906 73.854164 515.65625 73.604164Q515.4219 73.33854 514.875 73.33854Q514.1406 73.33854 513.7969 73.916664L513.7969 78.416664L512.1094 78.416664L512.1094 69.416664L513.7969 69.416664L513.7969 72.760414ZM518.8906 75.18229Q518.8906 74.24479 519.25 73.510414Q519.6094 72.760414 520.2969 72.36979Q520.9844 71.96354 521.875 71.96354Q523.1719 71.96354 523.96875 72.74479Q524.78125 73.52604 524.875 74.86979L524.8906 75.30729Q524.8906 76.77604 524.0781 77.666664Q523.2656 78.541664 521.8906 78.541664Q520.5156 78.541664 519.7031 77.666664Q518.8906 76.77604 518.8906 75.260414L518.8906 75.18229ZM520.5781 75.30729Q520.5781 76.21354 520.9219 76.697914Q521.2656 77.166664 521.8906 77.166664Q522.5156 77.166664 522.8594 76.697914Q523.2031 76.229164 523.2031 75.18229Q523.2031 74.30729 522.8594 73.822914Q522.5156 73.322914 521.875 73.322914Q521.2656 73.322914 520.9219 73.80729Q520.5781 74.291664 520.5781 75.30729ZM529.9531 77.77604Q529.3281 78.541664 528.21875 78.541664Q527.1875 78.541664 526.65625 77.947914Q526.125 77.354164 526.1094 76.229164L526.1094 72.072914L527.7969 72.072914L527.7969 76.166664Q527.7969 77.166664 528.7031 77.166664Q529.5625 77.166664 529.8906 76.55729L529.8906 72.072914L531.59375 72.072914L531.59375 78.416664L530.0 78.416664L529.9531 77.77604ZM534.9375 78.416664L533.2344 78.416664L533.2344 69.416664L534.9375 69.416664L534.9375 78.416664ZM535.8906 75.197914Q535.8906 73.71354 536.5469 72.83854Q537.21875 71.96354 538.375 71.96354Q539.2969 71.96354 539.90625 72.65104L539.90625 69.416664L541.59375 69.416664L541.59375 78.416664L540.0781 78.416664L539.9844 77.74479Q539.3594 78.541664 538.3594 78.541664Q537.2344 78.541664 536.5625 77.666664Q535.8906 76.77604 535.8906 75.197914ZM537.5781 75.322914Q537.5781 76.21354 537.8906 76.697914Q538.2031 77.166664 538.7969 77.166664Q539.5781 77.166664 539.90625 76.49479L539.90625 73.99479Q539.5781 73.33854 538.8125 73.33854Q537.5781 73.33854 537.5781 75.322914ZM546.0625 78.541664Q544.6719 78.541664 543.7969 77.68229Q542.9219 76.822914 542.9219 75.40104L542.9219 75.229164Q542.9219 74.27604 543.28125 73.52604Q543.65625 72.77604 544.3281 72.36979Q545.0156 71.96354 545.875 71.96354Q547.1875 71.96354 547.9219 72.791664Q548.6719 73.604164 548.6719 75.104164L548.6719 75.791664L544.6406 75.791664Q544.71875 76.416664 545.125 76.791664Q545.5469 77.166664 546.1875 77.166664Q547.15625 77.166664 547.7031 76.46354L548.5469 77.385414Q548.15625 77.93229 547.5 78.24479Q546.8594 78.541664 546.0625 78.541664ZM545.875 73.322914Q545.375 73.322914 545.0625 73.666664Q544.75 74.010414 544.65625 74.635414L547.0156 74.635414L547.0156 74.510414Q547.0 73.947914 546.7031 73.635414Q546.4219 73.322914 545.875 73.322914ZM552.71875 73.666664Q552.375 73.61979 552.1094 73.61979Q551.1406 73.61979 550.84375 74.260414L550.84375 78.416664L549.15625 78.416664L549.15625 72.072914L550.75 72.072914L550.7969 72.83854Q551.3125 71.96354 552.2031 71.96354Q552.4844 71.96354 552.7344 72.041664L552.71875 73.666664ZM558.0156 75.416664L558.0156 78.416664L556.2656 78.416664L556.2656 69.885414L559.59375 69.885414Q560.5469 69.885414 561.28125 70.24479Q562.0156 70.58854 562.40625 71.24479Q562.7969 71.885414 562.7969 72.71354Q562.7969 73.96354 561.9375 74.697914Q561.0781 75.416664 559.5625 75.416664L558.0156 75.416664ZM558.0156 73.979164L559.59375 73.979164Q560.28125 73.979164 560.6406 73.65104Q561.0156 73.322914 561.0156 72.71354Q561.0156 72.08854 560.6406 71.71354Q560.28125 71.322914 559.625 71.30729L558.0156 71.30729L558.0156 73.979164ZM567.71875 73.666664Q567.375 73.61979 567.1094 73.61979Q566.1406 73.61979 565.84375 74.260414L565.84375 78.416664L564.15625 78.416664L564.15625 72.072914L565.75 72.072914L565.7969 72.83854Q566.3125 71.96354 567.2031 71.96354Q567.4844 71.96354 567.7344 72.041664L567.71875 73.666664ZM571.0625 78.541664Q569.6719 78.541664 568.7969 77.68229Q567.9219 76.822914 567.9219 75.40104L567.9219 75.229164Q567.9219 74.27604 568.28125 73.52604Q568.65625 72.77604 569.3281 72.36979Q570.0156 71.96354 570.875 71.96354Q572.1875 71.96354 572.9219 72.791664Q573.6719 73.604164 573.6719 75.104164L573.6719 75.791664L569.6406 75.791664Q569.71875 76.416664 570.125 76.791664Q570.5469 77.166664 571.1875 77.166664Q572.15625 77.166664 572.7031 76.46354L573.5469 77.385414Q573.15625 77.93229 572.5 78.24479Q571.8594 78.541664 571.0625 78.541664ZM570.875 73.322914Q570.375 73.322914 570.0625 73.666664Q569.75 74.010414 569.65625 74.635414L572.0156 74.635414L572.0156 74.510414Q572.0 73.947914 571.7031 73.635414Q571.4219 73.322914 570.875 73.322914ZM577.5781 76.666664Q577.5781 76.354164 577.2656 76.18229Q576.96875 75.99479 576.2969 75.854164Q574.03125 75.385414 574.03125 73.93229Q574.03125 73.08854 574.71875 72.52604Q575.4219 71.96354 576.5625 71.96354Q577.7656 71.96354 578.4844 72.52604Q579.21875 73.08854 579.21875 74.010414L577.5156 74.010414Q577.5156 73.635414 577.28125 73.40104Q577.0469 73.166664 576.5469 73.166664Q576.125 73.166664 575.8906 73.36979Q575.65625 73.55729 575.65625 73.854164Q575.65625 74.135414 575.9219 74.30729Q576.1875 74.479164 576.8125 74.604164Q577.4531 74.729164 577.8906 74.885414Q579.2344 75.385414 579.2344 76.58854Q579.2344 77.46354 578.4844 78.010414Q577.75 78.541664 576.5625 78.541664Q575.7656 78.541664 575.1406 78.260414Q574.53125 77.96354 574.1719 77.479164Q573.8281 76.979164 573.8281 76.40104L575.4375 76.40104Q575.4531 76.854164 575.7656 77.104164Q576.0781 77.33854 576.59375 77.33854Q577.09375 77.33854 577.3281 77.15104Q577.5781 76.96354 577.5781 76.666664ZM583.5781 76.666664Q583.5781 76.354164 583.2656 76.18229Q582.96875 75.99479 582.2969 75.854164Q580.03125 75.385414 580.03125 73.93229Q580.03125 73.08854 580.71875 72.52604Q581.4219 71.96354 582.5625 71.96354Q583.7656 71.96354 584.4844 72.52604Q585.21875 73.08854 585.21875 74.010414L583.5156 74.010414Q583.5156 73.635414 583.28125 73.40104Q583.0469 73.166664 582.5469 73.166664Q582.125 73.166664 581.8906 73.36979Q581.65625 73.55729 581.65625 73.854164Q581.65625 74.135414 581.9219 74.30729Q582.1875 74.479164 582.8125 74.604164Q583.4531 74.729164 583.8906 74.885414Q585.2344 75.385414 585.2344 76.58854Q585.2344 77.46354 584.4844 78.010414Q583.75 78.541664 582.5625 78.541664Q581.7656 78.541664 581.1406 78.260414Q580.53125 77.96354 580.1719 77.479164Q579.8281 76.979164 579.8281 76.40104L581.4375 76.40104Q581.4531 76.854164 581.7656 77.104164Q582.0781 77.33854 582.59375 77.33854Q583.09375 77.33854 583.3281 77.15104Q583.5781 76.96354 583.5781 76.666664Z" fill-rule="nonzero"/><path fill="#757575" d="M395.70312 42.090626L401.92188 42.090626L401.92188 44.45L392.76562 44.45L392.76562 30.23125L395.70312 30.23125L395.70312 42.090626ZM406.5625 44.45L403.73438 44.45L403.73438 33.8875L406.5625 33.8875L406.5625 44.45ZM403.5625 31.153126Q403.5625 30.5125 403.98438 30.10625Q404.42188 29.7 405.14062 29.7Q405.875 29.7 406.29688 30.10625Q406.73438 30.5125 406.73438 31.153126Q406.73438 31.79375 406.29688 32.2Q405.85938 32.60625 405.14062 32.60625Q404.4375 32.60625 404.0 32.2Q403.5625 31.79375 403.5625 31.153126ZM409.35938 44.45L409.35938 35.95L407.78125 35.95L407.78125 33.8875L409.35938 33.8875L409.35938 32.98125Q409.35938 31.2 410.375 30.23125Q411.39062 29.246876 413.23438 29.246876Q413.8125 29.246876 414.67188 29.434376L414.64062 31.621876Q414.28125 31.54375 413.78125 31.54375Q412.1875 31.54375 412.1875 33.028126L412.1875 33.8875L414.28125 33.8875L414.28125 35.95L412.1875 35.95L412.1875 44.45L409.35938 44.45ZM418.96875 31.278126L418.96875 33.8875L420.76562 33.8875L420.76562 35.95L418.96875 35.95L418.96875 41.23125Q418.96875 41.809376 419.1875 42.075Q419.40625 42.325 420.04688 42.325Q420.51562 42.325 420.875 42.246876L420.875 44.3875Q420.04688 44.653126 419.17188 44.653126Q416.20312 44.653126 416.14062 41.653126L416.14062 35.95L414.59375 35.95L414.59375 33.8875L416.14062 33.8875L416.14062 31.278126L418.96875 31.278126ZM428.3125 41.528126Q428.3125 41.0125 427.79688 40.715626Q427.28125 40.41875 426.15625 40.184376Q422.375 39.3875 422.375 36.98125Q422.375 35.575 423.54688 34.6375Q424.71875 33.684376 426.59375 33.684376Q428.60938 33.684376 429.8125 34.6375Q431.01562 35.575 431.01562 37.090626L428.20312 37.090626Q428.20312 36.496876 427.8125 36.10625Q427.42188 35.7 426.59375 35.7Q425.875 35.7 425.48438 36.028126Q425.09375 36.340626 425.09375 36.840626Q425.09375 37.309376 425.53125 37.60625Q425.98438 37.8875 427.03125 38.10625Q428.09375 38.309376 428.8125 38.575Q431.04688 39.3875 431.04688 41.41875Q431.04688 42.85625 429.8125 43.7625Q428.57812 44.653126 426.60938 44.653126Q425.28125 44.653126 424.25 44.184376Q423.21875 43.7 422.625 42.871876Q422.04688 42.04375 422.04688 41.090626L424.71875 41.090626Q424.76562 41.840626 425.28125 42.246876Q425.79688 42.6375 426.67188 42.6375Q427.48438 42.6375 427.89062 42.340626Q428.3125 42.028126 428.3125 41.528126Z" fill-rule="nonzero"/></svg>