<svg version="1.1" viewBox="0.0 0.0 726.0 449.0" fill="none" stroke="none" stroke-linecap="square" stroke-miterlimit="10" width="726" height="449" xmlns:xlink="http://www.w3.org/1999/xlink" xmlns="http://www.w3.org/2000/svg"><path fill="#ffffff" d="M0 0L726.0 0L726.0 449.0L0 449.0L0 0Z" fill-rule="nonzero"/><path fill="#ffffff" d="M0 0L726.0 0L726.0 449.0L0 449.0L0 0Z" fill-rule="nonzero"/><path stroke="#333333" stroke-width="1.0" stroke-linecap="butt" d="M86.5 69.5L86.5 369.5" fill-rule="nonzero"/><path stroke="#cccccc" stroke-width="1.0" stroke-linecap="butt" d="M240.5 69.5L240.5 369.5" fill-rule="nonzero"/><path stroke="#cccccc" stroke-width="1.0" stroke-linecap="butt" d="M394.5 69.5L394.5 369.5" fill-rule="nonzero"/><path stroke="#cccccc" stroke-width="1.0" stroke-linecap="butt" d="M549.5 69.5L549.5 369.5" fill-rule="nonzero"/><path stroke="#cccccc" stroke-width="1.0" stroke-linecap="butt" d="M703.5 69.5L703.5 369.5" fill-rule="nonzero"/><path stroke="#e6e6e6" stroke-width="1.0" stroke-linecap="butt" d="M209.5 69.5L209.5 369.5" fill-rule="nonzero"/><path stroke="#e6e6e6" stroke-width="1.0" stroke-linecap="butt" d="M179.5 69.5L179.5 369.5" fill-rule="nonzero"/><path stroke="#e6e6e6" stroke-width="1.0" stroke-linecap="butt" d="M148.5 69.5L148.5 369.5" fill-rule="nonzero"/><path stroke="#e6e6e6" stroke-width="1.0" stroke-linecap="butt" d="M117.5 69.5L117.5 369.5" fill-rule="nonzero"/><path stroke="#e6e6e6" stroke-width="1.0" stroke-linecap="butt" d="M364.5 69.5L364.5 369.5" fill-rule="nonzero"/><path stroke="#e6e6e6" stroke-width="1.0" stroke-linecap="butt" d="M333.5 69.5L333.5 369.5" fill-rule="nonzero"/><path stroke="#e6e6e6" stroke-width="1.0" stroke-linecap="butt" d="M302.5 69.5L302.5 369.5" fill-rule="nonzero"/><path stroke="#e6e6e6" stroke-width="1.0" stroke-linecap="butt" d="M271.5 69.5L271.5 369.5" fill-rule="nonzero"/><path stroke="#e6e6e6" stroke-width="1.0" stroke-linecap="butt" d="M518.5 69.5L518.5 369.5" fill-rule="nonzero"/><path stroke="#e6e6e6" stroke-width="1.0" stroke-linecap="butt" d="M487.5 69.5L487.5 369.5" fill-rule="nonzero"/><path stroke="#e6e6e6" stroke-width="1.0" stroke-linecap="butt" d="M456.5 69.5L456.5 369.5" fill-rule="nonzero"/><path stroke="#e6e6e6" stroke-width="1.0" stroke-linecap="butt" d="M425.5 69.5L425.5 369.5" fill-rule="nonzero"/><path stroke="#e6e6e6" stroke-width="1.0" stroke-linecap="butt" d="M672.5 69.5L672.5 369.5" fill-rule="nonzero"/><path stroke="#e6e6e6" stroke-width="1.0" stroke-linecap="butt" d="M641.5 69.5L641.5 369.5" fill-rule="nonzero"/><path stroke="#e6e6e6" stroke-width="1.0" stroke-linecap="butt" d="M610.5 69.5L610.5 369.5" fill-rule="nonzero"/><path stroke="#e6e6e6" stroke-width="1.0" stroke-linecap="butt" d="M580.5 69.5L580.5 369.5" fill-rule="nonzero"/><path stroke="#cccccc" stroke-width="1.0" stroke-linecap="butt" d="M86.5 369.5L703.5 369.5" fill-rule="nonzero"/><path stroke="#cccccc" stroke-width="1.0" stroke-linecap="butt" d="M86.5 294.5L703.5 294.5" fill-rule="nonzero"/><path stroke="#cccccc" stroke-width="1.0" stroke-linecap="butt" d="M86.5 219.5L703.5 219.5" fill-rule="nonzero"/><path stroke="#cccccc" stroke-width="1.0" stroke-linecap="butt" d="M86.5 144.5L703.5 144.5" fill-rule="nonzero"/><path stroke="#cccccc" stroke-width="1.0" stroke-linecap="butt" d="M86.5 69.5L703.5 69.5" fill-rule="nonzero"/><path stroke="#e6e6e6" stroke-width="1.0" stroke-linecap="butt" d="M86.5 309.5L703.5 309.5" fill-rule="nonzero"/><path stroke="#e6e6e6" stroke-width="1.0" stroke-linecap="butt" d="M86.5 324.5L703.5 324.5" fill-rule="nonzero"/><path stroke="#e6e6e6" stroke-width="1.0" stroke-linecap="butt" d="M86.5 339.5L703.5 339.5" fill-rule="nonzero"/><path stroke="#e6e6e6" stroke-width="1.0" stroke-linecap="butt" d="M86.5 354.5L703.5 354.5" fill-rule="nonzero"/><path stroke="#e6e6e6" stroke-width="1.0" stroke-linecap="butt" d="M86.5 234.5L703.5 234.5" fill-rule="nonzero"/><path stroke="#e6e6e6" stroke-width="1.0" stroke-linecap="butt" d="M86.5 249.5L703.5 249.5" fill-rule="nonzero"/><path stroke="#e6e6e6" stroke-width="1.0" stroke-linecap="butt" d="M86.5 264.5L703.5 264.5" fill-rule="nonzero"/><path stroke="#e6e6e6" stroke-width="1.0" stroke-linecap="butt" d="M86.5 279.5L703.5 279.5" fill-rule="nonzero"/><path stroke="#e6e6e6" stroke-width="1.0" stroke-linecap="butt" d="M86.5 159.5L703.5 159.5" fill-rule="nonzero"/><path stroke="#e6e6e6" stroke-width="1.0" stroke-linecap="butt" d="M86.5 174.5L703.5 174.5" fill-rule="nonzero"/><path stroke="#e6e6e6" stroke-width="1.0" stroke-linecap="butt" d="M86.5 189.5L703.5 189.5" fill-rule="nonzero"/><path stroke="#e6e6e6" stroke-width="1.0" stroke-linecap="butt" d="M86.5 204.5L703.5 204.5" fill-rule="nonzero"/><path stroke="#e6e6e6" stroke-width="1.0" stroke-linecap="butt" d="M86.5 84.5L703.5 84.5" fill-rule="nonzero"/><path stroke="#e6e6e6" stroke-width="1.0" stroke-linecap="butt" d="M86.5 99.5L703.5 99.5" fill-rule="nonzero"/><path stroke="#e6e6e6" stroke-width="1.0" stroke-linecap="butt" d="M86.5 114.5L703.5 114.5" fill-rule="nonzero"/><path stroke="#e6e6e6" stroke-width="1.0" stroke-linecap="butt" d="M86.5 129.5L703.5 129.5" fill-rule="nonzero"/><clipPath id="id_0"><path d="M86.45 69.916664L703.55 69.916664L703.55 369.55L86.45 369.55L86.45 69.916664Z" clip-rule="nonzero"/></clipPath><path stroke="#6aa84f" stroke-width="2.0" stroke-linecap="butt" clip-path="url(#id_0)" d="M86.45 107.370834L86.45 107.370834" fill-rule="nonzero"/><path fill="#6aa84f" clip-path="url(#id_0)" d="M86.45 102.870834L90.95 107.370834L86.45 111.870834L81.95 107.370834Z" fill-rule="nonzero"/><path fill="#424242" d="M383.32812 420.8625L383.5 421.9875L383.73438 420.97186L385.42188 415.01874L386.375 415.01874L388.01562 420.97186L388.25 422.0031L388.4375 420.84686L389.76562 415.01874L390.89062 415.01874L388.82812 423.55L387.79688 423.55L386.03125 417.33124L385.90625 416.675L385.76562 417.33124L383.95312 423.55L382.92188 423.55L380.85938 415.01874L381.98438 415.01874L383.32812 420.8625ZM394.95312 423.675Q393.65625 423.675 392.84375 422.83124Q392.04688 421.97186 392.04688 420.55L392.04688 420.3625Q392.04688 419.40936 392.40625 418.675Q392.76562 417.925 393.40625 417.51874Q394.0625 417.09686 394.8125 417.09686Q396.04688 417.09686 396.73438 417.90936Q397.42188 418.72186 397.42188 420.2375L397.42188 420.6906L393.125 420.6906Q393.15625 421.6281 393.67188 422.20624Q394.20312 422.78436 395.01562 422.78436Q395.57812 422.78436 395.96875 422.55Q396.375 422.3156 396.6875 421.925L397.34375 422.4406Q396.54688 423.675 394.95312 423.675ZM394.8125 417.9875Q394.15625 417.9875 393.70312 418.47186Q393.26562 418.9406 393.17188 419.8L396.34375 419.8L396.34375 419.72186Q396.29688 418.89374 395.89062 418.4406Q395.5 417.9875 394.8125 417.9875ZM400.95312 423.675Q399.65625 423.675 398.84375 422.83124Q398.04688 421.97186 398.04688 420.55L398.04688 420.3625Q398.04688 419.40936 398.40625 418.675Q398.76562 417.925 399.40625 417.51874Q400.0625 417.09686 400.8125 417.09686Q402.04688 417.09686 402.73438 417.90936Q403.42188 418.72186 403.42188 420.2375L403.42188 420.6906L399.125 420.6906Q399.15625 421.6281 399.67188 422.20624Q400.20312 422.78436 401.01562 422.78436Q401.57812 422.78436 401.96875 422.55Q402.375 422.3156 402.6875 421.925L403.34375 422.4406Q402.54688 423.675 400.95312 423.675ZM400.8125 417.9875Q400.15625 417.9875 399.70312 418.47186Q399.26562 418.9406 399.17188 419.8L402.34375 419.8L402.34375 419.72186Q402.29688 418.89374 401.89062 418.4406Q401.5 417.9875 400.8125 417.9875ZM406.09375 420.6125L405.40625 421.3156L405.40625 423.55L404.32812 423.55L404.32812 414.55L405.40625 414.55L405.40625 419.9875L405.98438 419.3L407.96875 417.20624L409.28125 417.20624L406.8125 419.8625L409.57812 423.55L408.29688 423.55L406.09375 420.6125Z" fill-rule="nonzero"/><path fill="#424242" d="M31.762487 275.6552L32.88749 275.48334L31.871862 275.24896L25.918737 273.56146L25.918737 272.60834L31.871862 270.9677L32.903114 270.73334L31.746862 270.54584L25.918737 269.2177L25.918737 268.0927L34.44999 270.1552L34.44999 271.18646L28.231237 272.9521L27.574987 273.0771L28.231237 273.2177L34.44999 275.0302L34.44999 276.06146L25.918737 278.12396L25.918737 276.99896L31.762487 275.6552ZM34.44999 262.74896Q34.26249 262.8427 33.778114 262.9052Q34.57499 263.6552 34.57499 264.7021Q34.57499 265.6396 34.04374 266.24896Q33.51249 266.8427 32.684364 266.8427Q31.699987 266.8427 31.153112 266.0927Q30.606237 265.3427 30.606237 263.9677L30.606237 262.92084L30.106237 262.92084Q29.543737 262.92084 29.215612 263.2646Q28.871862 263.5927 28.871862 264.2646Q28.871862 264.8427 29.168737 265.23334Q29.449987 265.62396 29.871862 265.62396L29.871862 266.7177Q29.387487 266.7177 28.949987 266.3896Q28.512487 266.04584 28.262487 265.4677Q27.996862 264.8896 27.996862 264.2021Q27.996862 263.0927 28.543737 262.48334Q29.090612 261.85834 30.043737 261.8271L32.965614 261.8271Q33.840614 261.8271 34.35624 261.60834L34.44999 261.60834L34.44999 262.74896ZM33.621864 264.54584Q33.621864 264.0302 33.35624 263.5771Q33.090614 263.12396 32.66874 262.92084L31.371862 262.92084L31.371862 263.7646Q31.371862 265.7646 32.54374 265.7646Q33.04374 265.7646 33.340614 265.42084Q33.621864 265.0771 33.621864 264.54584ZM34.44999 258.48334L34.44999 259.56146L28.106237 259.56146L28.106237 258.48334L34.44999 258.48334ZM26.434362 259.6552Q26.168737 259.6552 25.981237 259.49896Q25.793737 259.3271 25.793737 259.0146Q25.793737 258.7021 25.981237 258.54584Q26.168737 258.37396 26.434362 258.37396Q26.684362 258.37396 26.871862 258.54584Q27.043737 258.7021 27.043737 259.0146Q27.043737 259.3271 26.871862 259.49896Q26.684362 259.6552 26.434362 259.6552ZM32.76249 252.96771Q32.32499 252.96771 32.090614 253.31146Q31.840612 253.63959 31.668737 254.46771Q31.496862 255.28021 31.246862 255.76459Q30.996862 256.24896 30.668737 256.48334Q30.324987 256.7021 29.856237 256.7021Q29.074987 256.7021 28.543737 256.04584Q27.996862 255.38959 27.996862 254.35834Q27.996862 253.28021 28.559362 252.62396Q29.106237 251.95209 29.965612 251.95209L29.965612 253.03021Q29.528112 253.03021 29.215612 253.42084Q28.887487 253.79584 28.887487 254.35834Q28.887487 254.95209 29.153112 255.29584Q29.403112 255.62396 29.809362 255.62396Q30.199987 255.62396 30.403112 255.31146Q30.606237 254.99896 30.793737 254.18646Q30.965612 253.37396 31.215612 252.87396Q31.465612 252.37396 31.824987 252.13959Q32.184364 251.88959 32.684364 251.88959Q33.54374 251.88959 34.059364 252.57709Q34.57499 253.24896 34.57499 254.32709Q34.57499 255.09271 34.309364 255.68646Q34.028114 256.2646 33.54374 256.5927Q33.059364 256.92084 32.496864 256.92084L32.496864 255.84271Q33.04374 255.81146 33.371864 255.40521Q33.684364 254.99896 33.684364 254.32709Q33.684364 253.71771 33.434364 253.34271Q33.184364 252.96771 32.76249 252.96771ZM26.574987 249.18646L28.106237 249.18646L28.106237 248.01459L28.949987 248.01459L28.949987 249.18646L32.871864 249.18646Q33.26249 249.18646 33.44999 249.03021Q33.63749 248.87396 33.63749 248.49896Q33.63749 248.31146 33.57499 247.98334L34.44999 247.98334Q34.57499 248.40521 34.57499 248.81146Q34.57499 249.53021 34.13749 249.90521Q33.684364 250.28021 32.871864 250.28021L28.949987 250.28021L28.949987 251.43646L28.106237 251.43646L28.106237 250.28021L26.574987 250.28021L26.574987 249.18646ZM30.653112 240.98334Q30.231237 242.42084 29.621862 243.09271Q29.012487 243.74896 28.121862 243.74896Q27.121862 243.74896 26.465612 242.95209Q25.793737 242.13959 25.793737 240.84271Q25.793737 239.96771 26.137487 239.28021Q26.481237 238.59271 27.074987 238.21771Q27.668737 237.82709 28.387487 237.82709L28.387487 238.96771Q27.606237 238.96771 27.168737 239.46771Q26.731237 239.95209 26.731237 240.84271Q26.731237 241.67084 27.106237 242.13959Q27.465612 242.60834 28.106237 242.60834Q28.637487 242.60834 28.996862 242.17084Q29.356237 241.71771 29.653112 240.65521Q29.949987 239.59271 30.309362 238.99896Q30.668737 238.38959 31.153112 238.10834Q31.637487 237.81146 32.278114 237.81146Q33.32499 237.81146 33.94999 238.62396Q34.57499 239.43646 34.57499 240.78021Q34.57499 241.67084 34.23124 242.43646Q33.88749 243.18646 33.309364 243.60834Q32.715614 244.01459 31.981237 244.01459L31.981237 242.88959Q32.746864 242.88959 33.19999 242.31146Q33.653114 241.73334 33.653114 240.78021Q33.653114 239.88959 33.29374 239.42084Q32.91874 238.95209 32.29374 238.95209Q31.668737 238.95209 31.324987 239.38959Q30.981237 239.82709 30.653112 240.98334ZM34.44999 235.48334L34.44999 236.56146L28.106237 236.56146L28.106237 235.48334L34.44999 235.48334ZM26.434362 236.65521Q26.168737 236.65521 25.981237 236.49896Q25.793737 236.32709 25.793737 236.01459Q25.793737 235.70209 25.981237 235.54584Q26.168737 235.37396 26.434362 235.37396Q26.684362 235.37396 26.871862 235.54584Q27.043737 235.70209 27.043737 236.01459Q27.043737 236.32709 26.871862 236.49896Q26.684362 236.65521 26.434362 236.65521ZM33.559364 232.63959L33.559364 228.93646L34.44999 228.93646L34.44999 233.96771L33.653114 233.96771L29.012487 230.46771L29.012487 233.92084L28.106237 233.92084L28.106237 229.10834L28.871862 229.10834L33.559364 232.63959ZM34.57499 225.03021Q34.57499 226.32709 33.73124 227.13959Q32.871864 227.93646 31.449987 227.93646L31.262487 227.93646Q30.309362 227.93646 29.574987 227.57709Q28.824987 227.21771 28.418737 226.57709Q27.996862 225.92084 27.996862 225.17084Q27.996862 223.93646 28.809362 223.24896Q29.621862 222.56146 31.137487 222.56146L31.590612 222.56146L31.590612 226.85834Q32.528114 226.82709 33.10624 226.31146Q33.684364 225.78021 33.684364 224.96771Q33.684364 224.40521 33.44999 224.01459Q33.215614 223.60834 32.82499 223.29584L33.340614 222.63959Q34.57499 223.43646 34.57499 225.03021ZM28.887487 225.17084Q28.887487 225.82709 29.371862 226.28021Q29.840612 226.71771 30.699987 226.81146L30.699987 223.63959L30.621862 223.63959Q29.793737 223.68646 29.340612 224.09271Q28.887487 224.48334 28.887487 225.17084ZM30.981237 218.70209Q29.668737 218.70209 28.449987 218.35834Q27.231237 217.99896 26.231237 217.29584Q25.231237 216.59271 24.824987 215.82709L25.543737 215.60834Q26.199987 216.46771 27.543737 217.01459Q28.887487 217.56146 30.559362 217.60834L31.059362 217.62396Q33.32499 217.62396 34.98124 216.79584Q35.98124 216.29584 36.54374 215.60834L37.19999 215.82709Q36.778114 216.60834 35.746864 217.32709Q33.76249 218.70209 30.981237 218.70209ZM34.44999 213.48334L34.44999 214.56146L28.106237 214.56146L28.106237 213.48334L34.44999 213.48334ZM26.434362 214.65521Q26.168737 214.65521 25.981237 214.49896Q25.793737 214.32709 25.793737 214.01459Q25.793737 213.70209 25.981237 213.54584Q26.168737 213.37396 26.434362 213.37396Q26.684362 213.37396 26.871862 213.54584Q27.043737 213.70209 27.043737 214.01459Q27.043737 214.32709 26.871862 214.49896Q26.684362 214.65521 26.434362 214.65521ZM28.106237 210.63959L28.903112 210.60834Q27.996862 209.87396 27.996862 208.70209Q27.996862 206.68646 30.262487 206.67084L34.44999 206.67084L34.44999 207.76459L30.246862 207.76459Q29.574987 207.76459 29.246862 208.07709Q28.918737 208.37396 28.918737 209.03021Q28.918737 209.56146 29.199987 209.96771Q29.481237 210.35834 29.934362 210.57709L34.44999 210.57709L34.44999 211.65521L28.106237 211.65521L28.106237 210.63959ZM33.684364 202.12396Q33.684364 201.54584 33.340614 201.10834Q32.98124 200.67084 32.44999 200.62396L32.44999 199.59271Q32.996864 199.62396 33.496864 199.98334Q33.98124 200.32709 34.278114 200.90521Q34.57499 201.46771 34.57499 202.12396Q34.57499 203.42084 33.715614 204.18646Q32.840614 204.93646 31.340612 204.93646L31.153112 204.93646Q30.231237 204.93646 29.512487 204.60834Q28.793737 204.26459 28.403112 203.63959Q27.996862 202.99896 27.996862 202.12396Q27.996862 201.06146 28.637487 200.35834Q29.262487 199.63959 30.293737 199.59271L30.293737 200.62396Q29.668737 200.67084 29.278112 201.09271Q28.887487 201.51459 28.887487 202.12396Q28.887487 202.95209 29.481237 203.40521Q30.074987 203.85834 31.199987 203.85834L31.403112 203.85834Q32.496864 203.85834 33.090614 203.40521Q33.684364 202.95209 33.684364 202.12396ZM28.871862 197.57709Q27.996862 196.85834 27.996862 195.70209Q27.996862 193.68646 30.262487 193.67084L34.44999 193.67084L34.44999 194.76459L30.246862 194.76459Q29.574987 194.76459 29.246862 195.07709Q28.918737 195.37396 28.918737 196.03021Q28.918737 196.56146 29.199987 196.96771Q29.481237 197.35834 29.934362 197.57709L34.44999 197.57709L34.44999 198.65521L25.449987 198.65521L25.449987 197.57709L28.871862 197.57709ZM34.57499 189.03021Q34.57499 190.32709 33.73124 191.13959Q32.871864 191.93646 31.449987 191.93646L31.262487 191.93646Q30.309362 191.93646 29.574987 191.57709Q28.824987 191.21771 28.418737 190.57709Q27.996862 189.92084 27.996862 189.17084Q27.996862 187.93646 28.809362 187.24896Q29.621862 186.56146 31.137487 186.56146L31.590612 186.56146L31.590612 190.85834Q32.528114 190.82709 33.10624 190.31146Q33.684364 189.78021 33.684364 188.96771Q33.684364 188.40521 33.44999 188.01459Q33.215614 187.60834 32.82499 187.29584L33.340614 186.63959Q34.57499 187.43646 34.57499 189.03021ZM28.887487 189.17084Q28.887487 189.82709 29.371862 190.28021Q29.840612 190.71771 30.699987 190.81146L30.699987 187.63959L30.621862 187.63959Q29.793737 187.68646 29.340612 188.09271Q28.887487 188.48334 28.887487 189.17084ZM32.76249 181.96771Q32.32499 181.96771 32.090614 182.31146Q31.840612 182.63959 31.668737 183.46771Q31.496862 184.28021 31.246862 184.76459Q30.996862 185.24896 30.668737 185.48334Q30.324987 185.70209 29.856237 185.70209Q29.074987 185.70209 28.543737 185.04584Q27.996862 184.38959 27.996862 183.35834Q27.996862 182.28021 28.559362 181.62396Q29.106237 180.95209 29.965612 180.95209L29.965612 182.03021Q29.528112 182.03021 29.215612 182.42084Q28.887487 182.79584 28.887487 183.35834Q28.887487 183.95209 29.153112 184.29584Q29.403112 184.62396 29.809362 184.62396Q30.199987 184.62396 30.403112 184.31146Q30.606237 183.99896 30.793737 183.18646Q30.965612 182.37396 31.215612 181.87396Q31.465612 181.37396 31.824987 181.13959Q32.184364 180.88959 32.684364 180.88959Q33.54374 180.88959 34.059364 181.57709Q34.57499 182.24896 34.57499 183.32709Q34.57499 184.09271 34.309364 184.68646Q34.028114 185.26459 33.54374 185.59271Q33.059364 185.92084 32.496864 185.92084L32.496864 184.84271Q33.04374 184.81146 33.371864 184.40521Q33.684364 183.99896 33.684364 183.32709Q33.684364 182.71771 33.434364 182.34271Q33.184364 181.96771 32.76249 181.96771ZM31.043737 177.15521Q32.35624 177.15521 33.559364 177.49896Q34.746864 177.84271 35.76249 178.56146Q36.778114 179.26459 37.19999 180.03021L36.54374 180.26459Q35.85624 179.35834 34.403114 178.81146Q32.934364 178.26459 31.168737 178.24896L30.981237 178.24896Q29.746862 178.24896 28.684362 178.51459Q27.621862 178.76459 26.793737 179.23334Q25.949987 179.68646 25.481237 180.26459L24.824987 180.03021Q25.246862 179.26459 26.246862 178.56146Q27.246862 177.85834 28.465612 177.51459Q29.668737 177.15521 31.043737 177.15521Z" fill-rule="nonzero"/><path fill="#757575" d="M66.12187 368.45624L67.05937 368.45624Q67.96562 368.4406 68.46562 367.9875Q68.98125 367.53436 68.98125 366.7531Q68.98125 365.0031 67.24687 365.0031Q66.41875 365.0031 65.93437 365.47186Q65.45 365.9406 65.45 366.70624L64.18437 366.70624Q64.18437 365.51874 65.04375 364.7375Q65.91875 363.95624 67.24687 363.95624Q68.65312 363.95624 69.45 364.70624Q70.24687 365.45624 70.24687 366.76874Q70.24687 367.425 69.825 368.03436Q69.41875 368.64374 68.68437 368.9406Q69.5125 369.20624 69.95 369.8156Q70.40312 370.40936 70.40312 371.26874Q70.40312 372.6125 69.52812 373.40936Q68.65312 374.1906 67.24687 374.1906Q65.85625 374.1906 64.96562 373.4406Q64.09062 372.675 64.09062 371.425L65.37187 371.425Q65.37187 372.20624 65.87187 372.6906Q66.3875 373.15936 67.24687 373.15936Q68.16875 373.15936 68.65312 372.675Q69.1375 372.1906 69.1375 371.3Q69.1375 370.4406 68.60625 369.97186Q68.075 369.5031 67.05937 369.4875L66.12187 369.4875L66.12187 368.45624ZM78.5125 369.8Q78.5125 372.01874 77.74687 373.1125Q76.99687 374.1906 75.3875 374.1906Q73.79375 374.1906 73.02812 373.14374Q72.2625 372.08124 72.23125 369.97186L72.23125 368.28436Q72.23125 366.09686 72.98125 365.03436Q73.74687 363.95624 75.37187 363.95624Q76.98125 363.95624 77.73125 364.9875Q78.49687 366.01874 78.5125 368.15936L78.5125 369.8ZM77.24687 368.08124Q77.24687 366.47186 76.79375 365.7375Q76.35625 365.0031 75.37187 365.0031Q74.40312 365.0031 73.95 365.7375Q73.5125 366.45624 73.49687 367.97186L73.49687 370.0031Q73.49687 371.6125 73.96562 372.39374Q74.43437 373.15936 75.3875 373.15936Q76.325 373.15936 76.77812 372.4406Q77.23125 371.70624 77.24687 370.14374L77.24687 368.08124Z" fill-rule="nonzero"/><path fill="#757575" d="M66.12187 293.5479L67.05937 293.5479Q67.96562 293.5323 68.46562 293.07916Q68.98125 292.62604 68.98125 291.8448Q68.98125 290.0948 67.24687 290.0948Q66.41875 290.0948 65.93437 290.56354Q65.45 291.0323 65.45 291.7979L64.18437 291.7979Q64.18437 290.6104 65.04375 289.82916Q65.91875 289.0479 67.24687 289.0479Q68.65312 289.0479 69.45 289.7979Q70.24687 290.5479 70.24687 291.8604Q70.24687 292.51666 69.825 293.12604Q69.41875 293.7354 68.68437 294.0323Q69.5125 294.2979 69.95 294.9073Q70.40312 295.50104 70.40312 296.3604Q70.40312 297.70416 69.52812 298.50104Q68.65312 299.2823 67.24687 299.2823Q65.85625 299.2823 64.96562 298.5323Q64.09062 297.76666 64.09062 296.51666L65.37187 296.51666Q65.37187 297.2979 65.87187 297.7823Q66.3875 298.25104 67.24687 298.25104Q68.16875 298.25104 68.65312 297.76666Q69.1375 297.2823 69.1375 296.39166Q69.1375 295.5323 68.60625 295.06354Q68.075 294.5948 67.05937 294.57916L66.12187 294.57916L66.12187 293.5479ZM72.85625 294.1573L73.37187 289.18854L78.46562 289.18854L78.46562 290.3604L74.43437 290.3604L74.1375 293.06354Q74.87187 292.64166 75.79375 292.64166Q77.15312 292.64166 77.95 293.5479Q78.7625 294.43854 78.7625 295.9698Q78.7625 297.50104 77.91875 298.39166Q77.09062 299.2823 75.60625 299.2823Q74.29375 299.2823 73.45 298.5479Q72.62187 297.81354 72.49687 296.51666L73.7 296.51666Q73.80937 297.37604 74.29375 297.81354Q74.79375 298.25104 75.60625 298.25104Q76.48125 298.25104 76.98125 297.6573Q77.49687 297.0479 77.49687 295.9854Q77.49687 294.9854 76.95 294.39166Q76.40312 293.7823 75.49687 293.7823Q74.68437 293.7823 74.2 294.14166L73.87187 294.4073L72.85625 294.1573Z" fill-rule="nonzero"/><path fill="#757575" d="M69.62187 220.88959L70.99687 220.88959L70.99687 221.92084L69.62187 221.92084L69.62187 224.23334L68.34062 224.23334L68.34062 221.92084L63.809376 221.92084L63.809376 221.17084L68.2625 214.28021L69.62187 214.28021L69.62187 220.88959ZM65.24687 220.88959L68.34062 220.88959L68.34062 216.01459L68.2 216.28021L65.24687 220.88959ZM78.5125 219.98334Q78.5125 222.20209 77.74687 223.29584Q76.99687 224.37396 75.3875 224.37396Q73.79375 224.37396 73.02812 223.32709Q72.2625 222.26459 72.23125 220.15521L72.23125 218.46771Q72.23125 216.28021 72.98125 215.21771Q73.74687 214.13959 75.37187 214.13959Q76.98125 214.13959 77.73125 215.17084Q78.49687 216.20209 78.5125 218.34271L78.5125 219.98334ZM77.24687 218.26459Q77.24687 216.65521 76.79375 215.92084Q76.35625 215.18646 75.37187 215.18646Q74.40312 215.18646 73.95 215.92084Q73.5125 216.63959 73.49687 218.15521L73.49687 220.18646Q73.49687 221.79584 73.96562 222.57709Q74.43437 223.34271 75.3875 223.34271Q76.325 223.34271 76.77812 222.62396Q77.23125 221.88959 77.24687 220.32709L77.24687 218.26459Z" fill-rule="nonzero"/><path fill="#757575" d="M69.62187 145.98125L70.99687 145.98125L70.99687 147.0125L69.62187 147.0125L69.62187 149.325L68.34062 149.325L68.34062 147.0125L63.809376 147.0125L63.809376 146.2625L68.2625 139.37187L69.62187 139.37187L69.62187 145.98125ZM65.24687 145.98125L68.34062 145.98125L68.34062 141.10625L68.2 141.37187L65.24687 145.98125ZM72.85625 144.34062L73.37187 139.37187L78.46562 139.37187L78.46562 140.54375L74.43437 140.54375L74.1375 143.24687Q74.87187 142.825 75.79375 142.825Q77.15312 142.825 77.95 143.73125Q78.7625 144.62187 78.7625 146.15312Q78.7625 147.68437 77.91875 148.575Q77.09062 149.46562 75.60625 149.46562Q74.29375 149.46562 73.45 148.73125Q72.62187 147.99687 72.49687 146.7L73.7 146.7Q73.80937 147.55937 74.29375 147.99687Q74.79375 148.43437 75.60625 148.43437Q76.48125 148.43437 76.98125 147.84062Q77.49687 147.23125 77.49687 146.16875Q77.49687 145.16875 76.95 144.575Q76.40312 143.96562 75.49687 143.96562Q74.68437 143.96562 74.2 144.325L73.87187 144.59062L72.85625 144.34062Z" fill-rule="nonzero"/><path fill="#757575" d="M64.85625 69.43229L65.37187 64.46354L70.46562 64.46354L70.46562 65.635414L66.43437 65.635414L66.1375 68.33854Q66.87187 67.916664 67.79375 67.916664Q69.15312 67.916664 69.95 68.822914Q70.7625 69.71354 70.7625 71.24479Q70.7625 72.77604 69.91875 73.666664Q69.09062 74.55729 67.60625 74.55729Q66.29375 74.55729 65.45 73.822914Q64.62187 73.08854 64.49687 71.791664L65.7 71.791664Q65.80937 72.65104 66.29375 73.08854Q66.79375 73.52604 67.60625 73.52604Q68.48125 73.52604 68.98125 72.93229Q69.49687 72.322914 69.49687 71.260414Q69.49687 70.260414 68.95 69.666664Q68.40312 69.05729 67.49687 69.05729Q66.68437 69.05729 66.2 69.416664L65.87187 69.68229L64.85625 69.43229ZM78.5125 70.166664Q78.5125 72.385414 77.74687 73.479164Q76.99687 74.55729 75.3875 74.55729Q73.79375 74.55729 73.02812 73.510414Q72.2625 72.447914 72.23125 70.33854L72.23125 68.65104Q72.23125 66.46354 72.98125 65.40104Q73.74687 64.322914 75.37187 64.322914Q76.98125 64.322914 77.73125 65.354164Q78.49687 66.385414 78.5125 68.52604L78.5125 70.166664ZM77.24687 68.447914Q77.24687 66.83854 76.79375 66.104164Q76.35625 65.36979 75.37187 65.36979Q74.40312 65.36979 73.95 66.104164Q73.5125 66.822914 73.49687 68.33854L73.49687 70.36979Q73.49687 71.979164 73.96562 72.760414Q74.43437 73.52604 75.3875 73.52604Q76.325 73.52604 76.77812 72.80729Q77.23125 72.072914 77.24687 70.510414L77.24687 68.447914Z" fill-rule="nonzero"/><path fill="#757575" d="M89.5125 385.3Q89.5125 387.51874 88.74687 388.6125Q87.99687 389.6906 86.3875 389.6906Q84.79375 389.6906 84.02812 388.64374Q83.2625 387.58124 83.23125 385.47186L83.23125 383.78436Q83.23125 381.59686 83.98125 380.53436Q84.74687 379.45624 86.37187 379.45624Q87.98125 379.45624 88.73125 380.4875Q89.49687 381.51874 89.5125 383.65936L89.5125 385.3ZM88.24687 383.58124Q88.24687 381.97186 87.79375 381.2375Q87.35625 380.5031 86.37187 380.5031Q85.40312 380.5031 84.95 381.2375Q84.5125 381.95624 84.49687 383.47186L84.49687 385.5031Q84.49687 387.1125 84.96562 387.89374Q85.43437 388.65936 86.3875 388.65936Q87.325 388.65936 87.77812 387.9406Q88.23125 387.20624 88.24687 385.64374L88.24687 383.58124Z" fill-rule="nonzero"/><path fill="#757575" d="M238.13126 384.5656L238.64688 379.59686L243.74063 379.59686L243.74063 380.76874L239.70938 380.76874L239.4125 383.47186Q240.14688 383.05 241.06876 383.05Q242.42813 383.05 243.225 383.95624Q244.0375 384.84686 244.0375 386.3781Q244.0375 387.90936 243.19376 388.8Q242.36563 389.6906 240.88126 389.6906Q239.56876 389.6906 238.725 388.95624Q237.89688 388.22186 237.77188 386.925L238.975 386.925Q239.08438 387.78436 239.56876 388.22186Q240.06876 388.65936 240.88126 388.65936Q241.75626 388.65936 242.25626 388.0656Q242.77188 387.45624 242.77188 386.39374Q242.77188 385.39374 242.225 384.8Q241.67813 384.1906 240.77188 384.1906Q239.95938 384.1906 239.475 384.55L239.14688 384.8156L238.13126 384.5656Z" fill-rule="nonzero"/><path fill="#757575" d="M391.98438 389.55L390.71875 389.55L390.71875 381.1281L388.15625 382.05L388.15625 380.90936L391.78125 379.55L391.98438 379.55L391.98438 389.55ZM402.0625 385.3Q402.0625 387.51874 401.29688 388.6125Q400.54688 389.6906 398.9375 389.6906Q397.34375 389.6906 396.57812 388.64374Q395.8125 387.58124 395.78125 385.47186L395.78125 383.78436Q395.78125 381.59686 396.53125 380.53436Q397.29688 379.45624 398.92188 379.45624Q400.53125 379.45624 401.28125 380.4875Q402.04688 381.51874 402.0625 383.65936L402.0625 385.3ZM400.79688 383.58124Q400.79688 381.97186 400.34375 381.2375Q399.90625 380.5031 398.92188 380.5031Q397.95312 380.5031 397.5 381.2375Q397.0625 381.95624 397.04688 383.47186L397.04688 385.5031Q397.04688 387.1125 397.51562 387.89374Q397.98438 388.65936 398.9375 388.65936Q399.875 388.65936 400.32812 387.9406Q400.78125 387.20624 400.79688 385.64374L400.79688 383.58124Z" fill-rule="nonzero"/><path fill="#757575" d="M546.2594 389.55L544.9938 389.55L544.9938 381.1281L542.4313 382.05L542.4313 380.90936L546.0563 379.55L546.2594 379.55L546.2594 389.55ZM550.6813 384.5656L551.1969 379.59686L556.29065 379.59686L556.29065 380.76874L552.2594 380.76874L551.9625 383.47186Q552.6969 383.05 553.6188 383.05Q554.97815 383.05 555.775 383.95624Q556.5875 384.84686 556.5875 386.3781Q556.5875 387.90936 555.7438 388.8Q554.91565 389.6906 553.4313 389.6906Q552.1188 389.6906 551.275 388.95624Q550.4469 388.22186 550.3219 386.925L551.525 386.925Q551.6344 387.78436 552.1188 388.22186Q552.6188 388.65936 553.4313 388.65936Q554.3063 388.65936 554.8063 388.0656Q555.3219 387.45624 555.3219 386.39374Q555.3219 385.39374 554.775 384.8Q554.22815 384.1906 553.3219 384.1906Q552.5094 384.1906 552.025 384.55L551.6969 384.8156L550.6813 384.5656Z" fill-rule="nonzero"/><path fill="#757575" d="M702.89374 389.55L696.3781 389.55L696.3781 388.64374L699.8156 384.8156Q700.58124 383.9406 700.8781 383.40936Q701.175 382.8625 701.175 382.26874Q701.175 381.5031 700.6906 381.0031Q700.22186 380.5031 699.4406 380.5031Q698.5031 380.5031 697.97186 381.03436Q697.45624 381.5656 697.45624 382.53436L696.1906 382.53436Q696.1906 381.15936 697.0656 380.3156Q697.95624 379.45624 699.4406 379.45624Q700.83124 379.45624 701.6281 380.1906Q702.4406 380.90936 702.4406 382.1281Q702.4406 383.59686 700.5656 385.6281L697.90936 388.51874L702.89374 388.51874L702.89374 389.55ZM710.6125 385.3Q710.6125 387.51874 709.84686 388.6125Q709.09686 389.6906 707.4875 389.6906Q705.89374 389.6906 705.1281 388.64374Q704.3625 387.58124 704.33124 385.47186L704.33124 383.78436Q704.33124 381.59686 705.08124 380.53436Q705.84686 379.45624 707.47186 379.45624Q709.08124 379.45624 709.83124 380.4875Q710.59686 381.51874 710.6125 383.65936L710.6125 385.3ZM709.34686 383.58124Q709.34686 381.97186 708.89374 381.2375Q708.45624 380.5031 707.47186 380.5031Q706.5031 380.5031 706.05 381.2375Q705.6125 381.95624 705.59686 383.47186L705.59686 385.5031Q705.59686 387.1125 706.0656 387.89374Q706.53436 388.65936 707.4875 388.65936Q708.425 388.65936 708.8781 387.9406Q709.33124 387.20624 709.34686 385.64374L709.34686 383.58124Z" fill-rule="nonzero"/><path fill="#757575" d="M320.71875 36.965626L320.98438 38.840626L321.39062 37.153126L324.20312 27.23125L325.78125 27.23125L328.53125 37.153126L328.92188 38.871876L329.21875 36.95L331.4375 27.23125L333.3125 27.23125L329.875 41.45L328.15625 41.45L325.23438 31.090626L325.0 29.996876L324.78125 31.090626L321.75 41.45L320.03125 41.45L316.59375 27.23125L318.46875 27.23125L320.71875 36.965626ZM341.89062 41.45Q341.73438 41.1375 341.64062 40.340626Q340.375 41.653126 338.625 41.653126Q337.0625 41.653126 336.0625 40.7625Q335.0625 39.871876 335.0625 38.5125Q335.0625 36.871876 336.3125 35.965626Q337.57812 35.04375 339.84375 35.04375L341.60938 35.04375L341.60938 34.215626Q341.60938 33.2625 341.03125 32.7Q340.46875 32.1375 339.375 32.1375Q338.40625 32.1375 337.75 32.6375Q337.09375 33.121876 337.09375 33.809376L335.28125 33.809376Q335.28125 33.028126 335.84375 32.29375Q336.40625 31.54375 337.35938 31.121876Q338.32812 30.684376 339.48438 30.684376Q341.3125 30.684376 342.34375 31.60625Q343.375 32.5125 343.42188 34.121876L343.42188 38.98125Q343.42188 40.434376 343.78125 41.29375L343.78125 41.45L341.89062 41.45ZM338.89062 40.075Q339.75 40.075 340.5 39.6375Q341.26562 39.2 341.60938 38.496876L341.60938 36.325L340.1875 36.325Q336.875 36.325 336.875 38.2625Q336.875 39.121876 337.4375 39.60625Q338.0 40.075 338.89062 40.075ZM348.32812 41.45L346.53125 41.45L346.53125 30.8875L348.32812 30.8875L348.32812 41.45ZM346.375 28.075Q346.375 27.6375 346.64062 27.340626Q346.92188 27.028126 347.4375 27.028126Q347.96875 27.028126 348.23438 27.340626Q348.51562 27.6375 348.51562 28.075Q348.51562 28.5125 348.23438 28.809376Q347.96875 29.10625 347.4375 29.10625Q346.92188 29.10625 346.64062 28.809376Q346.375 28.5125 346.375 28.075ZM357.51562 38.653126Q357.51562 37.91875 356.96875 37.5125Q356.42188 37.10625 355.04688 36.809376Q353.67188 36.5125 352.85938 36.10625Q352.0625 35.7 351.67188 35.1375Q351.29688 34.559376 351.29688 33.778126Q351.29688 32.48125 352.39062 31.590626Q353.48438 30.684376 355.20312 30.684376Q357.0 30.684376 358.10938 31.621876Q359.23438 32.54375 359.23438 33.98125L357.40625 33.98125Q357.40625 33.246876 356.78125 32.715626Q356.15625 32.16875 355.20312 32.16875Q354.20312 32.16875 353.64062 32.60625Q353.09375 33.028126 353.09375 33.73125Q353.09375 34.371876 353.60938 34.715626Q354.125 35.04375 355.48438 35.35625Q356.84375 35.653126 357.67188 36.075Q358.51562 36.48125 358.92188 37.075Q359.32812 37.66875 359.32812 38.5125Q359.32812 39.934376 358.1875 40.79375Q357.0625 41.653126 355.25 41.653126Q353.98438 41.653126 353.0 41.2Q352.03125 40.746876 351.46875 39.95Q350.92188 39.1375 350.92188 38.2L352.73438 38.2Q352.78125 39.10625 353.45312 39.6375Q354.14062 40.16875 355.25 40.16875Q356.28125 40.16875 356.89062 39.7625Q357.51562 39.340626 357.51562 38.653126ZM363.8125 28.325L363.8125 30.8875L365.79688 30.8875L365.79688 32.278126L363.8125 32.278126L363.8125 38.825Q363.8125 39.465626 364.07812 39.79375Q364.34375 40.10625 364.98438 40.10625Q365.29688 40.10625 365.84375 39.98125L365.84375 41.45Q365.125 41.653126 364.45312 41.653126Q363.25 41.653126 362.625 40.91875Q362.01562 40.184376 362.01562 38.825L362.01562 32.278126L360.09375 32.278126L360.09375 30.8875L362.01562 30.8875L362.01562 28.325L363.8125 28.325ZM377.84375 35.10625Q375.42188 34.41875 374.32812 33.41875Q373.23438 32.403126 373.23438 30.91875Q373.23438 29.23125 374.57812 28.1375Q375.92188 27.028126 378.0625 27.028126Q379.53125 27.028126 380.67188 27.60625Q381.82812 28.16875 382.45312 29.16875Q383.07812 30.153126 383.07812 31.340626L381.20312 31.340626Q381.20312 30.059376 380.375 29.325Q379.5625 28.575 378.0625 28.575Q376.67188 28.575 375.89062 29.184376Q375.125 29.79375 375.125 30.8875Q375.125 31.746876 375.85938 32.35625Q376.59375 32.95 378.35938 33.45Q380.14062 33.95 381.14062 34.559376Q382.14062 35.153126 382.625 35.95Q383.10938 36.746876 383.10938 37.840626Q383.10938 39.559376 381.76562 40.60625Q380.42188 41.653126 378.15625 41.653126Q376.70312 41.653126 375.42188 41.090626Q374.15625 40.528126 373.46875 39.559376Q372.78125 38.575 372.78125 37.325L374.67188 37.325Q374.67188 38.621876 375.625 39.371876Q376.57812 40.10625 378.15625 40.10625Q379.64062 40.10625 380.4375 39.5125Q381.23438 38.903126 381.23438 37.85625Q381.23438 36.809376 380.5 36.246876Q379.76562 35.66875 377.84375 35.10625ZM387.32812 41.45L385.53125 41.45L385.53125 30.8875L387.32812 30.8875L387.32812 41.45ZM385.375 28.075Q385.375 27.6375 385.64062 27.340626Q385.92188 27.028126 386.4375 27.028126Q386.96875 27.028126 387.23438 27.340626Q387.51562 27.6375 387.51562 28.075Q387.51562 28.5125 387.23438 28.809376Q386.96875 29.10625 386.4375 29.10625Q385.92188 29.10625 385.64062 28.809376Q385.375 28.5125 385.375 28.075ZM392.0625 39.98125L398.25 39.98125L398.25 41.45L389.85938 41.45L389.85938 40.121876L395.6875 32.371876L389.95312 32.371876L389.95312 30.8875L397.95312 30.8875L397.95312 32.16875L392.0625 39.98125ZM404.75 41.653126Q402.60938 41.653126 401.25 40.246876Q399.90625 38.825 399.90625 36.465626L399.90625 36.121876Q399.90625 34.559376 400.5 33.325Q401.10938 32.090626 402.1875 31.3875Q403.26562 30.684376 404.53125 30.684376Q406.59375 30.684376 407.73438 32.04375Q408.875 33.403126 408.875 35.934376L408.875 36.684376L401.71875 36.684376Q401.75 38.246876 402.625 39.215626Q403.5 40.16875 404.84375 40.16875Q405.8125 40.16875 406.46875 39.778126Q407.14062 39.3875 407.64062 38.746876L408.73438 39.60625Q407.40625 41.653126 404.75 41.653126ZM404.53125 32.16875Q403.4375 32.16875 402.6875 32.965626Q401.95312 33.7625 401.78125 35.2L407.0625 35.2L407.0625 35.059376Q406.98438 33.684376 406.3125 32.934376Q405.65625 32.16875 404.53125 32.16875Z" fill-rule="nonzero"/></svg>