<svg version="1.1" viewBox="0.0 0.0 823.0 509.0" fill="none" stroke="none" stroke-linecap="square" stroke-miterlimit="10" width="823" height="509" xmlns:xlink="http://www.w3.org/1999/xlink" xmlns="http://www.w3.org/2000/svg"><path fill="#ffffff" d="M0 0L823.0 0L823.0 509.0L0 509.0L0 0Z" fill-rule="nonzero"/><path fill="#ffffff" d="M0 0L823.0 0L823.0 509.0L0 509.0L0 0Z" fill-rule="nonzero"/><path stroke="#333333" stroke-width="1.0" stroke-linecap="butt" d="M56.5 106.5L56.5 426.5" fill-rule="nonzero"/><path stroke="#cccccc" stroke-width="1.0" stroke-linecap="butt" d="M241.5 106.5L241.5 426.5" fill-rule="nonzero"/><path stroke="#cccccc" stroke-width="1.0" stroke-linecap="butt" d="M426.5 106.5L426.5 426.5" fill-rule="nonzero"/><path stroke="#cccccc" stroke-width="1.0" stroke-linecap="butt" d="M612.5 106.5L612.5 426.5" fill-rule="nonzero"/><path stroke="#cccccc" stroke-width="1.0" stroke-linecap="butt" d="M797.5 106.5L797.5 426.5" fill-rule="nonzero"/><path stroke="#e6e6e6" stroke-width="1.0" stroke-linecap="butt" d="M204.5 106.5L204.5 426.5" fill-rule="nonzero"/><path stroke="#e6e6e6" stroke-width="1.0" stroke-linecap="butt" d="M167.5 106.5L167.5 426.5" fill-rule="nonzero"/><path stroke="#e6e6e6" stroke-width="1.0" stroke-linecap="butt" d="M130.5 106.5L130.5 426.5" fill-rule="nonzero"/><path stroke="#e6e6e6" stroke-width="1.0" stroke-linecap="butt" d="M93.5 106.5L93.5 426.5" fill-rule="nonzero"/><path stroke="#e6e6e6" stroke-width="1.0" stroke-linecap="butt" d="M389.5 106.5L389.5 426.5" fill-rule="nonzero"/><path stroke="#e6e6e6" stroke-width="1.0" stroke-linecap="butt" d="M352.5 106.5L352.5 426.5" fill-rule="nonzero"/><path stroke="#e6e6e6" stroke-width="1.0" stroke-linecap="butt" d="M315.5 106.5L315.5 426.5" fill-rule="nonzero"/><path stroke="#e6e6e6" stroke-width="1.0" stroke-linecap="butt" d="M278.5 106.5L278.5 426.5" fill-rule="nonzero"/><path stroke="#e6e6e6" stroke-width="1.0" stroke-linecap="butt" d="M575.5 106.5L575.5 426.5" fill-rule="nonzero"/><path stroke="#e6e6e6" stroke-width="1.0" stroke-linecap="butt" d="M538.5 106.5L538.5 426.5" fill-rule="nonzero"/><path stroke="#e6e6e6" stroke-width="1.0" stroke-linecap="butt" d="M501.5 106.5L501.5 426.5" fill-rule="nonzero"/><path stroke="#e6e6e6" stroke-width="1.0" stroke-linecap="butt" d="M464.5 106.5L464.5 426.5" fill-rule="nonzero"/><path stroke="#e6e6e6" stroke-width="1.0" stroke-linecap="butt" d="M760.5 106.5L760.5 426.5" fill-rule="nonzero"/><path stroke="#e6e6e6" stroke-width="1.0" stroke-linecap="butt" d="M723.5 106.5L723.5 426.5" fill-rule="nonzero"/><path stroke="#e6e6e6" stroke-width="1.0" stroke-linecap="butt" d="M686.5 106.5L686.5 426.5" fill-rule="nonzero"/><path stroke="#e6e6e6" stroke-width="1.0" stroke-linecap="butt" d="M649.5 106.5L649.5 426.5" fill-rule="nonzero"/><path stroke="#cccccc" stroke-width="1.0" stroke-linecap="butt" d="M56.5 426.5L797.5 426.5" fill-rule="nonzero"/><path stroke="#cccccc" stroke-width="1.0" stroke-linecap="butt" d="M56.5 319.5L797.5 319.5" fill-rule="nonzero"/><path stroke="#cccccc" stroke-width="1.0" stroke-linecap="butt" d="M56.5 213.5L797.5 213.5" fill-rule="nonzero"/><path stroke="#cccccc" stroke-width="1.0" stroke-linecap="butt" d="M56.5 106.5L797.5 106.5" fill-rule="nonzero"/><path stroke="#e6e6e6" stroke-width="1.0" stroke-linecap="butt" d="M56.5 341.5L797.5 341.5" fill-rule="nonzero"/><path stroke="#e6e6e6" stroke-width="1.0" stroke-linecap="butt" d="M56.5 362.5L797.5 362.5" fill-rule="nonzero"/><path stroke="#e6e6e6" stroke-width="1.0" stroke-linecap="butt" d="M56.5 383.5L797.5 383.5" fill-rule="nonzero"/><path stroke="#e6e6e6" stroke-width="1.0" stroke-linecap="butt" d="M56.5 405.5L797.5 405.5" fill-rule="nonzero"/><path stroke="#e6e6e6" stroke-width="1.0" stroke-linecap="butt" d="M56.5 234.5L797.5 234.5" fill-rule="nonzero"/><path stroke="#e6e6e6" stroke-width="1.0" stroke-linecap="butt" d="M56.5 256.5L797.5 256.5" fill-rule="nonzero"/><path stroke="#e6e6e6" stroke-width="1.0" stroke-linecap="butt" d="M56.5 277.5L797.5 277.5" fill-rule="nonzero"/><path stroke="#e6e6e6" stroke-width="1.0" stroke-linecap="butt" d="M56.5 298.5L797.5 298.5" fill-rule="nonzero"/><path stroke="#e6e6e6" stroke-width="1.0" stroke-linecap="butt" d="M56.5 128.5L797.5 128.5" fill-rule="nonzero"/><path stroke="#e6e6e6" stroke-width="1.0" stroke-linecap="butt" d="M56.5 149.5L797.5 149.5" fill-rule="nonzero"/><path stroke="#e6e6e6" stroke-width="1.0" stroke-linecap="butt" d="M56.5 170.5L797.5 170.5" fill-rule="nonzero"/><path stroke="#e6e6e6" stroke-width="1.0" stroke-linecap="butt" d="M56.5 192.5L797.5 192.5" fill-rule="nonzero"/><clipPath id="id_0"><path d="M56.45 106.88333L797.55 106.88333L797.55 426.55L56.45 426.55L56.45 106.88333Z" clip-rule="nonzero"/></clipPath><path stroke="#4285f4" stroke-width="1.0" stroke-linecap="butt" stroke-dasharray="6.0,5.0" clip-path="url(#id_0)" d="M56.45 144.17778C56.45 144.17778 81.153336 151.28148 93.505 154.83333C105.85667 158.38518 118.208336 161.93704 130.56 165.48889C142.91167 169.04074 155.26334 172.59259 167.615 176.14444C179.96666 179.69629 192.31833 183.24815 204.67 186.8C217.02167 190.35185 229.37334 193.9037 241.725 197.45555C254.07666 201.0074 266.42834 204.55927 278.78 208.11111C291.13165 211.66296 303.48334 215.21481 315.835 218.76666C328.18668 222.31851 340.53833 225.87038 352.89 229.42223C365.24167 232.97408 377.59332 236.52592 389.945 240.07777C402.29666 243.62962 414.64835 247.18149 427.0 250.73334C439.35165 254.28519 451.70334 257.83704 464.055 261.3889C476.40668 264.94073 488.75833 268.49258 501.11 272.04443C513.4617 275.59628 525.81335 279.14816 538.165 282.7C550.51666 286.25186 562.86835 289.8037 575.22 293.35556C587.57166 296.9074 599.92334 300.45926 612.275 304.0111C624.62665 307.56296 636.97833 311.1148 649.33 314.66666C661.68164 318.2185 674.0333 321.77036 686.385 325.32224C698.7367 328.87408 711.0883 332.42593 723.44 335.97778C735.7917 339.52963 748.1433 343.08148 760.495 346.63333C772.8467 350.18518 797.55 357.28888 797.55 357.28888" fill-rule="nonzero"/><path stroke="#db4437" stroke-width="2.0" stroke-linecap="butt" clip-path="url(#id_0)" d="M56.45 144.17778C56.45 144.17778 81.153336 157.49722 93.505 160.16112C105.85667 162.825 130.56 160.16112 130.56 160.16112" fill-rule="nonzero"/><path fill="#db4437" clip-path="url(#id_0)" d="M56.45 139.67778L60.95 144.17778L56.45 148.67778L51.95 144.17778Z" fill-rule="nonzero"/><path fill="#db4437" clip-path="url(#id_0)" d="M93.505 155.66112L98.005 160.16112L93.505 164.66112L89.005 160.16112Z" fill-rule="nonzero"/><path fill="#db4437" clip-path="url(#id_0)" d="M130.56 155.66112L135.06 160.16112L130.56 164.66112L126.06 160.16112Z" fill-rule="nonzero"/><path fill="#424242" d="M415.32812 477.8625L415.5 478.9875L415.73438 477.97186L417.42188 472.01874L418.375 472.01874L420.01562 477.97186L420.25 479.0031L420.4375 477.84686L421.76562 472.01874L422.89062 472.01874L420.82812 480.55L419.79688 480.55L418.03125 474.33124L417.90625 473.675L417.76562 474.33124L415.95312 480.55L414.92188 480.55L412.85938 472.01874L413.98438 472.01874L415.32812 477.8625ZM426.95312 480.675Q425.65625 480.675 424.84375 479.83124Q424.04688 478.97186 424.04688 477.55L424.04688 477.3625Q424.04688 476.40936 424.40625 475.675Q424.76562 474.925 425.40625 474.51874Q426.0625 474.09686 426.8125 474.09686Q428.04688 474.09686 428.73438 474.90936Q429.42188 475.72186 429.42188 477.2375L429.42188 477.6906L425.125 477.6906Q425.15625 478.6281 425.67188 479.20624Q426.20312 479.78436 427.01562 479.78436Q427.57812 479.78436 427.96875 479.55Q428.375 479.3156 428.6875 478.925L429.34375 479.4406Q428.54688 480.675 426.95312 480.675ZM426.8125 474.9875Q426.15625 474.9875 425.70312 475.47186Q425.26562 475.9406 425.17188 476.8L428.34375 476.8L428.34375 476.72186Q428.29688 475.89374 427.89062 475.4406Q427.5 474.9875 426.8125 474.9875ZM432.95312 480.675Q431.65625 480.675 430.84375 479.83124Q430.04688 478.97186 430.04688 477.55L430.04688 477.3625Q430.04688 476.40936 430.40625 475.675Q430.76562 474.925 431.40625 474.51874Q432.0625 474.09686 432.8125 474.09686Q434.04688 474.09686 434.73438 474.90936Q435.42188 475.72186 435.42188 477.2375L435.42188 477.6906L431.125 477.6906Q431.15625 478.6281 431.67188 479.20624Q432.20312 479.78436 433.01562 479.78436Q433.57812 479.78436 433.96875 479.55Q434.375 479.3156 434.6875 478.925L435.34375 479.4406Q434.54688 480.675 432.95312 480.675ZM432.8125 474.9875Q432.15625 474.9875 431.70312 475.47186Q431.26562 475.9406 431.17188 476.8L434.34375 476.8L434.34375 476.72186Q434.29688 475.89374 433.89062 475.4406Q433.5 474.9875 432.8125 474.9875ZM438.09375 477.6125L437.40625 478.3156L437.40625 480.55L436.32812 480.55L436.32812 471.55L437.40625 471.55L437.40625 476.9875L437.98438 476.3L439.96875 474.20624L441.28125 474.20624L438.8125 476.8625L441.57812 480.55L440.29688 480.55L438.09375 477.6125Z" fill-rule="nonzero"/><path fill="#757575" d="M32.79375 431.05L26.278126 431.05L26.278126 430.14374L29.715626 426.3156Q30.48125 425.4406 30.778126 424.90936Q31.075 424.3625 31.075 423.76874Q31.075 423.0031 30.590626 422.5031Q30.121876 422.0031 29.340626 422.0031Q28.403126 422.0031 27.871876 422.53436Q27.35625 423.0656 27.35625 424.03436L26.090626 424.03436Q26.090626 422.65936 26.965626 421.8156Q27.85625 420.95624 29.340626 420.95624Q30.73125 420.95624 31.528126 421.6906Q32.340626 422.40936 32.340626 423.6281Q32.340626 425.09686 30.465626 427.1281L27.809376 430.01874L32.79375 430.01874L32.79375 431.05ZM40.5125 426.8Q40.5125 429.01874 39.746876 430.1125Q38.996876 431.1906 37.3875 431.1906Q35.79375 431.1906 35.028126 430.14374Q34.2625 429.08124 34.23125 426.97186L34.23125 425.28436Q34.23125 423.09686 34.98125 422.03436Q35.746876 420.95624 37.371876 420.95624Q38.98125 420.95624 39.73125 421.9875Q40.496876 423.01874 40.5125 425.15936L40.5125 426.8ZM39.246876 425.08124Q39.246876 423.47186 38.79375 422.7375Q38.35625 422.0031 37.371876 422.0031Q36.403126 422.0031 35.95 422.7375Q35.5125 423.45624 35.496876 424.97186L35.496876 427.0031Q35.496876 428.6125 35.965626 429.39374Q36.434376 430.15936 37.3875 430.15936Q38.325 430.15936 38.778126 429.4406Q39.23125 428.70624 39.246876 427.14374L39.246876 425.08124ZM48.5125 426.8Q48.5125 429.01874 47.746876 430.1125Q46.996876 431.1906 45.3875 431.1906Q43.79375 431.1906 43.028126 430.14374Q42.2625 429.08124 42.23125 426.97186L42.23125 425.28436Q42.23125 423.09686 42.98125 422.03436Q43.746876 420.95624 45.371876 420.95624Q46.98125 420.95624 47.73125 421.9875Q48.496876 423.01874 48.5125 425.15936L48.5125 426.8ZM47.246876 425.08124Q47.246876 423.47186 46.79375 422.7375Q46.35625 422.0031 45.371876 422.0031Q44.403126 422.0031 43.95 422.7375Q43.5125 423.45624 43.496876 424.97186L43.496876 427.0031Q43.496876 428.6125 43.965626 429.39374Q44.434376 430.15936 45.3875 430.15936Q46.325 430.15936 46.778126 429.4406Q47.23125 428.70624 47.246876 427.14374L47.246876 425.08124Z" fill-rule="nonzero"/><path fill="#757575" d="M32.79375 324.49445L26.278126 324.49445L26.278126 323.5882L29.715626 319.76007Q30.48125 318.88507 30.778126 318.35382Q31.075 317.80695 31.075 317.2132Q31.075 316.44757 30.590626 315.94757Q30.121876 315.44757 29.340626 315.44757Q28.403126 315.44757 27.871876 315.97882Q27.35625 316.51007 27.35625 317.47882L26.090626 317.47882Q26.090626 316.10382 26.965626 315.26007Q27.85625 314.4007 29.340626 314.4007Q30.73125 314.4007 31.528126 315.13507Q32.340626 315.85382 32.340626 317.07257Q32.340626 318.54132 30.465626 320.57257L27.809376 323.4632L32.79375 323.4632L32.79375 324.49445ZM40.79375 324.49445L34.278126 324.49445L34.278126 323.5882L37.715626 319.76007Q38.48125 318.88507 38.778126 318.35382Q39.075 317.80695 39.075 317.2132Q39.075 316.44757 38.590626 315.94757Q38.121876 315.44757 37.340626 315.44757Q36.403126 315.44757 35.871876 315.97882Q35.35625 316.51007 35.35625 317.47882L34.090626 317.47882Q34.090626 316.10382 34.965626 315.26007Q35.85625 314.4007 37.340626 314.4007Q38.73125 314.4007 39.528126 315.13507Q40.340626 315.85382 40.340626 317.07257Q40.340626 318.54132 38.465626 320.57257L35.809376 323.4632L40.79375 323.4632L40.79375 324.49445ZM48.5125 320.24445Q48.5125 322.4632 47.746876 323.55695Q46.996876 324.63507 45.3875 324.63507Q43.79375 324.63507 43.028126 323.5882Q42.2625 322.5257 42.23125 320.41632L42.23125 318.72882Q42.23125 316.54132 42.98125 315.47882Q43.746876 314.4007 45.371876 314.4007Q46.98125 314.4007 47.73125 315.43195Q48.496876 316.4632 48.5125 318.60382L48.5125 320.24445ZM47.246876 318.5257Q47.246876 316.91632 46.79375 316.18195Q46.35625 315.44757 45.371876 315.44757Q44.403126 315.44757 43.95 316.18195Q43.5125 316.9007 43.496876 318.41632L43.496876 320.44757Q43.496876 322.05695 43.965626 322.8382Q44.434376 323.60382 45.3875 323.60382Q46.325 323.60382 46.778126 322.88507Q47.23125 322.1507 47.246876 320.5882L47.246876 318.5257Z" fill-rule="nonzero"/><path fill="#757575" d="M32.79375 217.93889L26.278126 217.93889L26.278126 217.03264L29.715626 213.20451Q30.48125 212.32951 30.778126 211.79826Q31.075 211.25139 31.075 210.65764Q31.075 209.89201 30.590626 209.39201Q30.121876 208.89201 29.340626 208.89201Q28.403126 208.89201 27.871876 209.42326Q27.35625 209.95451 27.35625 210.92326L26.090626 210.92326Q26.090626 209.54826 26.965626 208.70451Q27.85625 207.84514 29.340626 207.84514Q30.73125 207.84514 31.528126 208.57951Q32.340626 209.29826 32.340626 210.51701Q32.340626 211.98576 30.465626 214.01701L27.809376 216.90764L32.79375 216.90764L32.79375 217.93889ZM39.621876 214.59514L40.996876 214.59514L40.996876 215.62639L39.621876 215.62639L39.621876 217.93889L38.340626 217.93889L38.340626 215.62639L33.809376 215.62639L33.809376 214.87639L38.2625 207.98576L39.621876 207.98576L39.621876 214.59514ZM35.246876 214.59514L38.340626 214.59514L38.340626 209.72014L38.2 209.98576L35.246876 214.59514ZM48.5125 213.68889Q48.5125 215.90764 47.746876 217.00139Q46.996876 218.07951 45.3875 218.07951Q43.79375 218.07951 43.028126 217.03264Q42.2625 215.97014 42.23125 213.86076L42.23125 212.17326Q42.23125 209.98576 42.98125 208.92326Q43.746876 207.84514 45.371876 207.84514Q46.98125 207.84514 47.73125 208.87639Q48.496876 209.90764 48.5125 212.04826L48.5125 213.68889ZM47.246876 211.97014Q47.246876 210.36076 46.79375 209.62639Q46.35625 208.89201 45.371876 208.89201Q44.403126 208.89201 43.95 209.62639Q43.5125 210.34514 43.496876 211.86076L43.496876 213.89201Q43.496876 215.50139 43.965626 216.28264Q44.434376 217.04826 45.3875 217.04826Q46.325 217.04826 46.778126 216.32951Q47.23125 215.59514 47.246876 214.03264L47.246876 211.97014Z" fill-rule="nonzero"/><path fill="#757575" d="M32.79375 111.38333L26.278126 111.38333L26.278126 110.47708L29.715626 106.64896Q30.48125 105.77396 30.778126 105.24271Q31.075 104.69583 31.075 104.10208Q31.075 103.33646 30.590626 102.83646Q30.121876 102.33646 29.340626 102.33646Q28.403126 102.33646 27.871876 102.86771Q27.35625 103.39896 27.35625 104.36771L26.090626 104.36771Q26.090626 102.99271 26.965626 102.14896Q27.85625 101.28958 29.340626 101.28958Q30.73125 101.28958 31.528126 102.02396Q32.340626 102.74271 32.340626 103.96146Q32.340626 105.43021 30.465626 107.46146L27.809376 110.35208L32.79375 110.35208L32.79375 111.38333ZM39.246876 101.43021L39.246876 102.49271L39.0125 102.49271Q37.528126 102.52396 36.653126 103.36771Q35.778126 104.21146 35.6375 105.75833Q36.434376 104.85208 37.79375 104.85208Q39.090626 104.85208 39.85625 105.77396Q40.6375 106.68021 40.6375 108.13333Q40.6375 109.68021 39.79375 110.60208Q38.965626 111.52396 37.559376 111.52396Q36.1375 111.52396 35.246876 110.43021Q34.35625 109.32083 34.35625 107.60208L34.35625 107.11771Q34.35625 104.36771 35.528126 102.91458Q36.7 101.46146 39.0125 101.43021L39.246876 101.43021ZM37.575 105.91458Q36.934376 105.91458 36.3875 106.30521Q35.840626 106.68021 35.621876 107.27396L35.621876 107.74271Q35.621876 108.97708 36.16875 109.72708Q36.73125 110.47708 37.559376 110.47708Q38.41875 110.47708 38.903126 109.85208Q39.3875 109.21146 39.3875 108.19583Q39.3875 107.16458 38.8875 106.53958Q38.403126 105.91458 37.575 105.91458ZM48.5125 107.13333Q48.5125 109.35208 47.746876 110.44583Q46.996876 111.52396 45.3875 111.52396Q43.79375 111.52396 43.028126 110.47708Q42.2625 109.41458 42.23125 107.30521L42.23125 105.61771Q42.23125 103.43021 42.98125 102.36771Q43.746876 101.28958 45.371876 101.28958Q46.98125 101.28958 47.73125 102.32083Q48.496876 103.35208 48.5125 105.49271L48.5125 107.13333ZM47.246876 105.41458Q47.246876 103.80521 46.79375 103.07083Q46.35625 102.33646 45.371876 102.33646Q44.403126 102.33646 43.95 103.07083Q43.5125 103.78958 43.496876 105.30521L43.496876 107.33646Q43.496876 108.94583 43.965626 109.72708Q44.434376 110.49271 45.3875 110.49271Q46.325 110.49271 46.778126 109.77396Q47.23125 109.03958 47.246876 107.47708L47.246876 105.41458Z" fill-rule="nonzero"/><path fill="#757575" d="M59.5125 442.3Q59.5125 444.51874 58.746876 445.6125Q57.996876 446.6906 56.3875 446.6906Q54.79375 446.6906 54.028126 445.64374Q53.2625 444.58124 53.23125 442.47186L53.23125 440.78436Q53.23125 438.59686 53.98125 437.53436Q54.746876 436.45624 56.371876 436.45624Q57.98125 436.45624 58.73125 437.4875Q59.496876 438.51874 59.5125 440.65936L59.5125 442.3ZM58.246876 440.58124Q58.246876 438.97186 57.79375 438.2375Q57.35625 437.5031 56.371876 437.5031Q55.403126 437.5031 54.95 438.2375Q54.5125 438.95624 54.496876 440.47186L54.496876 442.5031Q54.496876 444.1125 54.965626 444.89374Q55.434376 445.65936 56.3875 445.65936Q57.325 445.65936 57.778126 444.9406Q58.23125 444.20624 58.246876 442.64374L58.246876 440.58124Z" fill-rule="nonzero"/><path fill="#757575" d="M239.13126 441.5656L239.64688 436.59686L244.74063 436.59686L244.74063 437.76874L240.70938 437.76874L240.4125 440.47186Q241.14688 440.05 242.06876 440.05Q243.42813 440.05 244.225 440.95624Q245.0375 441.84686 245.0375 443.3781Q245.0375 444.90936 244.19376 445.8Q243.36563 446.6906 241.88126 446.6906Q240.56876 446.6906 239.725 445.95624Q238.89688 445.22186 238.77188 443.925L239.975 443.925Q240.08438 444.78436 240.56876 445.22186Q241.06876 445.65936 241.88126 445.65936Q242.75626 445.65936 243.25626 445.0656Q243.77188 444.45624 243.77188 443.39374Q243.77188 442.39374 243.225 441.8Q242.67813 441.1906 241.77188 441.1906Q240.95938 441.1906 240.475 441.55L240.14688 441.8156L239.13126 441.5656Z" fill-rule="nonzero"/><path fill="#757575" d="M423.98438 446.55L422.71875 446.55L422.71875 438.1281L420.15625 439.05L420.15625 437.90936L423.78125 436.55L423.98438 436.55L423.98438 446.55ZM434.0625 442.3Q434.0625 444.51874 433.29688 445.6125Q432.54688 446.6906 430.9375 446.6906Q429.34375 446.6906 428.57812 445.64374Q427.8125 444.58124 427.78125 442.47186L427.78125 440.78436Q427.78125 438.59686 428.53125 437.53436Q429.29688 436.45624 430.92188 436.45624Q432.53125 436.45624 433.28125 437.4875Q434.04688 438.51874 434.0625 440.65936L434.0625 442.3ZM432.79688 440.58124Q432.79688 438.97186 432.34375 438.2375Q431.90625 437.5031 430.92188 437.5031Q429.95312 437.5031 429.5 438.2375Q429.0625 438.95624 429.04688 440.47186L429.04688 442.5031Q429.04688 444.1125 429.51562 444.89374Q429.98438 445.65936 430.9375 445.65936Q431.875 445.65936 432.32812 444.9406Q432.78125 444.20624 432.79688 442.64374L432.79688 440.58124Z" fill-rule="nonzero"/><path fill="#757575" d="M609.2594 446.55L607.9938 446.55L607.9938 438.1281L605.4313 439.05L605.4313 437.90936L609.0563 436.55L609.2594 436.55L609.2594 446.55ZM613.6813 441.5656L614.1969 436.59686L619.29065 436.59686L619.29065 437.76874L615.2594 437.76874L614.9625 440.47186Q615.6969 440.05 616.6188 440.05Q617.97815 440.05 618.775 440.95624Q619.5875 441.84686 619.5875 443.3781Q619.5875 444.90936 618.7438 445.8Q617.91565 446.6906 616.4313 446.6906Q615.1188 446.6906 614.275 445.95624Q613.4469 445.22186 613.3219 443.925L614.525 443.925Q614.6344 444.78436 615.1188 445.22186Q615.6188 445.65936 616.4313 445.65936Q617.3063 445.65936 617.8063 445.0656Q618.3219 444.45624 618.3219 443.39374Q618.3219 442.39374 617.775 441.8Q617.22815 441.1906 616.3219 441.1906Q615.5094 441.1906 615.025 441.55L614.6969 441.8156L613.6813 441.5656Z" fill-rule="nonzero"/><path fill="#757575" d="M796.89374 446.55L790.3781 446.55L790.3781 445.64374L793.8156 441.8156Q794.58124 440.9406 794.8781 440.40936Q795.175 439.8625 795.175 439.26874Q795.175 438.5031 794.6906 438.0031Q794.22186 437.5031 793.4406 437.5031Q792.5031 437.5031 791.97186 438.03436Q791.45624 438.5656 791.45624 439.53436L790.1906 439.53436Q790.1906 438.15936 791.0656 437.3156Q791.95624 436.45624 793.4406 436.45624Q794.83124 436.45624 795.6281 437.1906Q796.4406 437.90936 796.4406 439.1281Q796.4406 440.59686 794.5656 442.6281L791.90936 445.51874L796.89374 445.51874L796.89374 446.55ZM804.6125 442.3Q804.6125 444.51874 803.84686 445.6125Q803.09686 446.6906 801.4875 446.6906Q799.89374 446.6906 799.1281 445.64374Q798.3625 444.58124 798.33124 442.47186L798.33124 440.78436Q798.33124 438.59686 799.08124 437.53436Q799.84686 436.45624 801.47186 436.45624Q803.08124 436.45624 803.83124 437.4875Q804.59686 438.51874 804.6125 440.65936L804.6125 442.3ZM803.34686 440.58124Q803.34686 438.97186 802.89374 438.2375Q802.45624 437.5031 801.47186 437.5031Q800.5031 437.5031 800.05 438.2375Q799.6125 438.95624 799.59686 440.47186L799.59686 442.5031Q799.59686 444.1125 800.0656 444.89374Q800.53436 445.65936 801.4875 445.65936Q802.425 445.65936 802.8781 444.9406Q803.33124 444.20624 803.34686 442.64374L803.34686 440.58124Z" fill-rule="nonzero"/><path stroke="#4285f4" stroke-width="4.0" stroke-linecap="butt" stroke-dasharray="13.0,9.0" d="M302.0 73.916664L337.0 73.916664" fill-rule="nonzero"/><path fill="#757575" d="M352.51562 77.33854Q352.03125 77.90104 351.15625 78.229164Q350.29688 78.541664 349.25 78.541664Q348.14062 78.541664 347.29688 78.05729Q346.46875 77.572914 346.01562 76.65104Q345.5625 75.729164 345.54688 74.479164L345.54688 73.90104Q345.54688 72.61979 345.96875 71.697914Q346.40625 70.760414 347.21875 70.260414Q348.03125 69.760414 349.125 69.760414Q350.64062 69.760414 351.5 70.49479Q352.35938 71.21354 352.51562 72.604164L350.79688 72.604164Q350.6875 71.86979 350.28125 71.52604Q349.875 71.18229 349.17188 71.18229Q348.28125 71.18229 347.8125 71.854164Q347.34375 72.52604 347.34375 73.86979L347.34375 74.40104Q347.34375 75.74479 347.84375 76.43229Q348.35938 77.11979 349.34375 77.11979Q350.32812 77.11979 350.75 76.697914L350.75 75.229164L349.15625 75.229164L349.15625 73.93229L352.51562 73.93229L352.51562 77.33854ZM353.39062 75.18229Q353.39062 74.24479 353.75 73.510414Q354.10938 72.760414 354.79688 72.36979Q355.48438 71.96354 356.375 71.96354Q357.67188 71.96354 358.46875 72.74479Q359.28125 73.52604 359.375 74.86979L359.39062 75.30729Q359.39062 76.77604 358.57812 77.666664Q357.76562 78.541664 356.39062 78.541664Q355.01562 78.541664 354.20312 77.666664Q353.39062 76.77604 353.39062 75.260414L353.39062 75.18229ZM355.07812 75.30729Q355.07812 76.21354 355.42188 76.697914Q355.76562 77.166664 356.39062 77.166664Q357.01562 77.166664 357.35938 76.697914Q357.70312 76.229164 357.70312 75.18229Q357.70312 74.30729 357.35938 73.822914Q357.01562 73.322914 356.375 73.322914Q355.76562 73.322914 355.42188 73.80729Q355.07812 74.291664 355.07812 75.30729ZM364.32812 78.416664Q364.20312 78.18229 364.15625 77.854164Q363.54688 78.541664 362.5625 78.541664Q361.625 78.541664 361.01562 77.99479Q360.40625 77.447914 360.40625 76.635414Q360.40625 75.61979 361.14062 75.08854Q361.89062 74.541664 363.3125 74.541664L364.07812 74.541664L364.07812 74.18229Q364.07812 73.74479 363.85938 73.479164Q363.64062 73.21354 363.14062 73.21354Q362.71875 73.21354 362.46875 73.416664Q362.23438 73.61979 362.23438 73.979164L360.54688 73.979164Q360.54688 73.43229 360.875 72.96354Q361.21875 72.49479 361.84375 72.229164Q362.46875 71.96354 363.23438 71.96354Q364.40625 71.96354 365.09375 72.55729Q365.78125 73.135414 365.78125 74.197914L365.78125 76.947914Q365.79688 77.854164 366.03125 78.322914L366.03125 78.416664L364.32812 78.416664ZM362.92188 77.24479Q363.29688 77.24479 363.60938 77.072914Q363.9375 76.90104 364.07812 76.61979L364.07812 75.52604L363.45312 75.52604Q362.1875 75.52604 362.09375 76.416664L362.09375 76.510414Q362.09375 76.822914 362.3125 77.041664Q362.53125 77.24479 362.92188 77.24479ZM368.4375 78.416664L366.73438 78.416664L366.73438 69.416664L368.4375 69.416664L368.4375 78.416664ZM379.40625 75.947914L380.5625 69.885414L382.3125 69.885414L380.42188 78.416664L378.64062 78.416664L377.25 72.71354L375.875 78.416664L374.09375 78.416664L372.20312 69.885414L373.95312 69.885414L375.10938 75.947914L376.51562 69.885414L378.0 69.885414L379.40625 75.947914ZM386.5625 78.541664Q385.17188 78.541664 384.29688 77.68229Q383.42188 76.822914 383.42188 75.40104L383.42188 75.229164Q383.42188 74.27604 383.78125 73.52604Q384.15625 72.77604 384.82812 72.36979Q385.51562 71.96354 386.375 71.96354Q387.6875 71.96354 388.42188 72.791664Q389.17188 73.604164 389.17188 75.104164L389.17188 75.791664L385.14062 75.791664Q385.21875 76.416664 385.625 76.791664Q386.04688 77.166664 386.6875 77.166664Q387.65625 77.166664 388.20312 76.46354L389.04688 77.385414Q388.65625 77.93229 388.0 78.24479Q387.35938 78.541664 386.5625 78.541664ZM386.375 73.322914Q385.875 73.322914 385.5625 73.666664Q385.25 74.010414 385.15625 74.635414L387.51562 74.635414L387.51562 74.510414Q387.5 73.947914 387.20312 73.635414Q386.92188 73.322914 386.375 73.322914ZM391.4375 78.416664L389.73438 78.416664L389.73438 72.072914L391.4375 72.072914L391.4375 78.416664ZM389.64062 70.43229Q389.64062 70.05729 389.89062 69.80729Q390.15625 69.55729 390.59375 69.55729Q391.01562 69.55729 391.26562 69.80729Q391.53125 70.05729 391.53125 70.43229Q391.53125 70.822914 391.26562 71.072914Q391.01562 71.30729 390.57812 71.30729Q390.15625 71.30729 389.89062 71.072914Q389.64062 70.822914 389.64062 70.43229ZM392.40625 75.197914Q392.40625 73.74479 393.09375 72.854164Q393.79688 71.96354 394.96875 71.96354Q396.01562 71.96354 396.59375 72.666664L396.67188 72.072914L398.20312 72.072914L398.20312 78.197914Q398.20312 79.041664 397.8125 79.65104Q397.4375 80.27604 396.75 80.58854Q396.07812 80.916664 395.15625 80.916664Q394.45312 80.916664 393.78125 80.635414Q393.125 80.354164 392.79688 79.916664L393.54688 78.885414Q394.17188 79.58854 395.07812 79.58854Q395.75 79.58854 396.125 79.229164Q396.5 78.86979 396.5 78.21354L396.5 77.86979Q395.92188 78.541664 394.95312 78.541664Q393.8125 78.541664 393.10938 77.65104Q392.40625 76.74479 392.40625 75.27604L392.40625 75.197914ZM394.09375 75.322914Q394.09375 76.18229 394.4375 76.68229Q394.79688 77.166664 395.39062 77.166664Q396.17188 77.166664 396.5 76.58854L396.5 73.916664Q396.15625 73.33854 395.40625 73.33854Q394.79688 73.33854 394.4375 73.83854Q394.09375 74.33854 394.09375 75.322914ZM401.29688 72.760414Q401.98438 71.96354 403.0 71.96354Q405.0625 71.96354 405.09375 74.354164L405.09375 78.416664L403.39062 78.416664L403.39062 74.40104Q403.39062 73.854164 403.15625 73.604164Q402.92188 73.33854 402.375 73.33854Q401.64062 73.33854 401.29688 73.916664L401.29688 78.416664L399.60938 78.416664L399.60938 69.416664L401.29688 69.416664L401.29688 72.760414ZM408.67188 70.510414L408.67188 72.072914L409.76562 72.072914L409.76562 73.322914L408.67188 73.322914L408.67188 76.479164Q408.67188 76.83854 408.8125 76.99479Q408.95312 77.135414 409.32812 77.135414Q409.60938 77.135414 409.82812 77.104164L409.82812 78.385414Q409.32812 78.541664 408.79688 78.541664Q407.01562 78.541664 406.98438 76.729164L406.98438 73.322914L406.0625 73.322914L406.0625 72.072914L406.98438 72.072914L406.98438 70.510414L408.67188 70.510414Z" fill-rule="nonzero"/><path fill="#db4437" d="M432.0 67.916664L438.0 73.916664L432.0 79.916664L426.0 73.916664Z" fill-rule="nonzero"/><path fill="#757575" d="M451.57812 76.65104L448.5 76.65104L447.90625 78.416664L446.04688 78.416664L449.21875 69.885414L450.84375 69.885414L454.04688 78.416664L452.17188 78.416664L451.57812 76.65104ZM448.96875 75.229164L451.10938 75.229164L450.03125 72.041664L448.96875 75.229164ZM457.28125 77.166664Q457.75 77.166664 458.04688 76.916664Q458.34375 76.65104 458.35938 76.229164L459.9375 76.229164Q459.9375 76.86979 459.59375 77.416664Q459.25 77.947914 458.64062 78.24479Q458.04688 78.541664 457.3125 78.541664Q455.95312 78.541664 455.17188 77.68229Q454.39062 76.80729 454.39062 75.27604L454.39062 75.166664Q454.39062 73.697914 455.17188 72.83854Q455.95312 71.96354 457.3125 71.96354Q458.5 71.96354 459.21875 72.635414Q459.9375 73.30729 459.9375 74.43229L458.35938 74.43229Q458.34375 73.947914 458.04688 73.635414Q457.75 73.322914 457.28125 73.322914Q456.6875 73.322914 456.375 73.760414Q456.07812 74.197914 456.07812 75.15104L456.07812 75.33854Q456.07812 76.30729 456.375 76.74479Q456.67188 77.166664 457.28125 77.166664ZM462.67188 70.510414L462.67188 72.072914L463.76562 72.072914L463.76562 73.322914L462.67188 73.322914L462.67188 76.479164Q462.67188 76.83854 462.8125 76.99479Q462.95312 77.135414 463.32812 77.135414Q463.60938 77.135414 463.82812 77.104164L463.82812 78.385414Q463.32812 78.541664 462.79688 78.541664Q461.01562 78.541664 460.98438 76.729164L460.98438 73.322914L460.0625 73.322914L460.0625 72.072914L460.98438 72.072914L460.98438 70.510414L462.67188 70.510414ZM468.45312 77.77604Q467.82812 78.541664 466.71875 78.541664Q465.6875 78.541664 465.15625 77.947914Q464.625 77.354164 464.60938 76.229164L464.60938 72.072914L466.29688 72.072914L466.29688 76.166664Q466.29688 77.166664 467.20312 77.166664Q468.0625 77.166664 468.39062 76.55729L468.39062 72.072914L470.09375 72.072914L470.09375 78.416664L468.5 78.416664L468.45312 77.77604ZM475.32812 78.416664Q475.20312 78.18229 475.15625 77.854164Q474.54688 78.541664 473.5625 78.541664Q472.625 78.541664 472.01562 77.99479Q471.40625 77.447914 471.40625 76.635414Q471.40625 75.61979 472.14062 75.08854Q472.89062 74.541664 474.3125 74.541664L475.07812 74.541664L475.07812 74.18229Q475.07812 73.74479 474.85938 73.479164Q474.64062 73.21354 474.14062 73.21354Q473.71875 73.21354 473.46875 73.416664Q473.23438 73.61979 473.23438 73.979164L471.54688 73.979164Q471.54688 73.43229 471.875 72.96354Q472.21875 72.49479 472.84375 72.229164Q473.46875 71.96354 474.23438 71.96354Q475.40625 71.96354 476.09375 72.55729Q476.78125 73.135414 476.78125 74.197914L476.78125 76.947914Q476.79688 77.854164 477.03125 78.322914L477.03125 78.416664L475.32812 78.416664ZM473.92188 77.24479Q474.29688 77.24479 474.60938 77.072914Q474.9375 76.90104 475.07812 76.61979L475.07812 75.52604L474.45312 75.52604Q473.1875 75.52604 473.09375 76.416664L473.09375 76.510414Q473.09375 76.822914 473.3125 77.041664Q473.53125 77.24479 473.92188 77.24479ZM479.4375 78.416664L477.73438 78.416664L477.73438 69.416664L479.4375 69.416664L479.4375 78.416664ZM490.40625 75.947914L491.5625 69.885414L493.3125 69.885414L491.42188 78.416664L489.64062 78.416664L488.25 72.71354L486.875 78.416664L485.09375 78.416664L483.20312 69.885414L484.95312 69.885414L486.10938 75.947914L487.51562 69.885414L489.0 69.885414L490.40625 75.947914ZM497.5625 78.541664Q496.17188 78.541664 495.29688 77.68229Q494.42188 76.822914 494.42188 75.40104L494.42188 75.229164Q494.42188 74.27604 494.78125 73.52604Q495.15625 72.77604 495.82812 72.36979Q496.51562 71.96354 497.375 71.96354Q498.6875 71.96354 499.42188 72.791664Q500.17188 73.604164 500.17188 75.104164L500.17188 75.791664L496.14062 75.791664Q496.21875 76.416664 496.625 76.791664Q497.04688 77.166664 497.6875 77.166664Q498.65625 77.166664 499.20312 76.46354L500.04688 77.385414Q499.65625 77.93229 499.0 78.24479Q498.35938 78.541664 497.5625 78.541664ZM497.375 73.322914Q496.875 73.322914 496.5625 73.666664Q496.25 74.010414 496.15625 74.635414L498.51562 74.635414L498.51562 74.510414Q498.5 73.947914 498.20312 73.635414Q497.92188 73.322914 497.375 73.322914ZM502.4375 78.416664L500.73438 78.416664L500.73438 72.072914L502.4375 72.072914L502.4375 78.416664ZM500.64062 70.43229Q500.64062 70.05729 500.89062 69.80729Q501.15625 69.55729 501.59375 69.55729Q502.01562 69.55729 502.26562 69.80729Q502.53125 70.05729 502.53125 70.43229Q502.53125 70.822914 502.26562 71.072914Q502.01562 71.30729 501.57812 71.30729Q501.15625 71.30729 500.89062 71.072914Q500.64062 70.822914 500.64062 70.43229ZM503.40625 75.197914Q503.40625 73.74479 504.09375 72.854164Q504.79688 71.96354 505.96875 71.96354Q507.01562 71.96354 507.59375 72.666664L507.67188 72.072914L509.20312 72.072914L509.20312 78.197914Q509.20312 79.041664 508.8125 79.65104Q508.4375 80.27604 507.75 80.58854Q507.07812 80.916664 506.15625 80.916664Q505.45312 80.916664 504.78125 80.635414Q504.125 80.354164 503.79688 79.916664L504.54688 78.885414Q505.17188 79.58854 506.07812 79.58854Q506.75 79.58854 507.125 79.229164Q507.5 78.86979 507.5 78.21354L507.5 77.86979Q506.92188 78.541664 505.95312 78.541664Q504.8125 78.541664 504.10938 77.65104Q503.40625 76.74479 503.40625 75.27604L503.40625 75.197914ZM505.09375 75.322914Q505.09375 76.18229 505.4375 76.68229Q505.79688 77.166664 506.39062 77.166664Q507.17188 77.166664 507.5 76.58854L507.5 73.916664Q507.15625 73.33854 506.40625 73.33854Q505.79688 73.33854 505.4375 73.83854Q505.09375 74.33854 505.09375 75.322914ZM512.2969 72.760414Q512.9844 71.96354 514.0 71.96354Q516.0625 71.96354 516.09375 74.354164L516.09375 78.416664L514.3906 78.416664L514.3906 74.40104Q514.3906 73.854164 514.15625 73.604164Q513.9219 73.33854 513.375 73.33854Q512.6406 73.33854 512.2969 73.916664L512.2969 78.416664L510.60938 78.416664L510.60938 69.416664L512.2969 69.416664L512.2969 72.760414ZM519.6719 70.510414L519.6719 72.072914L520.7656 72.072914L520.7656 73.322914L519.6719 73.322914L519.6719 76.479164Q519.6719 76.83854 519.8125 76.99479Q519.9531 77.135414 520.3281 77.135414Q520.6094 77.135414 520.8281 77.104164L520.8281 78.385414Q520.3281 78.541664 519.7969 78.541664Q518.0156 78.541664 517.9844 76.729164L517.9844 73.322914L517.0625 73.322914L517.0625 72.072914L517.9844 72.072914L517.9844 70.510414L519.6719 70.510414Z" fill-rule="nonzero"/><path fill="#757575" d="M370.34375 40.340626L372.26562 30.23125L375.17188 30.23125L372.03125 44.45L369.07812 44.45L366.76562 34.934376L364.45312 44.45L361.5 44.45L358.34375 30.23125L361.26562 30.23125L363.1875 40.325L365.53125 30.23125L368.01562 30.23125L370.34375 40.340626ZM380.95312 44.653126Q378.625 44.653126 377.15625 43.23125Q375.70312 41.79375 375.70312 39.41875L375.70312 39.153126Q375.70312 37.559376 376.3125 36.309376Q376.9375 35.04375 378.0625 34.371876Q379.1875 33.684376 380.64062 33.684376Q382.79688 33.684376 384.04688 35.059376Q385.29688 36.41875 385.29688 38.934376L385.29688 40.090626L378.5625 40.090626Q378.70312 41.121876 379.39062 41.746876Q380.07812 42.371876 381.14062 42.371876Q382.76562 42.371876 383.6875 41.184376L385.0625 42.746876Q384.4375 43.6375 383.34375 44.153126Q382.26562 44.653126 380.95312 44.653126ZM380.625 35.965626Q379.78125 35.965626 379.25 36.54375Q378.73438 37.10625 378.59375 38.153126L382.51562 38.153126L382.51562 37.934376Q382.5 36.996876 382.01562 36.48125Q381.53125 35.965626 380.625 35.965626ZM390.0625 44.45L387.23438 44.45L387.23438 33.8875L390.0625 33.8875L390.0625 44.45ZM387.0625 31.153126Q387.0625 30.5125 387.48438 30.10625Q387.92188 29.7 388.64062 29.7Q389.375 29.7 389.79688 30.10625Q390.23438 30.5125 390.23438 31.153126Q390.23438 31.79375 389.79688 32.2Q389.35938 32.60625 388.64062 32.60625Q387.9375 32.60625 387.5 32.2Q387.0625 31.79375 387.0625 31.153126ZM391.67188 39.090626Q391.67188 36.653126 392.82812 35.16875Q393.98438 33.684376 395.95312 33.684376Q397.6875 33.684376 398.65625 34.871876L398.78125 33.8875L401.32812 33.8875L401.32812 44.090626Q401.32812 45.48125 400.70312 46.5125Q400.07812 47.54375 398.92188 48.075Q397.78125 48.60625 396.25 48.60625Q395.09375 48.60625 393.98438 48.1375Q392.89062 47.684376 392.3125 46.95L393.5625 45.23125Q394.625 46.41875 396.125 46.41875Q397.25 46.41875 397.875 45.809376Q398.5 45.215626 398.5 44.10625L398.5 43.54375Q397.53125 44.653126 395.9375 44.653126Q394.03125 44.653126 392.84375 43.16875Q391.67188 41.66875 391.67188 39.2L391.67188 39.090626ZM394.5 39.29375Q394.5 40.73125 395.07812 41.54375Q395.65625 42.35625 396.65625 42.35625Q397.9375 42.35625 398.5 41.3875L398.5 36.95Q397.9375 35.98125 396.67188 35.98125Q395.65625 35.98125 395.07812 36.809376Q394.5 37.6375 394.5 39.29375ZM405.84375 35.028126Q406.96875 33.684376 408.65625 33.684376Q412.09375 33.684376 412.14062 37.684376L412.14062 44.45L409.32812 44.45L409.32812 37.7625Q409.32812 36.85625 408.9375 36.41875Q408.54688 35.98125 407.64062 35.98125Q406.39062 35.98125 405.84375 36.934376L405.84375 44.45L403.01562 44.45L403.01562 29.45L405.84375 29.45L405.84375 35.028126ZM417.46875 31.278126L417.46875 33.8875L419.26562 33.8875L419.26562 35.95L417.46875 35.95L417.46875 41.23125Q417.46875 41.809376 417.6875 42.075Q417.90625 42.325 418.54688 42.325Q419.01562 42.325 419.375 42.246876L419.375 44.3875Q418.54688 44.653126 417.67188 44.653126Q414.70312 44.653126 414.64062 41.653126L414.64062 35.95L413.09375 35.95L413.09375 33.8875L414.64062 33.8875L414.64062 31.278126L417.46875 31.278126ZM426.21875 38.66875Q426.21875 36.434376 426.8125 34.41875Q427.40625 32.3875 428.5625 30.840626Q429.73438 29.278126 431.07812 28.66875L431.625 30.184376Q430.20312 31.246876 429.40625 33.45Q428.60938 35.653126 428.60938 38.60625L428.60938 38.91875Q428.60938 41.871876 429.39062 44.090626Q430.1875 46.309376 431.625 47.403126L431.07812 48.8875Q429.75 48.29375 428.60938 46.778126Q427.46875 45.278126 426.85938 43.309376Q426.25 41.340626 426.21875 39.184376L426.21875 38.66875ZM436.0625 44.45L433.23438 44.45L433.23438 29.45L436.0625 29.45L436.0625 44.45ZM447.60938 39.2625Q447.60938 41.809376 446.51562 43.23125Q445.4375 44.653126 443.5 44.653126Q441.78125 44.653126 440.75 43.325L440.625 44.45L438.07812 44.45L438.07812 29.45L440.90625 29.45L440.90625 34.825Q441.89062 33.684376 443.46875 33.684376Q445.40625 33.684376 446.5 35.10625Q447.60938 36.528126 447.60938 39.10625L447.60938 39.2625ZM444.78125 39.059376Q444.78125 37.45 444.26562 36.715626Q443.76562 35.98125 442.76562 35.98125Q441.42188 35.98125 440.90625 37.090626L440.90625 41.2625Q441.42188 42.371876 442.78125 42.371876Q444.15625 42.371876 444.57812 41.028126Q444.78125 40.371876 444.78125 39.059376ZM454.8125 41.528126Q454.8125 41.0125 454.29688 40.715626Q453.78125 40.41875 452.65625 40.184376Q448.875 39.3875 448.875 36.98125Q448.875 35.575 450.04688 34.6375Q451.21875 33.684376 453.09375 33.684376Q455.10938 33.684376 456.3125 34.6375Q457.51562 35.575 457.51562 37.090626L454.70312 37.090626Q454.70312 36.496876 454.3125 36.10625Q453.92188 35.7 453.09375 35.7Q452.375 35.7 451.98438 36.028126Q451.59375 36.340626 451.59375 36.840626Q451.59375 37.309376 452.03125 37.60625Q452.48438 37.8875 453.53125 38.10625Q454.59375 38.309376 455.3125 38.575Q457.54688 39.3875 457.54688 41.41875Q457.54688 42.85625 456.3125 43.7625Q455.07812 44.653126 453.10938 44.653126Q451.78125 44.653126 450.75 44.184376Q449.71875 43.7 449.125 42.871876Q448.54688 42.04375 448.54688 41.090626L451.21875 41.090626Q451.26562 41.840626 451.78125 42.246876Q452.29688 42.6375 453.17188 42.6375Q453.98438 42.6375 454.39062 42.340626Q454.8125 42.028126 454.8125 41.528126ZM463.95312 38.8875Q463.95312 41.10625 463.3125 43.153126Q462.67188 45.184376 461.48438 46.746876Q460.29688 48.309376 458.9375 48.8875L458.39062 47.403126Q459.78125 46.35625 460.57812 44.184376Q461.375 41.996876 461.40625 39.16875L461.40625 38.653126Q461.40625 35.73125 460.60938 33.5125Q459.8125 31.278126 458.39062 30.16875L458.9375 28.66875Q460.26562 29.246876 461.4375 30.7625Q462.625 32.278126 463.26562 34.29375Q463.92188 36.29375 463.95312 38.45L463.95312 38.8875Z" fill-rule="nonzero"/></svg>