<svg height="512pt" viewBox="0 0 512 512" width="512pt" xmlns="http://www.w3.org/2000/svg" xmlns:xlink="http://www.w3.org/1999/xlink"><linearGradient id="a" gradientUnits="userSpaceOnUse" x1="256" x2="256" y1="0" y2="512"><stop offset="0" stop-color="#2af598"/><stop offset="1" stop-color="#009efd"/></linearGradient><path d="m512 302v-145c0-25.109375-7.476562-48.40625-22.222656-69.242188-13.476563-19.042968-32.742188-35.539062-57.257813-49.03125-45.386719-24.972656-108.074219-38.726562-176.519531-38.726562-66.851562 0-129.980469 17.058594-177.757812 48.03125-50.457032 32.710938-78.242188 77.089844-78.242188 124.96875 0 .332031 0 .667969.00390625 1l-.00390625 159c0 29.777344 9.875 57.1875 29.351562 81.46875 17.226563 21.472656 41.703126 40.046875 72.746094 55.210938 55.875 27.289062 130.421875 42.320312 209.902344 42.320312h200v-170h-200c-69.730469 0-135.265625-16.332031-186-46.160156v-46.832032c7.980469 6.289063 17.078125 12.140626 27.265625 17.464844 38.90625 20.332032 90.664063 31.527344 145.734375 31.527344 55.945312 0 108.117188-13.074219 146.910156-36.816406 9.710938-5.941406 18.421875-12.445313 26.089844-19.4375v60.253906zm-40 80v90h-40v-50h-40v50h-40v-50h-40v50c-13.453125 0-26.824219-.484375-40-1.421875v-50.136719c-13.515625-1.054687-26.867188-2.644531-40-4.746094v50.542969c-13.757812-2.019531-27.136719-4.5625-40-7.582031v-51.128906c-13.6875-3.421875-27.046875-7.4375-40-12.023438v51.601563c-11.503906-4.023438-22.339844-8.484375-32.347656-13.371094-2.523438-1.230469-5.078125-2.535156-7.652344-3.90625v-50.90625c-13.679688-6.578125-26.738281-13.863281-39.0625-21.835937-.316406-.207032-.621094-.417969-.9375-.621094v45.273437c-18.375-17.464843-32-40.078125-32-68.738281v-56.867188c14.640625 17.445313 32.949219 33.320313 54.660156 47.363282 58.320313 37.726562 135.507813 58.503906 217.339844 58.503906zm-244-131.5v-40.359375c19.378906 5.140625 41.589844 8.859375 69 8.859375v-40c-34.820312 0-60.195312-7.15625-82.429688-14.890625l-26.570312-9.242187v83.457031c-37.65625-15.179688-62-37.691407-62-62.324219 0-31.960938 57.101562-57 130-57 36.160156 0 72.355469 5.703125 99.292969 15.648438 24.382812 8.996093 31.953125 17.945312 33.421875 21.304687-2.324219 2.625-10.15625 8.523437-27.734375 13.992187-18.496094 5.753907-41.742188 9.054688-63.78125 9.054688v40c29.570312 0 60.125-4.964844 83.839843-13.617188 2.816407-1.027343 5.453126-2.082031 7.960938-3.160156v41.613282c-26.597656 9.234374-57.417969 14.164062-90 14.164062-25.128906 0-49.207031-2.699219-71-7.5zm201-25.949219v-67.550781c0-17.238281-10.382812-41.617188-59.855469-59.878906-31.203125-11.515625-72.441406-18.121094-113.144531-18.121094-43.976562 0-84.746094 8.144531-114.792969 22.929688-34.019531 16.742187-53.421875 41.511718-55.078125 70.070312h-.128906v94.496094c-29.894531-27.648438-46-59.972656-46-93.496094 0-33.859375 21.308594-66.320312 60.003906-91.40625 41.371094-26.820312 96.773438-41.59375 155.996094-41.59375 61.816406 0 117.65625 11.992188 157.234375 33.773438 26.808594 14.75 58.765625 41.164062 58.765625 83.226562 0 32.066406-22.515625 54.121094-43 67.550781zm0 0" fill="url(#a)"/></svg>